<?xml version="1.0" encoding="utf-8"?>
<svg version="1.1" xmlns:xlink="http://www.w3.org/1999/xlink" width="250px" height="280px" xmlns="http://www.w3.org/2000/svg">
  <g transform="matrix(1 0 0 1 -10 -10 )">
    <path d="M 10 10  L 260 10  L 260 290  L 10 290  L 10 10  " fill-rule="nonzero" fill="#cccccc" stroke="none" />
    <path d="M 28 28  L 242 28  L 242 272  L 28 272  L 28 28  " fill-rule="nonzero" fill="#ffffff" stroke="none" />
    <path d="M 158.75 89.5  C 148.25 89.5  140 81.25  140 70.75  C 140 60.25  148.25 52  158.75 52  C 169.25 52  177.5 60.25  177.5 70.75  C 177.5 81.25  169.25 89.5  158.75 89.5  " fill-rule="nonzero" fill="#cccccc" stroke="none" />
    <path d="M 35 266  L 35 138.95  L 85.25 81.2  L 155.6 127.4  L 195.8 115.85  L 236 127.4  L 236 266  L 35 266  " fill-rule="nonzero" fill="#169bd5" stroke="none" />
  </g>
</svg>