<?xml version="1.0" encoding="utf-8"?>
<svg version="1.1" xmlns:xlink="http://www.w3.org/1999/xlink" width="12px" height="12px" viewBox="120 229  12 12" xmlns="http://www.w3.org/2000/svg">
  <path d="M 126 229  C 129.36 229  132 231.64  132 235  C 132 238.36  129.36 241  126 241  C 122.64 241  120 238.36  120 235  C 120 231.64  122.64 229  126 229  Z " fill-rule="nonzero" fill="#ffffff" stroke="none" fill-opacity="0" />
  <path d="M 126 229.5  C 129.08 229.5  131.5 231.92  131.5 235  C 131.5 238.08  129.08 240.5  126 240.5  C 122.92 240.5  120.5 238.08  120.5 235  C 120.5 231.92  122.92 229.5  126 229.5  Z " stroke-width="1" stroke="#aaaaaa" fill="none" />
  <path d="M 126 238  C 124.32 238  123 236.68  123 235  C 123 233.32  124.32 232  126 232  C 127.68 232  129 233.32  129 235  C 129 236.68  127.68 238  126 238  " fill-rule="nonzero" fill="#aaaaaa" stroke="none" />
</svg>