<?xml version="1.0" encoding="utf-8"?>
<svg version="1.1" xmlns:xlink="http://www.w3.org/1999/xlink" width="20px" height="20px" xmlns="http://www.w3.org/2000/svg">
  <g transform="matrix(1 0 0 1 -170 -5 )">
    <path d="M 15.0520833333333 0.758928571428572  L 19.1145833333333 4.24107142857143  C 19.3576388888889 4.44940476190476  19.5659722222222 4.73214285714286  19.7395833333333 5.08928571428571  C 19.9131944444444 5.44642857142857  20 5.77380952380952  20 6.07142857142857  L 20 18.9285714285714  C 20 19.2261904761905  19.8784722222222 19.4791666666667  19.6354166666667 19.6875  C 19.3923611111111 19.8958333333333  19.0972222222222 20  18.75 20  L 1.25 20  C 0.902777777777778 20  0.607638888888889 19.8958333333333  0.364583333333333 19.6875  C 0.121527777777778 19.4791666666667  0 19.2261904761905  0 18.9285714285714  L 0 1.07142857142857  C 0 0.773809523809523  0.121527777777778 0.520833333333333  0.364583333333333 0.3125  C 0.607638888888889 0.104166666666667  0.902777777777778 0  1.25 0  L 12.9166666666667 0  C 13.2638888888889 0  13.6458333333333 0.0744047619047628  14.0625 0.223214285714286  C 14.4791666666667 0.372023809523809  14.8090277777778 0.550595238095237  15.0520833333333 0.758928571428572  Z M 13.8671875 1.76339285714286  C 13.7630208333333 1.67410714285714  13.5850694444444 1.5922619047619  13.3333333333333 1.51785714285714  L 13.3333333333333 5.71428571428571  L 18.2291666666667 5.71428571428571  C 18.1423611111111 5.4985119047619  18.046875 5.34598214285714  17.9427083333333 5.25669642857143  L 13.8671875 1.76339285714286  Z M 2 18.5714285714286  L 18 18.5714285714286  L 18 7.14285714285714  L 12.9166666666667 7.14285714285714  C 12.5694444444444 7.14285714285714  12.2743055555556 7.03869047619047  12.03125 6.83035714285714  C 11.7881944444444 6.62202380952381  11.6666666666667 6.36904761904762  11.6666666666667 6.07142857142857  L 11.6666666666667 1.42857142857143  L 2 1.42857142857143  L 2 18.5714285714286  Z M 6.94010416666667 8.57142857142857  L 3.03385416666667 8.57142857142857  L 3.03385416666667 9.765625  L 3.9453125 9.765625  L 6.08072916666667 17.1428571428571  L 8.15104166666667 17.1428571428571  L 9.81770833333333 11.7299107142857  C 9.87847222222222 11.5811011904762  9.921875 11.4099702380952  9.94791666666667 11.2165178571429  C 9.96527777777778 11.0974702380952  9.97395833333333 11.0081845238095  9.97395833333333 10.9486607142857  L 10.0260416666667 10.9486607142857  L 10.0651041666667 11.2165178571429  C 10.0737847222222 11.2388392857143  10.0889756944444 11.313244047619  10.1106770833333 11.4397321428571  C 10.1323784722222 11.5662202380952  10.15625 11.6629464285714  10.1822916666667 11.7299107142857  L 11.8489583333333 17.1428571428571  L 13.9192708333333 17.1428571428571  L 16.0546875 9.765625  L 16.9661458333333 9.765625  L 16.9661458333333 8.57142857142857  L 13.0598958333333 8.57142857142857  L 13.0598958333333 9.765625  L 14.2317708333333 9.765625  L 12.9427083333333 14.6540178571429  C 12.8993055555556 14.8028273809524  12.8689236111111 14.9739583333333  12.8515625 15.1674107142857  L 12.8255208333333 15.4017857142857  L 12.7734375 15.4017857142857  C 12.7734375 15.3794642857143  12.7712673611111 15.3552827380952  12.7669270833333 15.3292410714286  C 12.7625868055556 15.3031994047619  12.7560763888889 15.2734375  12.7473958333333 15.2399553571429  C 12.7387152777778 15.2064732142857  12.734375 15.1822916666667  12.734375 15.1674107142857  C 12.7256944444444 15.1302083333333  12.7083333333333 15.0520833333333  12.6822916666667 14.9330357142857  C 12.65625 14.8139880952381  12.6345486111111 14.7209821428571  12.6171875 14.6540178571429  L 10.7421875 8.57142857142857  L 9.2578125 8.57142857142857  L 7.3828125 14.6540178571429  C 7.36545138888889 14.7209821428571  7.34592013888889 14.8121279761905  7.32421875 14.9274553571429  C 7.30251736111111 15.0427827380952  7.28732638888889 15.1227678571429  7.27864583333333 15.1674107142857  L 7.2265625 15.4017857142857  L 7.17447916666667 15.4017857142857  L 7.1484375 15.1674107142857  C 7.13107638888889 14.9739583333333  7.10069444444445 14.8028273809524  7.05729166666667 14.6540178571429  L 5.76822916666667 9.765625  L 6.94010416666667 9.765625  L 6.94010416666667 8.57142857142857  Z " fill-rule="nonzero" fill="#000000" stroke="none" transform="matrix(1 0 0 1 170 5 )" />
  </g>
</svg>