<?xml version="1.0" encoding="utf-8"?>
<svg version="1.1" xmlns:xlink="http://www.w3.org/1999/xlink" width="12px" height="12px" viewBox="380 439  12 12" xmlns="http://www.w3.org/2000/svg">
  <path d="M 386 439  C 389.36 439  392 441.64  392 445  C 392 448.36  389.36 451  386 451  C 382.64 451  380 448.36  380 445  C 380 441.64  382.64 439  386 439  Z " fill-rule="nonzero" fill="#ffffff" stroke="none" fill-opacity="0" />
  <path d="M 386 439.5  C 389.08 439.5  391.5 441.92  391.5 445  C 391.5 448.08  389.08 450.5  386 450.5  C 382.92 450.5  380.5 448.08  380.5 445  C 380.5 441.92  382.92 439.5  386 439.5  Z " stroke-width="1" stroke="#aaaaaa" fill="none" />
  <path d="M 386 448  C 384.32 448  383 446.68  383 445  C 383 443.32  384.32 442  386 442  C 387.68 442  389 443.32  389 445  C 389 446.68  387.68 448  386 448  " fill-rule="nonzero" fill="#aaaaaa" stroke="none" />
</svg>