<?xml version="1.0" encoding="utf-8"?>
<svg version="1.1" xmlns:xlink="http://www.w3.org/1999/xlink" width="320px" height="150px" xmlns="http://www.w3.org/2000/svg">
  <g>
    <path d="M 0 0  L 320 0  L 320 150  L 0 150  L 0 0  " fill-rule="nonzero" fill="#cccccc" stroke="none" />
    <path d="M 11 11  L 309 11  L 309 139  L 11 139  L 11 11  " fill-rule="nonzero" fill="#ffffff" stroke="none" />
    <path d="M 177.65 45  C 171.35 45  166.4 40.05  166.4 33.75  C 166.4 27.45  171.35 22.5  177.65 22.5  C 183.95000000000002 22.5  188.9 27.45  188.9 33.75  C 188.9 40.05  183.95000000000002 45  177.65 45  " fill-rule="nonzero" fill="#cccccc" stroke="none" />
    <path d="M 15 135  L 15 69  L 87.5 39  L 189 101.25  L 247 57  L 305 101.25  L 305 135  L 15 135  " fill-rule="nonzero" fill="#169bd5" stroke="none" />
  </g>
</svg>