<?xml version="1.0" encoding="utf-8"?>
<svg version="1.1" xmlns:xlink="http://www.w3.org/1999/xlink" width="12px" height="12px" viewBox="90 1744  12 12" xmlns="http://www.w3.org/2000/svg">
  <path d="M 96 1744  C 99.36 1744  102 1746.64  102 1750  C 102 1753.36  99.36 1756  96 1756  C 92.64 1756  90 1753.36  90 1750  C 90 1746.64  92.64 1744  96 1744  Z " fill-rule="nonzero" fill="#f0f0f0" stroke="none" />
  <path d="M 96 1744.5  C 99.08 1744.5  101.5 1746.92  101.5 1750  C 101.5 1753.08  99.08 1755.5  96 1755.5  C 92.92 1755.5  90.5 1753.08  90.5 1750  C 90.5 1746.92  92.92 1744.5  96 1744.5  Z " stroke-width="1" stroke="#aaaaaa" fill="none" />
  <path d="M 96 1753  C 94.32 1753  93 1751.68  93 1750  C 93 1748.32  94.32 1747  96 1747  C 97.68 1747  99 1748.32  99 1750  C 99 1751.68  97.68 1753  96 1753  " fill-rule="nonzero" fill="#aaaaaa" stroke="none" />
</svg>