<?xml version="1.0" encoding="utf-8"?>
<svg version="1.1" xmlns:xlink="http://www.w3.org/1999/xlink" width="12px" height="12px" viewBox="220 369  12 12" xmlns="http://www.w3.org/2000/svg">
  <path d="M 226 369  C 229.36 369  232 371.64  232 375  C 232 378.36  229.36 381  226 381  C 222.64 381  220 378.36  220 375  C 220 371.64  222.64 369  226 369  Z " fill-rule="nonzero" fill="#f0f0f0" stroke="none" />
  <path d="M 226 369.5  C 229.08 369.5  231.5 371.92  231.5 375  C 231.5 378.08  229.08 380.5  226 380.5  C 222.92 380.5  220.5 378.08  220.5 375  C 220.5 371.92  222.92 369.5  226 369.5  Z " stroke-width="1" stroke="#aaaaaa" fill="none" />
  <path d="M 226 378  C 224.32 378  223 376.68  223 375  C 223 373.32  224.32 372  226 372  C 227.68 372  229 373.32  229 375  C 229 376.68  227.68 378  226 378  " fill-rule="nonzero" fill="#aaaaaa" stroke="none" />
</svg>