<?xml version="1.0" encoding="utf-8"?>
<svg version="1.1" xmlns:xlink="http://www.w3.org/1999/xlink" width="12px" height="12px" viewBox="120 369  12 12" xmlns="http://www.w3.org/2000/svg">
  <path d="M 126 369  C 129.36 369  132 371.64  132 375  C 132 378.36  129.36 381  126 381  C 122.64 381  120 378.36  120 375  C 120 371.64  122.64 369  126 369  Z " fill-rule="nonzero" fill="#f0f0f0" stroke="none" />
  <path d="M 126 369.5  C 129.08 369.5  131.5 371.92  131.5 375  C 131.5 378.08  129.08 380.5  126 380.5  C 122.92 380.5  120.5 378.08  120.5 375  C 120.5 371.92  122.92 369.5  126 369.5  Z " stroke-width="1" stroke="#aaaaaa" fill="none" />
  <path d="M 126 378  C 124.32 378  123 376.68  123 375  C 123 373.32  124.32 372  126 372  C 127.68 372  129 373.32  129 375  C 129 376.68  127.68 378  126 378  " fill-rule="nonzero" fill="#aaaaaa" stroke="none" />
</svg>