<?xml version="1.0" encoding="utf-8"?>
<svg version="1.1" xmlns:xlink="http://www.w3.org/1999/xlink" width="6px" height="10px" xmlns="http://www.w3.org/2000/svg">
  <g transform="matrix(1 0 0 1 -162 -10 )">
    <path d="M 5.896907216494867 4.769539078156296  C 5.965635738831622 4.836339345357377  6 4.91315965263863  6 5  C 6 5.086840347361367  5.965635738831622 5.1636606546426265  5.896907216494867 5.230460921843708  L 1.092783505154614 9.899799599198381  C 1.0240549828178587 9.966599866399463  0.9450171821305844 10  0.8556701030927911 10  C 0.7663230240549979 10  0.6872852233676667 9.966599866399463  0.6185567010309114 9.899799599198381  L 0.10309278350513296 9.398797595190388  C 0.03436426116837765 9.331997327989313  0 9.255177020708082  0 9.168336673346694  C 0 9.081496325985313  0.03436426116837765 9.004676018704053  0.10309278350513296 8.937875751503007  L 4.154639175257728 5  L 0.10309278350513296 1.0621242484969908  C 0.03436426116837765 0.9953239812959449  0 0.9185036740146888  0 0.8316633266533078  C 0 0.7448229792919161  0.03436426116837765 0.6680026720106849  0.10309278350513296 0.6012024048096141  L 0.6185567010309114 0.10020040080161685  C 0.6872852233676667 0.0334001336005354  0.7663230240549979 0  0.8556701030927911 0  C 0.9450171821305844 0  1.0240549828178587 0.0334001336005354  1.092783505154614 0.10020040080161685  L 5.896907216494867 4.769539078156296  Z " fill-rule="nonzero" fill="#c0c0c0" stroke="none" transform="matrix(1 0 0 1 162 10 )" />
  </g>
</svg>