<?xml version="1.0" encoding="utf-8"?>
<svg version="1.1" xmlns:xlink="http://www.w3.org/1999/xlink" width="10px" height="6px" xmlns="http://www.w3.org/2000/svg">
  <g transform="matrix(1 0 0 1 -160 -12 )">
    <path d="M 9.899799599198417 0.6185567010309256  C 9.966599866399463 0.6872852233676952  10 0.7663230240549694  10 0.8556701030927911  C 10 0.9450171821305702  9.966599866399463 1.024054982817887  9.899799599198417 1.0927835051546566  L 5.230460921843672 5.896907216494867  C 5.1636606546426265 5.965635738831594  5.086840347361402 6  5 6  C 4.913159652638598 6  4.8363393453573735 5.965635738831594  4.769539078156328 5.896907216494867  L 0.1002004008015831 1.0927835051546566  C 0.033400133600537174 1.024054982817887  0 0.9450171821305702  0 0.8556701030927911  C 0 0.7663230240549694  0.033400133600537174 0.6872852233676952  0.1002004008015831 0.6185567010309256  L 0.6012024048096123 0.10309278350513296  C 0.6680026720106866 0.03436426116836344  0.7448229792919392 0  0.8316633266532847 0  C 0.918503674014687 0  0.9953239812959112 0.03436426116836344  1.062124248497014 0.10309278350513296  L 5 4.154639175257728  L 8.937875751502986 0.10309278350513296  C 9.004676018704089 0.03436426116836344  9.081496325985313 0  9.168336673346715 0  C 9.25517702070806 0  9.331997327989313 0.03436426116836344  9.398797595190388 0.10309278350513296  L 9.899799599198417 0.6185567010309256  Z " fill-rule="nonzero" fill="#c0c0c0" stroke="none" transform="matrix(1 0 0 1 160 12 )" />
  </g>
</svg>