<?xml version="1.0" encoding="utf-8"?>
<svg version="1.1" xmlns:xlink="http://www.w3.org/1999/xlink" width="20px" height="20px" xmlns="http://www.w3.org/2000/svg">
  <g transform="matrix(1 0 0 1 -455 -2 )">
    <path d="M 15.5859375 11.419270833333336  C 15.750868055555543 11.254340277777777  15.833333333333314 11.059027777777777  15.833333333333314 10.833333333333336  L 15.833333333333314 9.166666666666666  C 15.833333333333314 8.94097222222222  15.750868055555543 8.74565972222222  15.5859375 8.580729166666666  C 15.421006944444457 8.41579861111111  15.225694444444457 8.333333333333334  15 8.333333333333334  L 5 8.333333333333334  C 4.774305555555543 8.333333333333334  4.578993055555543 8.41579861111111  4.4140625 8.580729166666666  C 4.249131944444457 8.74565972222222  4.166666666666686 8.94097222222222  4.166666666666686 9.166666666666666  L 4.166666666666686 10.833333333333336  C 4.166666666666686 11.059027777777777  4.249131944444457 11.254340277777777  4.4140625 11.419270833333336  C 4.578993055555543 11.58420138888889  4.774305555555543 11.666666666666664  5 11.666666666666664  L 15 11.666666666666664  C 15.225694444444457 11.666666666666664  15.421006944444457 11.58420138888889  15.5859375 11.419270833333336  Z M 18.658854166666686 4.98046875  C 19.552951388888914 6.5125868055555545  20 8.185763888888888  20 10  C 20 11.81423611111111  19.552951388888914 13.48741319444444  18.658854166666686 15.01953125  C 17.764756944444457 16.55164930555556  16.551649305555543 17.76475694444444  15.01953125 18.65885416666667  C 13.487413194444457 19.55295138888889  11.814236111111086 20  10 20  C 8.185763888888914 20  6.512586805555543 19.55295138888889  4.98046875 18.65885416666667  C 3.448350694444457 17.76475694444444  2.235243055555543 16.55164930555556  1.3411458333333144 15.01953125  C 0.44704861111108585 13.48741319444444  0 11.81423611111111  0 10  C 0 8.185763888888888  0.44704861111108585 6.5125868055555545  1.3411458333333144 4.98046875  C 2.235243055555543 3.4483506944444446  3.448350694444457 2.2352430555555536  4.98046875 1.3411458333333326  C 6.512586805555543 0.4470486111111094  8.185763888888914 0  10 0  C 11.814236111111086 0  13.487413194444457 0.4470486111111094  15.01953125 1.3411458333333326  C 16.551649305555543 2.2352430555555536  17.764756944444457 3.4483506944444446  18.658854166666686 4.98046875  Z " fill-rule="nonzero" fill="#bcbcbc" stroke="none" transform="matrix(1 0 0 1 455 2 )" />
  </g>
</svg>