<?xml version="1.0" encoding="utf-8"?>
<svg version="1.1" xmlns:xlink="http://www.w3.org/1999/xlink" width="20px" height="20px" xmlns="http://www.w3.org/2000/svg">
  <g transform="matrix(1 0 0 1 -455 -255 )">
    <path d="M 15.5859375 11.419270833333343  C 15.750868055555543 11.254340277777771  15.833333333333371 11.059027777777771  15.833333333333371 10.833333333333343  L 15.833333333333371 9.166666666666657  C 15.833333333333371 8.940972222222229  15.750868055555543 8.745659722222229  15.5859375 8.580729166666657  C 15.421006944444457 8.415798611111086  15.225694444444457 8.333333333333343  15 8.333333333333343  L 11.666666666666629 8.333333333333343  L 11.666666666666629 5  C 11.666666666666629 4.7743055555555145  11.584201388888914 4.5789930555555145  11.419270833333371 4.4140625  C 11.254340277777828 4.249131944444429  11.059027777777828 4.166666666666657  10.833333333333371 4.166666666666657  L 9.166666666666629 4.166666666666657  C 8.940972222222172 4.166666666666657  8.745659722222172 4.249131944444429  8.580729166666629 4.4140625  C 8.415798611111086 4.5789930555555145  8.333333333333371 4.7743055555555145  8.333333333333371 5  L 8.333333333333371 8.333333333333343  L 5 8.333333333333343  C 4.774305555555543 8.333333333333343  4.578993055555543 8.415798611111086  4.4140625 8.580729166666657  C 4.249131944444457 8.745659722222229  4.166666666666629 8.940972222222229  4.166666666666629 9.166666666666657  L 4.166666666666629 10.833333333333343  C 4.166666666666629 11.059027777777771  4.249131944444457 11.254340277777771  4.4140625 11.419270833333343  C 4.578993055555543 11.584201388888914  4.774305555555543 11.666666666666657  5 11.666666666666657  L 8.333333333333371 11.666666666666657  L 8.333333333333371 15  C 8.333333333333371 15.225694444444429  8.415798611111086 15.421006944444429  8.580729166666629 15.5859375  C 8.745659722222172 15.750868055555571  8.940972222222172 15.833333333333343  9.166666666666629 15.833333333333343  L 10.833333333333371 15.833333333333343  C 11.059027777777828 15.833333333333343  11.254340277777828 15.750868055555571  11.419270833333371 15.5859375  C 11.584201388888914 15.421006944444429  11.666666666666629 15.225694444444429  11.666666666666629 15  L 11.666666666666629 11.666666666666657  L 15 11.666666666666657  C 15.225694444444457 11.666666666666657  15.421006944444457 11.584201388888914  15.5859375 11.419270833333343  Z M 18.65885416666663 4.98046875  C 19.552951388888914 6.512586805555571  20 8.185763888888914  20 10  C 20 11.814236111111086  19.552951388888914 13.487413194444429  18.65885416666663 15.01953125  C 17.764756944444457 16.55164930555557  16.551649305555543 17.76475694444443  15.01953125 18.658854166666657  C 13.487413194444457 19.552951388888914  11.814236111111086 20  10 20  C 8.185763888888914 20  6.512586805555543 19.552951388888914  4.98046875 18.658854166666657  C 3.448350694444457 17.76475694444443  2.235243055555543 16.55164930555557  1.3411458333333712 15.01953125  C 0.44704861111108585 13.487413194444429  0 11.814236111111086  0 10  C 0 8.185763888888914  0.44704861111108585 6.512586805555571  1.3411458333333712 4.98046875  C 2.235243055555543 3.4483506944444287  3.448350694444457 2.2352430555555145  4.98046875 1.3411458333333428  C 6.512586805555543 0.44704861111108585  8.185763888888914 0  10 0  C 11.814236111111086 0  13.487413194444457 0.44704861111108585  15.01953125 1.3411458333333428  C 16.551649305555543 2.2352430555555145  17.764756944444457 3.4483506944444287  18.65885416666663 4.98046875  Z " fill-rule="nonzero" fill="#bcbcbc" stroke="none" transform="matrix(1 0 0 1 455 255 )" />
  </g>
</svg>