<?xml version="1.0" encoding="utf-8"?>
<svg version="1.1" xmlns:xlink="http://www.w3.org/1999/xlink" width="16px" height="16px" xmlns="http://www.w3.org/2000/svg">
  <g transform="matrix(1 0 0 1 -923 -13 )">
    <path d="M 923 13  L 939 13  L 939 29  L 923 29  L 923 13  " fill-rule="nonzero" fill="#cccccc" stroke="none" />
    <path d="M 924 14  L 938 14  L 938 28  L 924 28  L 924 14  " fill-rule="nonzero" fill="#ffffff" stroke="none" />
    <path d="M 932.52 17.8  C 931.848 17.8  931.32 17.272  931.32 16.6  C 931.32 15.928  931.848 15.4  932.52 15.4  C 933.192 15.4  933.72 15.928  933.72 16.6  C 933.72 17.272  933.192 17.8  932.52 17.8  " fill-rule="nonzero" fill="#cccccc" stroke="none" />
    <path d="M 925 28  L 925 20.85  L 928.25 17.6  L 932.8 20.2  L 935.4 19.55  L 938 20.2  L 938 28  L 925 28  " fill-rule="nonzero" fill="#169bd5" stroke="none" />
  </g>
</svg>