<?xml version="1.0" encoding="utf-8"?>
<svg version="1.1" xmlns:xlink="http://www.w3.org/1999/xlink" width="12px" height="12px" viewBox="481 730  12 12" xmlns="http://www.w3.org/2000/svg">
  <path d="M 487 730  C 490.36 730  493 732.64  493 736  C 493 739.36  490.36 742  487 742  C 483.64 742  481 739.36  481 736  C 481 732.64  483.64 730  487 730  Z " fill-rule="nonzero" fill="#f0f0f0" stroke="none" />
  <path d="M 487 730.5  C 490.08 730.5  492.5 732.92  492.5 736  C 492.5 739.08  490.08 741.5  487 741.5  C 483.92 741.5  481.5 739.08  481.5 736  C 481.5 732.92  483.92 730.5  487 730.5  Z " stroke-width="1" stroke="#aaaaaa" fill="none" />
  <path d="M 487 739  C 485.32 739  484 737.68  484 736  C 484 734.32  485.32 733  487 733  C 488.68 733  490 734.32  490 736  C 490 737.68  488.68 739  487 739  " fill-rule="nonzero" fill="#aaaaaa" stroke="none" />
</svg>