<?xml version="1.0" encoding="utf-8"?>
<svg version="1.1" xmlns:xlink="http://www.w3.org/1999/xlink" width="12px" height="12px" viewBox="481 770  12 12" xmlns="http://www.w3.org/2000/svg">
  <path d="M 487 770  C 490.36 770  493 772.64  493 776  C 493 779.36  490.36 782  487 782  C 483.64 782  481 779.36  481 776  C 481 772.64  483.64 770  487 770  Z " fill-rule="nonzero" fill="#ffffff" stroke="none" fill-opacity="0" />
  <path d="M 487 770.5  C 490.08 770.5  492.5 772.92  492.5 776  C 492.5 779.08  490.08 781.5  487 781.5  C 483.92 781.5  481.5 779.08  481.5 776  C 481.5 772.92  483.92 770.5  487 770.5  Z " stroke-width="1" stroke="#aaaaaa" fill="none" />
  <path d="M 487 779  C 485.32 779  484 777.68  484 776  C 484 774.32  485.32 773  487 773  C 488.68 773  490 774.32  490 776  C 490 777.68  488.68 779  487 779  " fill-rule="nonzero" fill="#aaaaaa" stroke="none" />
</svg>