<?xml version="1.0" encoding="utf-8"?>
<svg version="1.1" xmlns:xlink="http://www.w3.org/1999/xlink" width="12px" height="12px" viewBox="581 770  12 12" xmlns="http://www.w3.org/2000/svg">
  <path d="M 587 770  C 590.36 770  593 772.64  593 776  C 593 779.36  590.36 782  587 782  C 583.64 782  581 779.36  581 776  C 581 772.64  583.64 770  587 770  Z " fill-rule="nonzero" fill="#f0f0f0" stroke="none" />
  <path d="M 587 770.5  C 590.08 770.5  592.5 772.92  592.5 776  C 592.5 779.08  590.08 781.5  587 781.5  C 583.92 781.5  581.5 779.08  581.5 776  C 581.5 772.92  583.92 770.5  587 770.5  Z " stroke-width="1" stroke="#aaaaaa" fill="none" />
  <path d="M 587 779  C 585.32 779  584 777.68  584 776  C 584 774.32  585.32 773  587 773  C 588.68 773  590 774.32  590 776  C 590 777.68  588.68 779  587 779  " fill-rule="nonzero" fill="#aaaaaa" stroke="none" />
</svg>