<?xml version="1.0" encoding="utf-8"?>
<svg version="1.1" xmlns:xlink="http://www.w3.org/1999/xlink" width="120px" height="120px" xmlns="http://www.w3.org/2000/svg">
  <g>
    <path d="M 0 0  L 120 0  L 120 120  L 0 120  L 0 0  " fill-rule="nonzero" fill="#cccccc" stroke="none" />
    <path d="M 8 8  L 112 8  L 112 112  L 8 112  L 8 8  " fill-rule="nonzero" fill="#ffffff" stroke="none" />
    <path d="M 71.4 36  C 66.36 36  62.4 32.04  62.4 27  C 62.4 21.96  66.36 18  71.4 18  C 76.44 18  80.4 21.96  80.4 27  C 80.4 32.04  76.44 36  71.4 36  " fill-rule="nonzero" fill="#cccccc" stroke="none" />
    <path d="M 11 109  L 11 55.1  L 35.5 30.6  L 69.8 50.2  L 89.4 45.3  L 109 50.2  L 109 109  L 11 109  " fill-rule="nonzero" fill="#169bd5" stroke="none" />
  </g>
</svg>