<?xml version="1.0" encoding="utf-8"?>
<svg version="1.1" xmlns:xlink="http://www.w3.org/1999/xlink" width="12px" height="12px" viewBox="250 359  12 12" xmlns="http://www.w3.org/2000/svg">
  <path d="M 256 359  C 259.36 359  262 361.64  262 365  C 262 368.36  259.36 371  256 371  C 252.64 371  250 368.36  250 365  C 250 361.64  252.64 359  256 359  Z " fill-rule="nonzero" fill="#f0f0f0" stroke="none" />
  <path d="M 256 359.5  C 259.08 359.5  261.5 361.92  261.5 365  C 261.5 368.08  259.08 370.5  256 370.5  C 252.92 370.5  250.5 368.08  250.5 365  C 250.5 361.92  252.92 359.5  256 359.5  Z " stroke-width="1" stroke="#aaaaaa" fill="none" />
  <path d="M 256 368  C 254.32 368  253 366.68  253 365  C 253 363.32  254.32 362  256 362  C 257.68 362  259 363.32  259 365  C 259 366.68  257.68 368  256 368  " fill-rule="nonzero" fill="#aaaaaa" stroke="none" />
</svg>