<?xml version="1.0" encoding="utf-8"?>
<svg version="1.1" xmlns:xlink="http://www.w3.org/1999/xlink" width="12px" height="12px" viewBox="150 119  12 12" xmlns="http://www.w3.org/2000/svg">
  <path d="M 156 119  C 159.36 119  162 121.64  162 125  C 162 128.36  159.36 131  156 131  C 152.64 131  150 128.36  150 125  C 150 121.64  152.64 119  156 119  Z " fill-rule="nonzero" fill="#ffffff" stroke="none" fill-opacity="0" />
  <path d="M 156 119.5  C 159.08 119.5  161.5 121.92  161.5 125  C 161.5 128.08  159.08 130.5  156 130.5  C 152.92 130.5  150.5 128.08  150.5 125  C 150.5 121.92  152.92 119.5  156 119.5  Z " stroke-width="1" stroke="#aaaaaa" fill="none" />
  <path d="M 156 128  C 154.32 128  153 126.68  153 125  C 153 123.32  154.32 122  156 122  C 157.68 122  159 123.32  159 125  C 159 126.68  157.68 128  156 128  " fill-rule="nonzero" fill="#aaaaaa" stroke="none" />
</svg>