<?xml version="1.0" encoding="utf-8"?>
<svg version="1.1" xmlns:xlink="http://www.w3.org/1999/xlink" width="14px" height="14px" xmlns="http://www.w3.org/2000/svg">
  <g transform="matrix(1 0 0 1 -476 -128 )">
    <path d="M 483 128  C 486.92 128  490 131.08  490 135  C 490 138.92  486.92 142  483 142  C 479.08 142  476 138.92  476 135  C 476 131.08  479.08 128  483 128  Z " fill-rule="nonzero" fill="#ffffff" stroke="none" fill-opacity="0" />
    <path d="M 483 128.5  C 486.64 128.5  489.5 131.36  489.5 135  C 489.5 138.64  486.64 141.5  483 141.5  C 479.36 141.5  476.5 138.64  476.5 135  C 476.5 131.36  479.36 128.5  483 128.5  Z " stroke-width="1" stroke="#d7d7d7" fill="none" />
  </g>
</svg>