<?xml version="1.0" encoding="utf-8"?>
<svg version="1.1" xmlns:xlink="http://www.w3.org/1999/xlink" width="110px" height="40px" xmlns="http://www.w3.org/2000/svg">
  <defs>
    <filter x="1035px" y="5px" width="110px" height="40px" filterUnits="userSpaceOnUse" id="filter1204">
      <feOffset dx="0" dy="0" in="SourceAlpha" result="shadowOffsetInner" />
      <feGaussianBlur stdDeviation="2.5" in="shadowOffsetInner" result="shadowGaussian" />
      <feComposite in2="shadowGaussian" operator="atop" in="SourceAlpha" result="shadowComposite" />
      <feColorMatrix type="matrix" values="0 0 0 0 0  0 0 0 0 0  0 0 0 0 0  0 0 0 0.349019607843137 0  " in="shadowComposite" />
    </filter>
    <g id="widget1205">
      <path d="M 1051.87169743442 10.5  C 1051.87169743442 10.5  1049.27629776794 10.8893099499721  1049.27629776794 10.8893099499721  C 1049.27629776794 10.8893099499721  1040.54803588132 25  1040.54803588132 25  C 1040.54803588132 25  1049.27629776794 39.1106900500279  1049.27629776794 39.1106900500279  C 1049.27629776794 39.1106900500279  1051.87169743442 39.5  1051.87169743442 39.5  C 1051.87169743442 39.5  1139.5 39.5  1139.5 39.5  C 1139.5 39.5  1139.5 10.5  1139.5 10.5  C 1139.5 10.5  1051.87169743442 10.5  1051.87169743442 10.5  Z " fill-rule="nonzero" fill="#f2f2f2" stroke="none" />
      <path d="M 1051.87169743442 10.5  C 1051.87169743442 10.5  1049.27629776794 10.8893099499721  1049.27629776794 10.8893099499721  C 1049.27629776794 10.8893099499721  1040.54803588132 25  1040.54803588132 25  C 1040.54803588132 25  1049.27629776794 39.1106900500279  1049.27629776794 39.1106900500279  C 1049.27629776794 39.1106900500279  1051.87169743442 39.5  1051.87169743442 39.5  C 1051.87169743442 39.5  1139.5 39.5  1139.5 39.5  C 1139.5 39.5  1139.5 10.5  1139.5 10.5  C 1139.5 10.5  1051.87169743442 10.5  1051.87169743442 10.5  Z " stroke-width="1" stroke="#bcbcbc" fill="none" />
    </g>
  </defs>
  <g transform="matrix(1 0 0 1 -1035 -5 )">
    <use xlink:href="#widget1205" filter="url(#filter1204)" />
    <use xlink:href="#widget1205" />
  </g>
</svg>