<?xml version="1.0" encoding="utf-8"?>
<svg version="1.1" xmlns:xlink="http://www.w3.org/1999/xlink" width="16px" height="16px" xmlns="http://www.w3.org/2000/svg">
  <g transform="matrix(1 0 0 1 -220 -211 )">
    <path d="M 3.984375 1.07291666666666  C 5.21006944444446 0.357638888888886  6.54861111111111 0  8 0  C 9.45138888888889 0  10.7899305555555 0.357638888888886  12.015625 1.07291666666666  C 13.2413194444445 1.78819444444446  14.2118055555555 2.75868055555554  14.9270833333333 3.984375  C 15.6423611111111 5.21006944444446  16 6.54861111111111  16 8  C 16 9.45138888888889  15.6423611111111 10.7899305555555  14.9270833333333 12.015625  C 14.2118055555555 13.2413194444445  13.2413194444445 14.2118055555555  12.015625 14.9270833333333  C 10.7899305555555 15.6423611111111  9.45138888888889 16  8 16  C 6.54861111111111 16  5.21006944444446 15.6423611111111  3.984375 14.9270833333333  C 2.75868055555554 14.2118055555555  1.78819444444446 13.2413194444445  1.07291666666666 12.015625  C 0.357638888888886 10.7899305555555  0 9.45138888888889  0 8  C 0 6.54861111111111  0.357638888888886 5.21006944444446  1.07291666666666 3.984375  C 1.78819444444446 2.75868055555554  2.75868055555554 1.78819444444446  3.984375 1.07291666666666  Z M 9.23958333333334 13.234375  C 9.30208333333334 13.1684027777778  9.33333333333334 13.0868055555555  9.33333333333334 12.9895833333333  L 9.33333333333334 11.0104166666667  C 9.33333333333334 10.9131944444445  9.30208333333334 10.8315972222222  9.23958333333334 10.765625  C 9.17708333333334 10.6996527777778  9.10069444444446 10.6666666666667  9.01041666666666 10.6666666666667  L 7.01041666666666 10.6666666666667  C 6.92013888888889 10.6666666666667  6.84027777777777 10.7013888888889  6.77083333333334 10.7708333333333  C 6.70138888888889 10.8402777777778  6.66666666666666 10.9201388888889  6.66666666666666 11.0104166666667  L 6.66666666666666 12.9895833333333  C 6.66666666666666 13.0798611111111  6.70138888888889 13.1597222222222  6.77083333333334 13.2291666666667  C 6.84027777777777 13.2986111111111  6.92013888888889 13.3333333333333  7.01041666666666 13.3333333333333  L 9.01041666666666 13.3333333333333  C 9.10069444444446 13.3333333333333  9.17708333333334 13.3003472222222  9.23958333333334 13.234375  Z M 9.203125 9.58854166666666  C 9.26909722222223 9.53645833333334  9.30555555555554 9.47569444444446  9.3125 9.40625  L 9.5 2.9375  C 9.5 2.85416666666666  9.46527777777777 2.79166666666666  9.39583333333334 2.75  C 9.32638888888889 2.69444444444446  9.24305555555554 2.66666666666666  9.14583333333334 2.66666666666666  L 6.85416666666666 2.66666666666666  C 6.75694444444446 2.66666666666666  6.67361111111111 2.69444444444446  6.60416666666666 2.75  C 6.53472222222223 2.79166666666666  6.5 2.85416666666666  6.5 2.9375  L 6.67708333333334 9.40625  C 6.67708333333334 9.47569444444446  6.71180555555554 9.53645833333334  6.78125 9.58854166666666  C 6.85069444444446 9.640625  6.93402777777777 9.66666666666666  7.03125 9.66666666666666  L 8.95833333333334 9.66666666666666  C 9.05555555555554 9.66666666666666  9.13715277777777 9.640625  9.203125 9.58854166666666  Z " fill-rule="nonzero" fill="#333333" stroke="none" transform="matrix(1 0 0 1 220 211 )" />
  </g>
</svg>