<?xml version="1.0" encoding="utf-8"?>
<svg version="1.1" xmlns:xlink="http://www.w3.org/1999/xlink" width="100px" height="30px" xmlns="http://www.w3.org/2000/svg">
  <g transform="matrix(1 0 0 1 -10 -10 )">
    <path d="M 98.1283025655836 10.5  C 98.1283025655836 10.5  100.723702232064 10.8893099499721  100.723702232064 10.8893099499721  C 100.723702232064 10.8893099499721  109.451964118679 25  109.451964118679 25  C 109.451964118679 25  100.723702232064 39.1106900500279  100.723702232064 39.1106900500279  C 100.723702232064 39.1106900500279  98.1283025655837 39.5  98.1283025655837 39.5  C 98.1283025655837 39.5  10.5 39.5  10.5 39.5  C 10.5 39.5  10.5 10.5  10.5 10.5  C 10.5 10.5  98.1283025655836 10.5  98.1283025655836 10.5  Z " fill-rule="nonzero" fill="#ffffff" stroke="none" fill-opacity="0" />
    <path d="M 98.1283025655836 10.5  C 98.1283025655836 10.5  100.723702232064 10.8893099499721  100.723702232064 10.8893099499721  C 100.723702232064 10.8893099499721  109.451964118679 25  109.451964118679 25  C 109.451964118679 25  100.723702232064 39.1106900500279  100.723702232064 39.1106900500279  C 100.723702232064 39.1106900500279  98.1283025655837 39.5  98.1283025655837 39.5  C 98.1283025655837 39.5  10.5 39.5  10.5 39.5  C 10.5 39.5  10.5 10.5  10.5 10.5  C 10.5 10.5  98.1283025655836 10.5  98.1283025655836 10.5  Z " stroke-width="1" stroke="#bcbcbc" fill="none" />
  </g>
</svg>