<?xml version="1.0" encoding="utf-8"?>
<svg version="1.1" xmlns:xlink="http://www.w3.org/1999/xlink" width="12px" height="12px" viewBox="210 62  12 12" xmlns="http://www.w3.org/2000/svg">
  <path d="M 216 62  C 219.36 62  222 64.64  222 68  C 222 71.36  219.36 74  216 74  C 212.64 74  210 71.36  210 68  C 210 64.64  212.64 62  216 62  Z " fill-rule="nonzero" fill="#ffffff" stroke="none" fill-opacity="0" />
  <path d="M 216 62.5  C 219.08 62.5  221.5 64.92  221.5 68  C 221.5 71.08  219.08 73.5  216 73.5  C 212.92 73.5  210.5 71.08  210.5 68  C 210.5 64.92  212.92 62.5  216 62.5  Z " stroke-width="1" stroke="#aaaaaa" fill="none" />
  <path d="M 216 71  C 214.32 71  213 69.68  213 68  C 213 66.32  214.32 65  216 65  C 217.68 65  219 66.32  219 68  C 219 69.68  217.68 71  216 71  " fill-rule="nonzero" fill="#aaaaaa" stroke="none" />
</svg>