<?xml version="1.0" encoding="utf-8"?>
<svg version="1.1" xmlns:xlink="http://www.w3.org/1999/xlink" width="228px" height="40px" xmlns="http://www.w3.org/2000/svg">
  <defs>
    <linearGradient gradientUnits="userSpaceOnUse" x1="114" y1="20" x2="0" y2="20" id="LinearGradient3077">
      <stop id="Stop3078" stop-color="#d59292" offset="0" />
      <stop id="Stop3079" stop-color="#d7d0d0" offset="1" />
    </linearGradient>
  </defs>
  <g transform="matrix(1 0 0 1 -54 -187 )">
    <path d="M 0 40  C 0 40  22.1968896713618 1.15196078431359  31.3380281690143 0.784313725490165  C 40.4791666666667 0.416666666666742  51.2201850783617 40  64.4366197183099 40  C 82.5127378077452 40  98.2678990610325 0.63112745098033  107.394366197183 0.784313725490165  C 116.520833333333 0.9375  132.981220657277 40  148.239436619718 40  C 161.619718309859 40  182.327464788732 0.63112745098033  189.788732394366 0.784313725490165  C 197.25 0.9375  219.023465002722 40  227.816901408451 40  C 234.158671849336 40  0 40  0 40  Z " fill-rule="nonzero" fill="url(#LinearGradient3077)" stroke="none" transform="matrix(1 0 0 1 54 187 )" />
  </g>
</svg>