<?xml version="1.0" encoding="utf-8"?>
<svg version="1.1" xmlns:xlink="http://www.w3.org/1999/xlink" width="92px" height="194px" xmlns="http://www.w3.org/2000/svg">
  <g transform="matrix(1 0 0 1 -558 -789 )">
    <path d="M 10 117.785714285714  C 10 142.977212289317  17.9030631432372 166.035323117889  31.4376895224059 184.711702746738  C 32.9767115145218 185.546993800031  34 187.160891635973  34 189.051020408163  C 34 191.822448979592  31.8 194  29 194  C 27.6128626876204 194  26.3729817469293 193.465569562614  25.4487199475136 192.608934863715  C 25.3913797485463 192.534193509228  25.3341308828859 192.459394761345  25.2769734077399 192.384538788264  C 8.87617082639815 170.9053178571  0 144.714464206224  0 117.785714285714  C 0 64.9925162248292  33.8360481404444 18.0621206470205  84.1675672349639 0.848440628847814  C 84.9682497666736 0.311354962188723  85.9412296823605 0  87 0  C 89.8 0  92 2.17755102040821  92 4.94897959183673  C 92 7.43633736285254  90.2278853549385 9.4453228131699  87.840364842071 9.83103701263768  C 42.163197886295 24.82770245808  10 66.9655717369659  10 117.785714285714  Z " fill-rule="nonzero" fill="#8400ff" stroke="none" transform="matrix(1 0 0 1 558 789 )" />
  </g>
</svg>