<?xml version="1.0" encoding="utf-8"?>
<svg version="1.1" xmlns:xlink="http://www.w3.org/1999/xlink" width="300px" height="40px" xmlns="http://www.w3.org/2000/svg">
  <defs>
    <linearGradient gradientUnits="userSpaceOnUse" x1="150" y1="20" x2="0" y2="20" id="LinearGradient1025">
      <stop id="Stop1026" stop-color="#8aff80" offset="0" />
      <stop id="Stop1027" stop-color="#8080ff" offset="1" />
    </linearGradient>
  </defs>
  <g transform="matrix(1 0 0 1 -368 -187 )">
    <path d="M 0 40  C 0 40  24.217723004695 0.672794117646845  31.3380281690143 0.784313725490165  C 38.4583333333335 0.895833333333485  51.2201850783617 40  64.4366197183099 40  C 82.5127378077452 40  100.288732394366 1.19362745098033  107.394366197183 0.784313725490165  C 114.5 0.375  132.981220657277 40  148.239436619718 40  C 161.619718309859 40  183.306631455399 0.151960784313587  189.788732394366 0.784313725490165  C 196.270833333333 1.41666666666674  219.023465002722 40  227.816901408451 40  C 234.158671849336 40  257.602406103286 1.19362745098033  264.43661971831 0.784313725490165  C 271.270833333333 0.375  300 40  300 40  L 0 40  Z " fill-rule="nonzero" fill="url(#LinearGradient1025)" stroke="none" transform="matrix(1 0 0 1 368 187 )" />
  </g>
</svg>