<?xml version="1.0" encoding="utf-8"?>
<svg version="1.1" xmlns:xlink="http://www.w3.org/1999/xlink" width="250px" height="199px" xmlns="http://www.w3.org/2000/svg">
  <g transform="matrix(1 0 0 1 -218 -555 )">
    <path d="M 250 123.756218905473  C 250 149.553448353624  241.857854566679 174.687601135972  226.739828877672 195.655985113453  C 226.079129037239 197.618646541332  224.229824028802 199  222 199  C 219.2 199  217 196.821890547264  217 194.049751243781  C 217 192.383309098562  217.795010860286 190.931530672743  219.037459165699 190.038529060194  C 232.281714078593 171.475469487202  240 148.65786515859  240 123.756218905473  C 240 59.9970149253732  189.4 9.90049751243781  125 9.90049751243781  C 60.6 9.90049751243781  10 59.9970149253732  10 123.756218905473  C 10 148.657944616374  17.7183351774981 171.475615102957  30.9627259570495 190.038663785008  C 32.2050684499144 190.931675506154  33 192.383392222683  33 194.049751243781  C 33 196.821890547264  30.8 199  28 199  C 25.7701852756699 199  23.9208863960979 197.618658069361  23.26017937448 195.656009686388  C 8.14576903825312 174.692754641847  0 149.559497073731  0 123.756218905473  C 0 55.4075465072587  55.9644062711508 0  125 0  C 194.035593728849 0  250 55.4075465072587  250 123.756218905473  Z " fill-rule="nonzero" fill="#f2f2f2" stroke="none" transform="matrix(1 0 0 1 218 555 )" />
  </g>
</svg>