<?xml version="1.0" encoding="utf-8"?>
<svg version="1.1" xmlns:xlink="http://www.w3.org/1999/xlink" width="16px" height="12px" xmlns="http://www.w3.org/2000/svg">
  <g transform="matrix(1 0 0 1 -240 -4 )">
    <path d="M 8.75763747454175 11.36774193548387  C 8.361167684996607 11.789247311827957  8.108621860149356 12  8 12  C 7.891378139850645 12  7.638832315003395 11.789247311827957  7.242362525458248 11.36774193548387  C 6.845892735913104 10.946236559139784  6.64765784114053 10.678136200716846  6.647657841140529 10.563440860215053  C 6.64765784114053 10.379928315412187  6.817379497623898 10.225089605734768  7.156822810590631 10.098924731182796  C 7.496266123557366 9.972759856630823  7.7773251866938224 9.90967741935484  8 9.90967741935484  C 8.22267481330618 9.90967741935484  8.503733876442634 9.972759856630823  8.843177189409369 10.098924731182796  C 9.182620502376103 10.225089605734768  9.35234215885947 10.379928315412187  9.35234215885947 10.563440860215053  C 9.35234215885947 10.678136200716846  9.154107264086898 10.946236559139784  8.75763747454175 11.36774193548387  Z M 10.961303462321792 9.023655913978494  C 10.551255940257978 9.453763440860214  10.29735234215886 9.668817204301074  10.19959266802444 9.668817204301074  C 10.188730482009506 9.668817204301074  10.08010862186015 9.597132616487453  9.873727087576375 9.453763440860214  C 9.6673455532926 9.310394265232974  9.391717583163613 9.167025089605733  9.046843177189409 9.023655913978494  C 8.701968771215208 8.880286738351256  8.353021045485406 8.808602150537634  8 8.808602150537634  C 7.646978954514597 8.808602150537634  7.298031228784793 8.880286738351256  6.95315682281059 9.023655913978494  C 6.6082824168363885 9.167025089605733  6.334012219959267 9.310394265232974  6.130346232179226 9.453763440860214  C 5.9266802443991855 9.597132616487453  5.816700610997963 9.668817204301074  5.80040733197556 9.668817204301074  C 5.7026476578411405 9.668817204301074  5.448744059742023 9.453763440860214  5.038696537678208 9.023655913978494  C 4.628649015614393 8.593548387096774  4.423625254582484 8.326881720430109  4.423625254582484 8.223655913978495  C 4.423625254582484 8.14910394265233  4.450780719619824 8.083154121863798  4.505091649694501 8.025806451612903  C 4.928716904276985 7.584229390681004  5.460964019008826 7.237275985663081  6.10183299389002 6.98494623655914  C 6.7427019687712155 6.732616487455196  7.37542430414121 6.606451612903226  8 6.606451612903226  C 8.624575695858793 6.606451612903226  9.257298031228785 6.732616487455196  9.89816700610998 6.98494623655914  C 10.539035980991175 7.237275985663081  11.071283095723015 7.584229390681004  11.494908350305499 8.025806451612903  C 11.549219280380177 8.083154121863798  11.576374745417516 8.14910394265233  11.576374745417516 8.223655913978495  C 11.576374745417516 8.326881720430109  11.371350984385609 8.593548387096774  10.961303462321792 9.023655913978494  Z M 13.173116089613035 6.683870967741935  C 12.765784114052956 7.113978494623656  12.515953835709437 7.329032258064517  12.423625254582484 7.329032258064517  C 12.36388323150034 7.329032258064517  12.301425661914461 7.306093189964156  12.236252545824847 7.2602150537634405  C 11.497623896809234 6.658064516129032  10.813306177868297 6.215053763440861  10.183299389002036 5.931182795698925  C 9.553292600135778 5.647311827956989  8.8255261371351 5.505376344086022  8 5.505376344086022  C 7.538357094365242 5.505376344086022  7.075356415478616 5.568458781362008  6.610997963340123 5.694623655913979  C 6.146639511201629 5.820788530465949  5.742023082145281 5.972759856630823  5.39714867617108 6.150537634408603  C 5.052274270196878 6.328315412186379  4.744059742023082 6.506093189964156  4.472505091649695 6.683870967741935  C 4.200950441276308 6.861648745519712  3.986422267481331 7.013620071684587  3.8289205702647657 7.13978494623656  C 3.6714188730482014 7.2659498207885305  3.587236931432451 7.329032258064517  3.576374745417515 7.329032258064517  C 3.4840461642905636 7.329032258064517  3.2342158859470467 7.113978494623656  2.8268839103869654 6.683870967741935  C 2.419551934826884 6.253763440860215  2.2158859470468433 5.987096774193548  2.2158859470468433 5.883870967741936  C 2.2158859470468433 5.81505376344086  2.243041412084182 5.751971326164874  2.2973523421588595 5.694623655913979  C 3.014256619144603 4.93763440860215  3.883231500339444 4.349820788530465  4.904276985743381 3.9311827956989243  C 5.925322471147319 3.512544802867383  6.957230142566192 3.303225806451613  8 3.303225806451613  C 9.04276985743381 3.303225806451613  10.074677528852682 3.512544802867383  11.095723014256619 3.9311827956989243  C 12.116768499660559 4.349820788530465  12.985743380855396 4.93763440860215  13.70264765784114 5.694623655913979  C 13.75695858791582 5.751971326164874  13.784114052953159 5.81505376344086  13.784114052953157 5.883870967741936  C 13.784114052953159 5.987096774193548  13.580448065173117 6.253763440860215  13.173116089613035 6.683870967741935  Z M 15.384928716904277 4.3526881720430115  C 14.974881194840462 4.7827956989247316  14.723693143245079 4.997849462365592  14.631364562118126 4.997849462365592  C 14.571622539035983 4.997849462365592  14.511880515953838 4.972043010752689  14.45213849287169 4.920430107526881  C 13.479972844534963 4.020071684587814  12.47114731839783 3.341935483870967  11.425661914460285 2.8860215053763443  C 10.380176510522743 2.43010752688172  9.238289205702648 2.2021505376344086  8 2.2021505376344086  C 6.761710794297352 2.2021505376344086  5.619823489477257 2.43010752688172  4.574338085539715 2.8860215053763443  C 3.528852681602173 3.341935483870967  2.5200271554650375 4.020071684587814  1.5478615071283095 4.920430107526881  C 1.4881194840461645 4.972043010752689  1.4283774609640192 4.997849462365592  1.3686354378818737 4.997849462365592  C 1.276306856754922 4.997849462365592  1.0251188051595383 4.7827956989247316  0.615071283095723 4.3526881720430115  C 0.2050237610319077 3.9225806451612906  0 3.6559139784946235  0 3.5526881720430112  C 0 3.4781362007168455  0.027155465037338785 3.4121863799283148  0.0814663951120163 3.354838709677419  C 1.0970807875084863 2.288172043010752  2.3054989816700613 1.46236559139785  3.706720977596741 0.8774193548387097  C 5.107942973523421 0.29247311827956946  6.539035980991175 0  8 0  C 9.460964019008827 0  10.892057026476579 0.29247311827956946  12.293279022403258 0.8774193548387097  C 13.694501018329941 1.46236559139785  14.902919212491515 2.288172043010752  15.918533604887983 3.354838709677419  C 15.972844534962661 3.4121863799283148  16 3.4781362007168455  16 3.5526881720430112  C 16 3.6559139784946235  15.794976238968093 3.9225806451612906  15.384928716904277 4.3526881720430115  Z " fill-rule="nonzero" fill="#333333" stroke="none" transform="matrix(1 0 0 1 240 4 )" />
  </g>
</svg>