<?xml version="1.0" encoding="utf-8"?>
<svg version="1.1" xmlns:xlink="http://www.w3.org/1999/xlink" width="50px" height="50px" xmlns="http://www.w3.org/2000/svg">
  <g transform="matrix(1 0 0 1 -20 -70 )">
    <path d="M 45 70  C 59 70  70 81  70 95  C 70 109  59 120  45 120  C 31 120  20 109  20 95  C 20 81  31 70  45 70  Z " fill-rule="nonzero" fill="#f2f2f2" stroke="none" />
    <path d="M 45 70.5  C 58.72 70.5  69.5 81.28  69.5 95  C 69.5 108.72  58.72 119.5  45 119.5  C 31.28 119.5  20.5 108.72  20.5 95  C 20.5 81.28  31.28 70.5  45 70.5  Z " stroke-width="1" stroke="#d7d7d7" fill="none" />
  </g>
</svg>