<?xml version="1.0" encoding="utf-8"?>
<svg version="1.1" xmlns:xlink="http://www.w3.org/1999/xlink" width="12px" height="12px" viewBox="250 1579  12 12" xmlns="http://www.w3.org/2000/svg">
  <path d="M 256 1579  C 259.36 1579  262 1581.64  262 1585  C 262 1588.36  259.36 1591  256 1591  C 252.64 1591  250 1588.36  250 1585  C 250 1581.64  252.64 1579  256 1579  Z " fill-rule="nonzero" fill="#f0f0f0" stroke="none" />
  <path d="M 256 1579.5  C 259.08 1579.5  261.5 1581.92  261.5 1585  C 261.5 1588.08  259.08 1590.5  256 1590.5  C 252.92 1590.5  250.5 1588.08  250.5 1585  C 250.5 1581.92  252.92 1579.5  256 1579.5  Z " stroke-width="1" stroke="#aaaaaa" fill="none" />
  <path d="M 256 1588  C 254.32 1588  253 1586.68  253 1585  C 253 1583.32  254.32 1582  256 1582  C 257.68 1582  259 1583.32  259 1585  C 259 1586.68  257.68 1588  256 1588  " fill-rule="nonzero" fill="#aaaaaa" stroke="none" />
</svg>