<?xml version="1.0" encoding="utf-8"?>
<svg version="1.1" xmlns:xlink="http://www.w3.org/1999/xlink" width="780px" height="280px" xmlns="http://www.w3.org/2000/svg">
  <g transform="matrix(1 0 0 1 -110 -10 )">
    <path d="M 110 10  L 890 10  L 890 290  L 110 290  L 110 10  " fill-rule="nonzero" fill="#cccccc" stroke="none" />
    <path d="M 130 30  L 870 30  L 870 270  L 130 270  L 130 30  " fill-rule="nonzero" fill="#ffffff" stroke="none" />
    <path d="M 536.6 94  C 524.84 94  515.6 84.76  515.6 73  C 515.6 61.24  524.84 52  536.6 52  C 548.36 52  557.6 61.24  557.6 73  C 557.6 84.76  548.36 94  536.6 94  " fill-rule="nonzero" fill="#cccccc" stroke="none" />
    <path d="M 137 263  L 137 138.7  L 318.5 82.2  L 572.6 214.323076923077  L 717.8 116.1  L 863 214.323076923077  L 863 263  L 137 263  " fill-rule="nonzero" fill="#169bd5" stroke="none" />
  </g>
</svg>