<?xml version="1.0" encoding="utf-8"?>
<svg version="1.1" xmlns:xlink="http://www.w3.org/1999/xlink" width="12px" height="12px" viewBox="150 1579  12 12" xmlns="http://www.w3.org/2000/svg">
  <path d="M 156 1579  C 159.36 1579  162 1581.64  162 1585  C 162 1588.36  159.36 1591  156 1591  C 152.64 1591  150 1588.36  150 1585  C 150 1581.64  152.64 1579  156 1579  Z " fill-rule="nonzero" fill="#ffffff" stroke="none" fill-opacity="0" />
  <path d="M 156 1579.5  C 159.08 1579.5  161.5 1581.92  161.5 1585  C 161.5 1588.08  159.08 1590.5  156 1590.5  C 152.92 1590.5  150.5 1588.08  150.5 1585  C 150.5 1581.92  152.92 1579.5  156 1579.5  Z " stroke-width="1" stroke="#aaaaaa" fill="none" />
  <path d="M 156 1588  C 154.32 1588  153 1586.68  153 1585  C 153 1583.32  154.32 1582  156 1582  C 157.68 1582  159 1583.32  159 1585  C 159 1586.68  157.68 1588  156 1588  " fill-rule="nonzero" fill="#aaaaaa" stroke="none" />
</svg>