<?xml version="1.0" encoding="utf-8"?>
<svg version="1.1" xmlns:xlink="http://www.w3.org/1999/xlink" width="16px" height="12px" xmlns="http://www.w3.org/2000/svg">
  <g transform="matrix(1 0 0 1 -240 -4 )">
    <path d="M 8.75763747454175 11.3677419354839  C 8.36116768499661 11.789247311828  8.10862186014936 12  8 12  C 7.89137813985065 12  7.63883231500339 11.789247311828  7.24236252545825 11.3677419354839  C 6.8458927359131 10.9462365591398  6.64765784114053 10.6781362007168  6.64765784114053 10.5634408602151  C 6.64765784114053 10.3799283154122  6.8173794976239 10.2250896057348  7.15682281059063 10.0989247311828  C 7.49626612355737 9.97275985663082  7.77732518669382 9.90967741935484  8 9.90967741935484  C 8.22267481330618 9.90967741935484  8.50373387644263 9.97275985663082  8.84317718940937 10.0989247311828  C 9.1826205023761 10.2250896057348  9.35234215885947 10.3799283154122  9.35234215885947 10.5634408602151  C 9.35234215885947 10.6781362007168  9.1541072640869 10.9462365591398  8.75763747454175 11.3677419354839  Z M 10.9613034623218 9.02365591397849  C 10.551255940258 9.45376344086021  10.2973523421589 9.66881720430107  10.1995926680244 9.66881720430107  C 10.1887304820095 9.66881720430107  10.0801086218602 9.59713261648745  9.87372708757638 9.45376344086021  C 9.6673455532926 9.31039426523297  9.39171758316361 9.16702508960573  9.04684317718941 9.02365591397849  C 8.70196877121521 8.88028673835126  8.35302104548541 8.80860215053763  8 8.80860215053763  C 7.6469789545146 8.80860215053763  7.29803122878479 8.88028673835126  6.95315682281059 9.02365591397849  C 6.60828241683639 9.16702508960573  6.33401221995927 9.31039426523297  6.13034623217923 9.45376344086021  C 5.92668024439919 9.59713261648745  5.81670061099796 9.66881720430107  5.80040733197556 9.66881720430107  C 5.70264765784114 9.66881720430107  5.44874405974202 9.45376344086021  5.03869653767821 9.02365591397849  C 4.62864901561439 8.59354838709677  4.42362525458248 8.32688172043011  4.42362525458248 8.2236559139785  C 4.42362525458248 8.14910394265233  4.45078071961982 8.0831541218638  4.5050916496945 8.0258064516129  C 4.92871690427699 7.584229390681  5.46096401900883 7.23727598566308  6.10183299389002 6.98494623655914  C 6.74270196877122 6.7326164874552  7.37542430414121 6.60645161290323  8 6.60645161290323  C 8.62457569585879 6.60645161290323  9.25729803122879 6.7326164874552  9.89816700610998 6.98494623655914  C 10.5390359809912 7.23727598566308  11.071283095723 7.584229390681  11.4949083503055 8.0258064516129  C 11.5492192803802 8.0831541218638  11.5763747454175 8.14910394265233  11.5763747454175 8.2236559139785  C 11.5763747454175 8.32688172043011  11.3713509843856 8.59354838709677  10.9613034623218 9.02365591397849  Z M 13.173116089613 6.68387096774194  C 12.765784114053 7.11397849462366  12.5159538357094 7.32903225806452  12.4236252545825 7.32903225806452  C 12.3638832315003 7.32903225806452  12.3014256619145 7.30609318996416  12.2362525458248 7.26021505376344  C 11.4976238968092 6.65806451612903  10.8133061778683 6.21505376344086  10.183299389002 5.93118279569893  C 9.55329260013578 5.64731182795699  8.8255261371351 5.50537634408602  8 5.50537634408602  C 7.53835709436524 5.50537634408602  7.07535641547862 5.56845878136201  6.61099796334012 5.69462365591398  C 6.14663951120163 5.82078853046595  5.74202308214528 5.97275985663082  5.39714867617108 6.1505376344086  C 5.05227427019688 6.32831541218638  4.74405974202308 6.50609318996416  4.47250509164969 6.68387096774194  C 4.20095044127631 6.86164874551971  3.98642226748133 7.01362007168459  3.82892057026477 7.13978494623656  C 3.6714188730482 7.26594982078853  3.58723693143245 7.32903225806452  3.57637474541752 7.32903225806452  C 3.48404616429056 7.32903225806452  3.23421588594705 7.11397849462366  2.82688391038697 6.68387096774194  C 2.41955193482688 6.25376344086022  2.21588594704684 5.98709677419355  2.21588594704684 5.88387096774194  C 2.21588594704684 5.81505376344086  2.24304141208418 5.75197132616487  2.29735234215886 5.69462365591398  C 3.0142566191446 4.93763440860215  3.88323150033944 4.34982078853047  4.90427698574338 3.93118279569892  C 5.92532247114732 3.51254480286738  6.95723014256619 3.30322580645161  8 3.30322580645161  C 9.04276985743381 3.30322580645161  10.0746775288527 3.51254480286738  11.0957230142566 3.93118279569892  C 12.1167684996606 4.34982078853047  12.9857433808554 4.93763440860215  13.7026476578411 5.69462365591398  C 13.7569585879158 5.75197132616487  13.7841140529532 5.81505376344086  13.7841140529532 5.88387096774194  C 13.7841140529532 5.98709677419355  13.5804480651731 6.25376344086022  13.173116089613 6.68387096774194  Z M 15.3849287169043 4.35268817204301  C 14.9748811948405 4.78279569892473  14.7236931432451 4.99784946236559  14.6313645621181 4.99784946236559  C 14.571622539036 4.99784946236559  14.5118805159538 4.97204301075269  14.4521384928717 4.92043010752688  C 13.479972844535 4.02007168458781  12.4711473183978 3.34193548387097  11.4256619144603 2.88602150537634  C 10.3801765105227 2.43010752688172  9.23828920570265 2.20215053763441  8 2.20215053763441  C 6.76171079429735 2.20215053763441  5.61982348947726 2.43010752688172  4.57433808553971 2.88602150537634  C 3.52885268160217 3.34193548387097  2.52002715546504 4.02007168458781  1.54786150712831 4.92043010752688  C 1.48811948404616 4.97204301075269  1.42837746096402 4.99784946236559  1.36863543788187 4.99784946236559  C 1.27630685675492 4.99784946236559  1.02511880515954 4.78279569892473  0.615071283095723 4.35268817204301  C 0.205023761031908 3.92258064516129  0 3.65591397849462  0 3.55268817204301  C 0 3.47813620071685  0.0271554650373388 3.41218637992831  0.0814663951120163 3.35483870967742  C 1.09708078750849 2.28817204301075  2.30549898167006 1.46236559139785  3.70672097759674 0.87741935483871  C 5.10794297352342 0.292473118279569  6.53903598099117 0  8 0  C 9.46096401900883 0  10.8920570264766 0.292473118279569  12.2932790224033 0.87741935483871  C 13.6945010183299 1.46236559139785  14.9029192124915 2.28817204301075  15.918533604888 3.35483870967742  C 15.9728445349627 3.41218637992831  16 3.47813620071685  16 3.55268817204301  C 16 3.65591397849462  15.7949762389681 3.92258064516129  15.3849287169043 4.35268817204301  Z " fill-rule="nonzero" fill="#333333" stroke="none" transform="matrix(1 0 0 1 240 4 )" />
  </g>
</svg>