<?xml version="1.0" encoding="utf-8"?>
<svg version="1.1" xmlns:xlink="http://www.w3.org/1999/xlink" width="12px" height="12px" xmlns="http://www.w3.org/2000/svg">
  <g transform="matrix(1 0 0 1 -16 -39 )">
    <path d="M 8.267578125 0  C 9.275390625 0  10.216796875000002 0.3631165117941245  11.091796875 1.0893495353824196  L 12 12  C 11.488281250000002 12  10.986328125 11.837026447462472  10.494140625 11.511079342387413  C 9.712890625000002 10.990707648320237  8.945312500000002 10.730521801286635  8.19140625 10.730521801286635  C 7.308593749999998 10.730521801286635  6.578125000000002 11.153681200857763  6 12  C 5.421875000000001 11.153681200857763  4.691406249999999 10.730521801286635  3.80859375 10.730521801286635  C 3.054687500000001 10.730521801286635  2.287109374999998 10.990707648320237  1.505859375 11.511079342387413  C 1.0058593750000022 11.837026447462472  0.5136718749999989 12  0.029296875 12  L 0 12  L 0.908203125 1.0893495353824196  C 1.7832031249999978 0.3631165117941245  2.724609375 0  3.732421875 0  C 4.642578125000001 0  5.398437500000001 0.3030736240171537  6 0.9092208720514678  C 6.601562500000002 0.3030736240171537  7.357421875000002 0  8.267578125 0  Z M 6 10.481772694781984  C 6.671875000000002 9.864188706218727  7.402343749999998 9.555396711937098  8.19140625 9.555396711937098  C 8.6953125 9.555396711937098  9.148437499999998 9.636883488205871  9.55078125 9.799857040743378  C 9.953125000000002 9.962830593280925  10.460937499999998 10.230164403145098  11.07421875 10.601858470335952  L 10.34765625 1.8441744102930695  C 9.6796875 1.3981415296640483  8.960937499999998 1.1751250893495375  8.19140625 1.1751250893495375  C 7.316406250000002 1.1751250893495375  6.5859375 1.5782701929949998  6 2.384560400285918  C 5.4140625 1.5782701929949998  4.683593750000001 1.1751250893495375  3.80859375 1.1751250893495375  C 3.039062499999999 1.1751250893495375  2.3203125 1.3981415296640483  1.65234375 1.8441744102930695  L 0.92578125 10.601858470335952  C 1.3359375 10.355968548963547  1.6591796875000022 10.170121515368121  1.8955078125 10.044317369549672  C 2.131835937499998 9.918513223731242  2.421874999999998 9.80557541100786  2.765625 9.705503931379571  C 3.109374999999999 9.605432451751255  3.45703125 9.555396711937098  3.80859375 9.555396711937098  C 4.597656249999999 9.555396711937098  5.328125000000001 9.864188706218727  6 10.481772694781984  Z M 5.7899999999999645 6.119999999999996  C 5.7899999999999645 6.15  5.7899999999999645 6.119999999999996  5.7899999999999645 6.119999999999996  C 5.7899999999999645 6.119999999999996  5.7899999999999645 6.089999999999996  5.7899999999999645 6.119999999999996  Z " fill-rule="nonzero" fill="#c0c0c0" stroke="none" transform="matrix(1 0 0 1 16 39 )" />
  </g>
</svg>