<?xml version="1.0" encoding="utf-8"?>
<svg version="1.1" xmlns:xlink="http://www.w3.org/1999/xlink" width="30px" height="30px" xmlns="http://www.w3.org/2000/svg">
  <g transform="matrix(1 0 0 1 -230 -70 )">
    <path d="M 29.840959821428555 19.49776785714289  C 29.94698660714289 19.639136904761926  30 19.806547619047592  30 20  L 30 24.285714285714334  C 30 24.47916666666663  29.94698660714289 24.646577380952408  29.840959821428555 24.787946428571445  C 29.734933035714334 24.92931547619048  29.609375 25  29.464285714285666 25  L 6.428571428571445 25  L 6.428571428571445 29.28571428571422  C 6.428571428571445 29.479166666666742  6.375558035714334 29.646577380952408  6.26953125 29.787946428571445  C 6.163504464285666 29.92931547619048  6.037946428571445 30  5.89285714285711 30  C 5.758928571428555 30  5.625 29.925595238095298  5.491071428571445 29.77678571428578  L 0.15066964285711038 22.633928571428555  C 0.05022321428566556 22.5  0 22.33630952380952  0 22.14285714285711  C 0 21.93452380952374  0.05022321428566556 21.76339285714289  0.15066964285711038 21.629464285714334  L 5.5078125 14.48660714285711  C 5.608258928571445 14.352678571428555  5.73660714285711 14.28571428571422  5.89285714285711 14.28571428571422  C 6.037946428571445 14.28571428571422  6.163504464285666 14.356398809523853  6.26953125 14.49776785714289  C 6.375558035714334 14.639136904761813  6.428571428571445 14.806547619047706  6.428571428571445 15  L 6.428571428571445 19  L 29.464285714285666 19  C 29.609375 19.285714285714334  29.734933035714334 19.35639880952374  29.840959821428555 19.49776785714289  Z M 29.84933035714289 7.34375  C 29.949776785714334 7.477678571428555  30 7.648809523809518  30 7.85714285714289  C 30 8.06547619047626  29.949776785714334 8.23660714285711  29.84933035714289 8.370535714285666  L 24.4921875 15.51339285714289  C 24.391741071428555 15.647321428571445  24.26339285714289 15.71428571428578  24.10714285714289 15.71428571428578  C 23.962053571428555 15.71428571428578  23.836495535714334 15.643601190476147  23.73046875 15.502232142857112  C 23.624441964285666 15.360863095238074  23.571428571428555 15.193452380952294  23.571428571428555 15  L 23.571428571428555 11  L 0.5357142857143344 11  C 0.390625 10.714285714285666  0.26506696428566556 10.64360119047626  0.1590401785714448 10.50223214285711  C 0.053013392857110375 10.360863095238074  0 10.193452380952408  0 10  L 0 5.714285714285666  C 0 5.520833333333371  0.053013392857110375 5.353422619047592  0.1590401785714448 5.212053571428555  C 0.26506696428566556 5.070684523809518  0.390625 5  0.5357142857143344 5  L 23.571428571428555 5  L 23.571428571428555 0.7142857142857792  C 23.571428571428555 0.505952380952408  23.621651785714334 0.3348214285714448  23.722098214285666 0.20089285714288962  C 23.82254464285711 0.06696428571433444  23.95089285714289 0  24.10714285714289 0  C 24.241071428571445 0  24.375 0.07440476190470235  24.508928571428555 0.22321428571422075  L 29.84933035714289 7.34375  Z " fill-rule="nonzero" fill="#6b6b6b" stroke="none" transform="matrix(1 0 0 1 230 70 )" />
  </g>
</svg>