<?xml version="1.0" encoding="utf-8"?>
<svg version="1.1" xmlns:xlink="http://www.w3.org/1999/xlink" width="20px" height="20px" xmlns="http://www.w3.org/2000/svg">
  <g transform="matrix(1 0 0 1 -230 -4 )">
    <path d="M 240 4  C 245.6 4  250 8.399999999999999  250 14  C 250 19.6  245.6 24  240 24  C 234.4 24  230 19.6  230 14  C 230 8.399999999999999  234.4 4  240 4  Z " fill-rule="nonzero" fill="#ffffff" stroke="none" fill-opacity="0" />
    <path d="M 240 4.5  C 245.32 4.5  249.5 8.68  249.5 14  C 249.5 19.32  245.32 23.5  240 23.5  C 234.68 23.5  230.5 19.32  230.5 14  C 230.5 8.68  234.68 4.5  240 4.5  Z " stroke-width="1" stroke="#d7d7d7" fill="none" />
  </g>
</svg>