<?xml version="1.0" encoding="utf-8"?>
<svg version="1.1" xmlns:xlink="http://www.w3.org/1999/xlink" width="10px" height="6px" xmlns="http://www.w3.org/2000/svg">
  <g transform="matrix(1 0 0 1 -370 -12 )">
    <path d="M 9.899799599198397 4.907216494845361  C 9.966599866399466 4.975945017182129  10 5.054982817869416  10 5.144329896907217  C 10 5.233676975945016  9.966599866399466 5.312714776632301  9.899799599198397 5.381443298969073  L 9.39879759519038 5.896907216494845  C 9.331997327989313 5.9656357388316135  9.255177020708084 6  9.168336673346694 6  C 9.081496325985304 6  9.004676018704075 5.9656357388316135  8.937875751503006 5.896907216494845  L 5 1.8453608247422681  L 1.062124248496994 5.896907216494845  C 0.9953239812959253 5.9656357388316135  0.9185036740146962 6  0.8316633266533067 6  C 0.7448229792919172 6  0.6680026720106882 5.9656357388316135  0.6012024048096192 5.896907216494845  L 0.1002004008016032 5.381443298969073  C 0.033400133600534496 5.312714776632301  0 5.233676975945016  0 5.144329896907217  C 0 5.054982817869416  0.033400133600534496 4.975945017182129  0.1002004008016032 4.907216494845361  L 4.7695390781563125 0.10309278350515494  C 4.836339345357382 0.03436426116838409  4.913159652638611 0  5 0  C 5.08684034736139 0  5.163660654642619 0.03436426116838409  5.230460921843687 0.10309278350515494  L 9.899799599198397 4.907216494845361  Z " fill-rule="nonzero" fill="#aaaaaa" stroke="none" transform="matrix(1 0 0 1 370 12 )" />
  </g>
</svg>