<?xml version="1.0" encoding="utf-8"?>
<svg version="1.1" xmlns:xlink="http://www.w3.org/1999/xlink" width="12px" height="12px" viewBox="110 169  12 12" xmlns="http://www.w3.org/2000/svg">
  <path d="M 116 169  C 119.36 169  122 171.64  122 175  C 122 178.36  119.36 181  116 181  C 112.64 181  110 178.36  110 175  C 110 171.64  112.64 169  116 169  Z " fill-rule="nonzero" fill="#ffffff" stroke="none" fill-opacity="0" />
  <path d="M 116 169.5  C 119.08 169.5  121.5 171.92  121.5 175  C 121.5 178.08  119.08 180.5  116 180.5  C 112.92 180.5  110.5 178.08  110.5 175  C 110.5 171.92  112.92 169.5  116 169.5  Z " stroke-width="1" stroke="#aaaaaa" fill="none" />
  <path d="M 116 178  C 114.32 178  113 176.68  113 175  C 113 173.32  114.32 172  116 172  C 117.68 172  119 173.32  119 175  C 119 176.68  117.68 178  116 178  " fill-rule="nonzero" fill="#aaaaaa" stroke="none" />
</svg>