<?xml version="1.0" encoding="utf-8"?>
<svg version="1.1" xmlns:xlink="http://www.w3.org/1999/xlink" width="50px" height="50px" xmlns="http://www.w3.org/2000/svg">
  <g transform="matrix(1 0 0 1 -125 -210 )">
    <path d="M 150 210  C 164 210  175 221  175 235  C 175 249  164 260  150 260  C 136 260  125 249  125 235  C 125 221  136 210  150 210  Z " fill-rule="nonzero" fill="#f2f2f2" stroke="none" fill-opacity="0" />
    <path d="M 150 210.5  C 163.72 210.5  174.5 221.28  174.5 235  C 174.5 248.72  163.72 259.5  150 259.5  C 136.28 259.5  125.5 248.72  125.5 235  C 125.5 221.28  136.28 210.5  150 210.5  Z " stroke-width="1" stroke="#aaaaaa" fill="none" />
  </g>
</svg>