<?xml version="1.0" encoding="utf-8"?>
<svg version="1.1" xmlns:xlink="http://www.w3.org/1999/xlink" width="12px" height="12px" viewBox="225 169  12 12" xmlns="http://www.w3.org/2000/svg">
  <path d="M 231 169  C 234.36 169  237 171.64  237 175  C 237 178.36  234.36 181  231 181  C 227.64 181  225 178.36  225 175  C 225 171.64  227.64 169  231 169  Z " fill-rule="nonzero" fill="#ffffff" stroke="none" fill-opacity="0" />
  <path d="M 231 169.5  C 234.08 169.5  236.5 171.92  236.5 175  C 236.5 178.08  234.08 180.5  231 180.5  C 227.92 180.5  225.5 178.08  225.5 175  C 225.5 171.92  227.92 169.5  231 169.5  Z " stroke-width="1" stroke="#aaaaaa" fill="none" />
  <path d="M 231 178  C 229.32 178  228 176.68  228 175  C 228 173.32  229.32 172  231 172  C 232.68 172  234 173.32  234 175  C 234 176.68  232.68 178  231 178  " fill-rule="nonzero" fill="#aaaaaa" stroke="none" />
</svg>