<?xml version="1.0" encoding="utf-8"?>
<svg version="1.1" xmlns:xlink="http://www.w3.org/1999/xlink" width="13px" height="13px" viewBox="0 2  13 13" xmlns="http://www.w3.org/2000/svg">
  <path d="M 6.5 2  C 10.14 2  13 4.859999999999999  13 8.5  C 13 12.14  10.14 15  6.5 15  C 2.8599999999999994 15  0 12.14  0 8.5  C 0 4.859999999999999  2.8599999999999994 2  6.5 2  Z " fill-rule="nonzero" fill="#ffffff" stroke="none" fill-opacity="0" />
  <path d="M 6.5 2.5  C 9.86 2.5  12.5 5.14  12.5 8.5  C 12.5 11.86  9.86 14.5  6.5 14.5  C 3.1399999999999997 14.5  0.5 11.86  0.5 8.5  C 0.5 5.14  3.1399999999999997 2.5  6.5 2.5  Z " stroke-width="1" stroke="#aaaaaa" fill="none" />
  <path d="M 6.5 11.75  C 4.68 11.75  3.25 10.32  3.25 8.5  C 3.25 6.68  4.68 5.25  6.5 5.25  C 8.32 5.25  9.75 6.68  9.75 8.5  C 9.75 10.32  8.32 11.75  6.5 11.75  " fill-rule="nonzero" fill="#aaaaaa" stroke="none" />
</svg>