<?xml version="1.0" encoding="utf-8"?>
<svg version="1.1" xmlns:xlink="http://www.w3.org/1999/xlink" width="40px" height="40px" xmlns="http://www.w3.org/2000/svg">
  <defs>
    <mask fill="white" id="clip1084">
      <path d="M 20 40  C 9.879646240174154 40  1.7188886581038076 32.814814014896456  0.2395859550480992 23.166300745948547  C 0.23930494187965223 23.164467882884907  0.23902416981847807 23.162634930929556  0.23874363889693484 23.16080189011484  C 0.08148197174749328 22.133225133571386  0 21.077723744751268  0 20  C 0 8.800000000000011  8.799999999999997 0  20 0  C 25.174948453020363 0  29.837522706587578 1.878705397994878  33.356410839076034 5.004804272358996  C 37.45335645675141 8.644436054199417  40 13.974948453020346  40 20  C 40 31.19999999999999  31.19999999999999 40  20 40  Z " fill-rule="evenodd" />
    </mask>
  </defs>
  <g transform="matrix(1 0 0 1 -50 -100 )">
    <path d="M 20 40  C 9.879646240174154 40  1.7188886581038076 32.814814014896456  0.2395859550480992 23.166300745948547  C 0.23930494187965223 23.164467882884907  0.23902416981847807 23.162634930929556  0.23874363889693484 23.16080189011484  C 0.08148197174749328 22.133225133571386  0 21.077723744751268  0 20  C 0 8.800000000000011  8.799999999999997 0  20 0  C 25.174948453020363 0  29.837522706587578 1.878705397994878  33.356410839076034 5.004804272358996  C 37.45335645675141 8.644436054199417  40 13.974948453020346  40 20  C 40 31.19999999999999  31.19999999999999 40  20 40  Z " fill-rule="nonzero" fill="#f2f2f2" stroke="none" fill-opacity="0" transform="matrix(1 0 0 1 50 100 )" />
    <path d="M 20 40  C 9.879646240174154 40  1.7188886581038076 32.814814014896456  0.2395859550480992 23.166300745948547  C 0.23930494187965223 23.164467882884907  0.23902416981847807 23.162634930929556  0.23874363889693484 23.16080189011484  C 0.08148197174749328 22.133225133571386  0 21.077723744751268  0 20  C 0 8.800000000000011  8.799999999999997 0  20 0  C 25.174948453020363 0  29.837522706587578 1.878705397994878  33.356410839076034 5.004804272358996  C 37.45335645675141 8.644436054199417  40 13.974948453020346  40 20  C 40 31.19999999999999  31.19999999999999 40  20 40  Z " stroke-width="4" stroke="#7f7f7f" fill="none" transform="matrix(1 0 0 1 50 100 )" mask="url(#clip1084)" />
  </g>
</svg>