<?xml version="1.0" encoding="utf-8"?>
<svg version="1.1" xmlns:xlink="http://www.w3.org/1999/xlink" width="16px" height="16px" xmlns="http://www.w3.org/2000/svg">
  <g transform="matrix(1 0 0 1 -763 -13 )">
    <path d="M 13.1875 8.47916666666666  C 13.3125 8.35416666666666  13.375 8.19791666666666  13.375 8.01041666666666  C 13.375 7.82291666666667  13.3125 7.66666666666667  13.1875 7.54166666666667  L 12.2395833333333 6.59375  C 12.1145833333333 6.46875  11.9583333333333 6.40625  11.7708333333333 6.40625  C 11.5833333333333 6.40625  11.4270833333333 6.46875  11.3020833333333 6.59375  L 9.33333333333326 8.5625  L 9.33333333333326 3.33333333333333  C 9.33333333333326 3.1527777777778  9.26736111111109 2.9965277777778  9.13541666666674 2.86458333333333  C 9.00347222222217 2.73263888888893  8.84722222222217 2.66666666666667  8.66666666666674 2.66666666666667  L 7.33333333333326 2.66666666666667  C 7.15277777777783 2.66666666666667  6.99652777777783 2.73263888888893  6.86458333333326 2.86458333333333  C 6.73263888888891 2.9965277777778  6.66666666666674 3.1527777777778  6.66666666666674 3.33333333333333  L 6.66666666666674 8.5625  L 4.69791666666674 6.59375  C 4.56597222222217 6.46180555555553  4.40972222222217 6.39583333333333  4.22916666666674 6.39583333333333  C 4.04861111111109 6.39583333333333  3.89236111111109 6.46180555555553  3.76041666666674 6.59375  L 2.8125 7.54166666666667  C 2.6875 7.66666666666667  2.625 7.82291666666667  2.625 8.01041666666666  C 2.625 8.19791666666666  2.6875 8.35416666666666  2.8125 8.47916666666666  L 6.58333333333326 12.25  L 7.53125 13.1979166666667  C 7.65625 13.3229166666667  7.8125 13.3854166666667  8 13.3854166666667  C 8.1875 13.3854166666667  8.34375 13.3229166666667  8.46875 13.1979166666667  L 9.41666666666674 12.25  L 13.1875 8.47916666666666  Z M 14.9270833333333 3.984375  C 15.6423611111111 5.21006944444447  16 6.54861111111107  16 8  C 16 9.45138888888893  15.6423611111111 10.7899305555555  14.9270833333333 12.015625  C 14.2118055555554 13.2413194444445  13.2413194444446 14.2118055555555  12.015625 14.9270833333333  C 10.7899305555554 15.6423611111111  9.45138888888891 16  8 16  C 6.54861111111109 16  5.21006944444457 15.6423611111111  3.984375 14.9270833333333  C 2.75868055555543 14.2118055555555  1.78819444444457 13.2413194444445  1.07291666666674 12.015625  C 0.357638888888914 10.7899305555555  0 9.45138888888893  0 8  C 0 6.54861111111107  0.357638888888914 5.21006944444447  1.07291666666674 3.984375  C 1.78819444444457 2.75868055555554  2.75868055555543 1.78819444444446  3.984375 1.07291666666667  C 5.21006944444457 0.35763888888893  6.54861111111109 0  8 0  C 9.45138888888891 0  10.7899305555554 0.35763888888893  12.015625 1.07291666666667  C 13.2413194444446 1.78819444444446  14.2118055555554 2.75868055555554  14.9270833333333 3.984375  Z " fill-rule="nonzero" fill="#0091ff" stroke="none" transform="matrix(1 0 0 1 763 13 )" />
  </g>
</svg>