<?xml version="1.0" encoding="utf-8"?>
<svg version="1.1" xmlns:xlink="http://www.w3.org/1999/xlink" width="16px" height="16px" xmlns="http://www.w3.org/2000/svg">
  <g transform="matrix(1 0 0 1 -813 -13 )">
    <path d="M 13.1875 8.45833333333334  C 13.3125 8.33333333333334  13.375 8.17708333333334  13.375 7.98958333333333  C 13.375 7.80208333333333  13.3125 7.64583333333333  13.1875 7.52083333333333  L 9.41666666666674 3.75  L 8.46875 2.80208333333333  C 8.34375 2.67708333333333  8.1875 2.61458333333333  8 2.61458333333333  C 7.8125 2.61458333333333  7.65625 2.67708333333333  7.53125 2.80208333333333  L 6.58333333333326 3.75  L 2.8125 7.52083333333333  C 2.6875 7.64583333333333  2.625 7.80208333333333  2.625 7.98958333333333  C 2.625 8.17708333333334  2.6875 8.33333333333334  2.8125 8.45833333333334  L 3.76041666666674 9.40625  C 3.88541666666674 9.53125  4.04166666666674 9.59375  4.22916666666674 9.59375  C 4.41666666666674 9.59375  4.57291666666674 9.53125  4.69791666666674 9.40625  L 6.66666666666674 7.4375  L 6.66666666666674 12.6666666666667  C 6.66666666666674 12.8472222222222  6.73263888888891 13.0034722222222  6.86458333333326 13.1354166666667  C 6.99652777777783 13.2673611111111  7.15277777777783 13.3333333333333  7.33333333333326 13.3333333333333  L 8.66666666666674 13.3333333333333  C 8.84722222222217 13.3333333333333  9.00347222222217 13.2673611111111  9.13541666666674 13.1354166666667  C 9.26736111111109 13.0034722222222  9.33333333333326 12.8472222222222  9.33333333333326 12.6666666666667  L 9.33333333333326 7.4375  L 11.3020833333333 9.40625  C 11.4340277777778 9.53819444444446  11.5902777777778 9.60416666666666  11.7708333333333 9.60416666666666  C 11.9513888888889 9.60416666666666  12.1076388888889 9.53819444444446  12.2395833333333 9.40625  L 13.1875 8.45833333333334  Z M 14.9270833333333 3.984375  C 15.6423611111111 5.21006944444447  16 6.54861111111107  16 8  C 16 9.45138888888893  15.6423611111111 10.7899305555555  14.9270833333333 12.015625  C 14.2118055555554 13.2413194444445  13.2413194444446 14.2118055555555  12.015625 14.9270833333333  C 10.7899305555554 15.6423611111111  9.45138888888891 16  8 16  C 6.54861111111109 16  5.21006944444457 15.6423611111111  3.984375 14.9270833333333  C 2.75868055555543 14.2118055555555  1.78819444444457 13.2413194444445  1.07291666666674 12.015625  C 0.357638888888914 10.7899305555555  0 9.45138888888893  0 8  C 0 6.54861111111107  0.357638888888914 5.21006944444447  1.07291666666674 3.984375  C 1.78819444444457 2.75868055555554  2.75868055555543 1.78819444444446  3.984375 1.07291666666667  C 5.21006944444457 0.35763888888893  6.54861111111109 0  8 0  C 9.45138888888891 0  10.7899305555554 0.35763888888893  12.015625 1.07291666666667  C 13.2413194444446 1.78819444444446  14.2118055555554 2.75868055555554  14.9270833333333 3.984375  Z " fill-rule="nonzero" fill="#6b6b6b" stroke="none" transform="matrix(1 0 0 1 813 13 )" />
  </g>
</svg>