<?xml version="1.0" encoding="utf-8"?>
<svg version="1.1" xmlns:xlink="http://www.w3.org/1999/xlink" width="30px" height="30px" xmlns="http://www.w3.org/2000/svg">
  <g transform="matrix(1 0 0 1 -185 -70 )">
    <path d="M 7.470703125 2.01171875  C 9.768880208333371 0.6705729166666572  12.278645833333371 0  15 0  C 17.72135416666663 0  20.23111979166663 0.6705729166666572  22.529296875 2.01171875  C 24.82747395833337 3.352864583333343  26.64713541666663 5.172526041666657  27.98828125 7.470703125  C 29.32942708333337 9.768880208333343  30 12.278645833333343  30 15  C 30 17.721354166666657  29.32942708333337 20.231119791666686  27.98828125 22.529296875  C 26.64713541666663 24.827473958333314  24.82747395833337 26.647135416666686  22.529296875 27.98828125  C 20.23111979166663 29.329427083333343  17.72135416666663 30  15 30  C 12.278645833333371 30  9.768880208333371 29.329427083333343  7.470703125 27.98828125  C 5.172526041666629 26.647135416666686  3.3528645833333712 24.827473958333314  2.01171875 22.529296875  C 0.6705729166666288 20.231119791666686  0 17.721354166666657  0 15  C 0 12.278645833333343  0.6705729166666288 9.768880208333343  2.01171875 7.470703125  C 3.3528645833333712 5.172526041666657  5.172526041666629 3.352864583333343  7.470703125 2.01171875  Z M 17.32421875 24.814453125  C 17.44140625 24.690755208333314  17.5 24.537760416666686  17.5 24.35546875  L 17.5 20.64453125  C 17.5 20.462239583333314  17.44140625 20.309244791666686  17.32421875 20.185546875  C 17.20703125 20.061848958333314  17.06380208333337 20  16.89453125 20  L 13.14453125 20  C 12.975260416666629 20  12.825520833333371 20.065104166666657  12.6953125 20.1953125  C 12.565104166666629 20.325520833333314  12.5 20.475260416666657  12.5 20.64453125  L 12.5 24.35546875  C 12.5 24.524739583333343  12.565104166666629 24.674479166666686  12.6953125 24.8046875  C 12.825520833333371 24.934895833333343  12.975260416666629 25  13.14453125 25  L 16.89453125 25  C 17.06380208333337 25  17.20703125 24.938151041666686  17.32421875 24.814453125  Z M 17.255859375 17.978515625  C 17.37955729166663 17.880859375  17.44791666666663 17.766927083333314  17.4609375 17.63671875  L 17.8125 5.5078125  C 17.8125 5.3515625  17.74739583333337 5.234375  17.6171875 5.15625  C 17.48697916666663 5.052083333333343  17.33072916666663 5  17.1484375 5  L 12.8515625 5  C 12.669270833333371 5  12.513020833333371 5.052083333333343  12.3828125 5.15625  C 12.252604166666629 5.234375  12.1875 5.3515625  12.1875 5.5078125  L 12.51953125 17.63671875  C 12.51953125 17.766927083333314  12.584635416666629 17.880859375  12.71484375 17.978515625  C 12.845052083333371 18.076171875  13.001302083333371 18.125  13.18359375 18.125  L 16.796875 18.125  C 16.97916666666663 18.125  17.13216145833337 18.076171875  17.255859375 17.978515625  Z " fill-rule="nonzero" fill="#6b6b6b" stroke="none" transform="matrix(1 0 0 1 185 70 )" />
  </g>
</svg>