<?xml version="1.0" encoding="utf-8"?>
<svg version="1.1" xmlns:xlink="http://www.w3.org/1999/xlink" width="24px" height="24px" xmlns="http://www.w3.org/2000/svg">
  <g transform="matrix(1 0 0 1 -111 -213 )">
    <path d="M 123 213  C 129.72 213  135 218.28  135 225  C 135 231.72  129.72 237  123 237  C 116.28 237  111 231.72  111 225  C 111 218.28  116.28 213  123 213  Z " fill-rule="nonzero" fill="#ffffff" stroke="none" fill-opacity="0" />
    <path d="M 123 213.5  C 129.44 213.5  134.5 218.56  134.5 225  C 134.5 231.44  129.44 236.5  123 236.5  C 116.56 236.5  111.5 231.44  111.5 225  C 111.5 218.56  116.56 213.5  123 213.5  Z " stroke-width="1" stroke="#d7d7d7" fill="none" />
  </g>
</svg>