<?xml version="1.0" encoding="utf-8"?>
<svg version="1.1" xmlns:xlink="http://www.w3.org/1999/xlink" width="12px" height="12px" viewBox="372 259  12 12" xmlns="http://www.w3.org/2000/svg">
  <path d="M 378 259  C 381.36 259  384 261.64  384 265  C 384 268.36  381.36 271  378 271  C 374.64 271  372 268.36  372 265  C 372 261.64  374.64 259  378 259  Z " fill-rule="nonzero" fill="#ffffff" stroke="none" fill-opacity="0" />
  <path d="M 378 259.5  C 381.08 259.5  383.5 261.92  383.5 265  C 383.5 268.08  381.08 270.5  378 270.5  C 374.92 270.5  372.5 268.08  372.5 265  C 372.5 261.92  374.92 259.5  378 259.5  Z " stroke-width="1" stroke="#aaaaaa" fill="none" />
  <path d="M 378 268  C 376.32 268  375 266.68  375 265  C 375 263.32  376.32 262  378 262  C 379.68 262  381 263.32  381 265  C 381 266.68  379.68 268  378 268  " fill-rule="nonzero" fill="#aaaaaa" stroke="none" />
</svg>