<?xml version="1.0" encoding="utf-8"?>
<svg version="1.1" xmlns:xlink="http://www.w3.org/1999/xlink" width="72px" height="26px" xmlns="http://www.w3.org/2000/svg">
  <defs>
    <mask fill="white" id="clip75">
      <path d="M 72 22.285714285714278  L 72 3.714285714285723  C 72 1.6342857142856815  70.01999999999998 0  67.5 0  L 0 0  L 0 26  L 67.5 26  C 70.01999999999998 26  72 24.36571428571432  72 22.285714285714278  Z " fill-rule="evenodd" />
    </mask>
  </defs>
  <g transform="matrix(1 0 0 1 -274 -332 )">
    <path d="M 72 22.285714285714278  L 72 3.714285714285723  C 72 1.6342857142856815  70.01999999999998 0  67.5 0  L 0 0  L 0 26  L 67.5 26  C 70.01999999999998 26  72 24.36571428571432  72 22.285714285714278  Z " fill-rule="nonzero" fill="#ffffff" stroke="none" fill-opacity="0" transform="matrix(1 0 0 1 274 332 )" />
    <path d="M 72 22.285714285714278  L 72 3.714285714285723  C 72 1.6342857142856815  70.01999999999998 0  67.5 0  L 0 0  L 0 26  L 67.5 26  C 70.01999999999998 26  72 24.36571428571432  72 22.285714285714278  Z " stroke-width="2" stroke="#d9d9d9" fill="none" transform="matrix(1 0 0 1 274 332 )" mask="url(#clip75)" />
  </g>
</svg>