<?xml version="1.0" encoding="utf-8"?>
<svg version="1.1" xmlns:xlink="http://www.w3.org/1999/xlink" width="12px" height="12px" viewBox="441 259  12 12" xmlns="http://www.w3.org/2000/svg">
  <path d="M 447 259  C 450.36 259  453 261.64  453 265  C 453 268.36  450.36 271  447 271  C 443.64 271  441 268.36  441 265  C 441 261.64  443.64 259  447 259  Z " fill-rule="nonzero" fill="#ffffff" stroke="none" fill-opacity="0" />
  <path d="M 447 259.5  C 450.08 259.5  452.5 261.92  452.5 265  C 452.5 268.08  450.08 270.5  447 270.5  C 443.92 270.5  441.5 268.08  441.5 265  C 441.5 261.92  443.92 259.5  447 259.5  Z " stroke-width="1" stroke="#aaaaaa" fill="none" />
  <path d="M 447 268  C 445.32 268  444 266.68  444 265  C 444 263.32  445.32 262  447 262  C 448.68 262  450 263.32  450 265  C 450 266.68  448.68 268  447 268  " fill-rule="nonzero" fill="#aaaaaa" stroke="none" />
</svg>