<?xml version="1.0" encoding="utf-8"?>
<svg version="1.1" xmlns:xlink="http://www.w3.org/1999/xlink" width="155px" height="75px" xmlns="http://www.w3.org/2000/svg">
  <defs>
    <mask fill="white" id="clip94">
      <path d="M 0 63.410714285714334  L 0 3.5892857142856656  C 0 1.5792857142857315  2.8535294117647254 0  6.485294117647072 0  L 140.51470588235293 0  C 144.14647058823527 0  147 1.5792857142857315  147 3.5892857142856656  L 147 63.410714285714334  C 147 65.42071428571427  144.14647058823527 67  140.51470588235293 67  L 6.485294117647072 67  C 2.8535294117647254 67  0 65.42071428571427  0 63.410714285714334  Z " fill-rule="evenodd" />
    </mask>
    <filter x="466px" y="378px" width="155px" height="75px" filterUnits="userSpaceOnUse" id="filter95">
      <feOffset dx="0" dy="0" in="SourceAlpha" result="shadowOffsetInner" />
      <feGaussianBlur stdDeviation="2" in="shadowOffsetInner" result="shadowGaussian" />
      <feComposite in2="shadowGaussian" operator="atop" in="SourceAlpha" result="shadowComposite" />
      <feColorMatrix type="matrix" values="0 0 0 0 0  0 0 0 0 0  0 0 0 0 0  0 0 0 0.14901960784313725 0  " in="shadowComposite" />
    </filter>
    <g id="widget96">
      <path d="M 0 63.410714285714334  L 0 3.5892857142856656  C 0 1.5792857142857315  2.8535294117647254 0  6.485294117647072 0  L 140.51470588235293 0  C 144.14647058823527 0  147 1.5792857142857315  147 3.5892857142856656  L 147 63.410714285714334  C 147 65.42071428571427  144.14647058823527 67  140.51470588235293 67  L 6.485294117647072 67  C 2.8535294117647254 67  0 65.42071428571427  0 63.410714285714334  Z " fill-rule="nonzero" fill="#ffffff" stroke="none" fill-opacity="0" transform="matrix(1 0 0 1 470 382 )" />
      <path d="M 0 63.410714285714334  L 0 3.5892857142856656  C 0 1.5792857142857315  2.8535294117647254 0  6.485294117647072 0  L 140.51470588235293 0  C 144.14647058823527 0  147 1.5792857142857315  147 3.5892857142856656  L 147 63.410714285714334  C 147 65.42071428571427  144.14647058823527 67  140.51470588235293 67  L 6.485294117647072 67  C 2.8535294117647254 67  0 65.42071428571427  0 63.410714285714334  Z " stroke-width="2" stroke="#ebebeb" fill="none" transform="matrix(1 0 0 1 470 382 )" mask="url(#clip94)" />
    </g>
  </defs>
  <g transform="matrix(1 0 0 1 -466 -378 )">
    <use xlink:href="#widget96" filter="url(#filter95)" />
    <use xlink:href="#widget96" />
  </g>
</svg>