<?xml version="1.0" encoding="utf-8"?>
<svg version="1.1" xmlns:xlink="http://www.w3.org/1999/xlink" width="18px" height="18px" xmlns="http://www.w3.org/2000/svg">
  <g transform="matrix(1 0 0 1 -202 -93 )">
    <path d="M 211 93  C 216.04 93  220 96.96  220 102  C 220 107.04  216.04 111  211 111  C 205.96 111  202 107.04  202 102  C 202 96.96  205.96 93  211 93  Z " fill-rule="nonzero" fill="#f2f2f2" stroke="none" />
    <path d="M 211 93.5  C 215.76 93.5  219.5 97.24  219.5 102  C 219.5 106.76  215.76 110.5  211 110.5  C 206.24 110.5  202.5 106.76  202.5 102  C 202.5 97.24  206.24 93.5  211 93.5  Z " stroke-width="1" stroke="#d7d7d7" fill="none" />
  </g>
</svg>