<?xml version="1.0" encoding="utf-8"?>
<svg version="1.1" xmlns:xlink="http://www.w3.org/1999/xlink" width="64px" height="64px" xmlns="http://www.w3.org/2000/svg">
  <g transform="matrix(1 0 0 1 -112 -90 )">
    <path d="M 112 90  L 176 90  L 176 154  L 112 154  L 112 90  " fill-rule="nonzero" fill="#cccccc" stroke="none" />
    <path d="M 116 94  L 172 94  L 172 150  L 116 150  L 116 94  " fill-rule="nonzero" fill="#ffffff" stroke="none" />
    <path d="M 150.08 109.2  C 147.392 109.2  145.28 107.088  145.28 104.4  C 145.28 101.712  147.392 99.6  150.08 99.6  C 152.768 99.6  154.88 101.712  154.88 104.4  C 154.88 107.088  152.768 109.2  150.08 109.2  " fill-rule="nonzero" fill="#cccccc" stroke="none" />
    <path d="M 118 149  L 118 119.85  L 131.25 106.6  L 149.8 117.2  L 160.4 114.55  L 171 117.2  L 171 149  L 118 149  " fill-rule="nonzero" fill="#169bd5" stroke="none" />
  </g>
</svg>