<?xml version="1.0" encoding="utf-8"?>
<svg version="1.1" xmlns:xlink="http://www.w3.org/1999/xlink" width="52px" height="52px" xmlns="http://www.w3.org/2000/svg">
  <g transform="matrix(1 0 0 1 -204 -464 )">
    <path d="M 230 467  C 242.88 467  253 477.12  253 490  C 253 502.88  242.88 513  230 513  C 217.12 513  207 502.88  207 490  C 207 477.12  217.12 467  230 467  Z " fill-rule="nonzero" fill="#ffffff" stroke="none" fill-opacity="0" />
    <path d="M 230 466  C 243.44 466  254 476.56  254 490  C 254 503.44  243.44 514  230 514  C 216.56 514  206 503.44  206 490  C 206 476.56  216.56 466  230 466  Z " stroke-width="4" stroke="#434343" fill="none" />
  </g>
</svg>