<?xml version="1.0" encoding="utf-8"?>
<svg version="1.1" xmlns:xlink="http://www.w3.org/1999/xlink" width="155px" height="75px" xmlns="http://www.w3.org/2000/svg">
  <defs>
    <mask fill="white" id="clip22">
      <path d="M 0 63.4107142857143  L 0 3.58928571428567  C 0 1.57928571428573  2.85352941176473 0  6.48529411764707 0  L 140.514705882353 0  C 144.146470588235 0  147 1.57928571428573  147 3.58928571428567  L 147 63.4107142857143  C 147 65.4207142857143  144.146470588235 67  140.514705882353 67  L 6.48529411764707 67  C 2.85352941176473 67  0 65.4207142857143  0 63.4107142857143  Z " fill-rule="evenodd" />
    </mask>
    <filter x="466px" y="378px" width="155px" height="75px" filterUnits="userSpaceOnUse" id="filter23">
      <feOffset dx="0" dy="0" in="SourceAlpha" result="shadowOffsetInner" />
      <feGaussianBlur stdDeviation="2" in="shadowOffsetInner" result="shadowGaussian" />
      <feComposite in2="shadowGaussian" operator="atop" in="SourceAlpha" result="shadowComposite" />
      <feColorMatrix type="matrix" values="0 0 0 0 0  0 0 0 0 0  0 0 0 0 0  0 0 0 0.149019607843137 0  " in="shadowComposite" />
    </filter>
    <g id="widget24">
      <path d="M 0 63.4107142857143  L 0 3.58928571428567  C 0 1.57928571428573  2.85352941176473 0  6.48529411764707 0  L 140.514705882353 0  C 144.146470588235 0  147 1.57928571428573  147 3.58928571428567  L 147 63.4107142857143  C 147 65.4207142857143  144.146470588235 67  140.514705882353 67  L 6.48529411764707 67  C 2.85352941176473 67  0 65.4207142857143  0 63.4107142857143  Z " fill-rule="nonzero" fill="#ffffff" stroke="none" fill-opacity="0" transform="matrix(1 0 0 1 470 382 )" />
      <path d="M 0 63.4107142857143  L 0 3.58928571428567  C 0 1.57928571428573  2.85352941176473 0  6.48529411764707 0  L 140.514705882353 0  C 144.146470588235 0  147 1.57928571428573  147 3.58928571428567  L 147 63.4107142857143  C 147 65.4207142857143  144.146470588235 67  140.514705882353 67  L 6.48529411764707 67  C 2.85352941176473 67  0 65.4207142857143  0 63.4107142857143  Z " stroke-width="2" stroke="#ebebeb" fill="none" transform="matrix(1 0 0 1 470 382 )" mask="url(#clip22)" />
    </g>
  </defs>
  <g transform="matrix(1 0 0 1 -466 -378 )">
    <use xlink:href="#widget24" filter="url(#filter23)" />
    <use xlink:href="#widget24" />
  </g>
</svg>