<?xml version="1.0" encoding="utf-8"?>
<svg version="1.1" xmlns:xlink="http://www.w3.org/1999/xlink" width="40px" height="20px" xmlns="http://www.w3.org/2000/svg">
  <g transform="matrix(1 0 0 1 -960 -11 )">
    <path d="M 960 11  L 1000 11  L 1000 31  L 960 31  L 960 11  " fill-rule="nonzero" fill="#cccccc" stroke="none" />
    <path d="M 961 12  L 999 12  L 999 30  L 961 30  L 961 12  " fill-rule="nonzero" fill="#ffffff" stroke="none" />
    <path d="M 982.3 17  C 981.4599999999999 17  980.8 16.34  980.8 15.5  C 980.8 14.66  981.4599999999999 14  982.3 14  C 983.14 14  983.8 14.66  983.8 15.5  C 983.8 16.34  983.14 17  982.3 17  " fill-rule="nonzero" fill="#cccccc" stroke="none" />
    <path d="M 962 30  L 962 20.65  L 971.25 16.4  L 984.2 24.9  L 991.6 18.95  L 999 24.9  L 999 30  L 962 30  " fill-rule="nonzero" fill="#169bd5" stroke="none" />
  </g>
</svg>