<?xml version="1.0" encoding="utf-8"?>
<svg version="1.1" xmlns:xlink="http://www.w3.org/1999/xlink" width="45px" height="45px" xmlns="http://www.w3.org/2000/svg">
  <g transform="matrix(1 0 0 1 -8 0 )">
    <path d="M 8 0  L 53 0  L 53 45  L 8 45  L 8 0  " fill-rule="nonzero" fill="#cccccc" stroke="none" />
    <path d="M 11 3  L 50 3  L 50 42  L 11 42  L 11 3  " fill-rule="nonzero" fill="#ffffff" stroke="none" />
    <path d="M 34.775 13.5  C 32.885 13.5  31.4 12.015  31.4 10.125  C 31.4 8.235  32.885 6.75  34.775 6.75  C 36.665 6.75  38.15 8.235  38.15 10.125  C 38.15 12.015  36.665 13.5  34.775 13.5  " fill-rule="nonzero" fill="#cccccc" stroke="none" />
    <path d="M 12 41  L 12 20.65  L 21.25 11.4  L 34.2 18.8  L 41.6 16.95  L 49 18.8  L 49 41  L 12 41  " fill-rule="nonzero" fill="#169bd5" stroke="none" />
  </g>
</svg>