<?xml version="1.0" encoding="utf-8"?>
<svg version="1.1" xmlns:xlink="http://www.w3.org/1999/xlink" width="16px" height="16px" xmlns="http://www.w3.org/2000/svg">
  <defs>
    <mask fill="white" id="clip44">
      <path d="M 1.333214285714286 4.666607142857143  C 1.3333928571428573 5.033392857142857  1.0333928571428577 5.333392857142856  0.6666071428571427 5.333392857142857  C 0.29999999999999993 5.333392857142857  0 5.033392857142857  0 4.666785714285715  L 0 1.6667857142857148  C 0 0.7333928571428571  0.733392857142857 0  1.666607142857143 0  L 4.666607142857143 0  C 5.033214285714285 0  5.333214285714286 0.29999999999999993  5.333214285714286 0.6666071428571428  C 5.333214285714286 1.0332142857142856  5.033214285714285 1.3332142857142857  4.666607142857143 1.3332142857142857  L 1.6666071428571434 1.3332142857142857  C 1.5000000000000002 1.3332142857142857  1.333214285714286 1.5  1.333214285714286 1.6666071428571425  L 1.333214285714286 4.666607142857143  Z M 16 4.666785714285715  C 16 5.033392857142857  15.700000000000001 5.333392857142857  15.333392857142856 5.333392857142857  C 14.966785714285715 5.333392857142857  14.666785714285712 5.033392857142857  14.666785714285712 4.666785714285715  L 14.666785714285712 1.6667857142857148  C 14.666785714285712 1.5001785714285718  14.499999999999998 1.3333928571428575  14.333392857142856 1.3333928571428575  L 11.333392857142856 1.3333928571428575  C 10.966785714285715 1.3333928571428575  10.666785714285714 1.0333928571428574  10.666785714285714 0.6667857142857146  C 10.666785714285714 0.30017857142857174  10.966785714285713 0.0001785714285717737  11.333392857142856 0.0001785714285717737  L 14.333392857142856 0.0001785714285717737  C 15.266607142857142 0.0001785714285717737  16 0.7335714285714288  16 1.6667857142857148  L 16 4.666785714285715  Z M 16 14.333392857142856  C 16 15.266607142857142  15.266607142857142 16  14.333392857142856 16  L 11.333392857142856 16  C 10.966785714285715 16  10.666785714285714 15.700000000000001  10.666785714285714 15.333392857142856  C 10.666785714285714 14.966785714285715  10.966785714285713 14.666785714285712  11.333392857142856 14.666785714285712  L 14.333392857142856 14.666785714285712  C 14.5 14.666785714285712  14.666785714285712 14.499999999999998  14.666785714285712 14.333392857142856  L 14.666785714285712 11.333392857142856  C 14.666785714285712 10.966785714285715  14.966785714285713 10.666785714285712  15.333392857142856 10.666785714285712  C 15.7 10.666785714285712  16 10.966785714285711  16 11.333392857142856  L 16 14.333392857142856  Z M 5.333214285714284 15.333392857142856  C 5.333392857142856 15.7  5.0333928571428554 16  4.666607142857143 16  L 1.6666071428571434 16  C 0.733392857142857 16  0 15.266607142857142  0 14.333392857142856  L 0 11.333392857142856  C 0 10.966785714285715  0.29999999999999993 10.666785714285712  0.6666071428571427 10.666785714285712  C 1.0332142857142856 10.666785714285712  1.3332142857142855 10.966785714285711  1.3332142857142855 11.333392857142856  L 1.3332142857142855 14.333392857142856  C 1.3332142857142855 14.5  1.4999999999999998 14.666785714285712  1.6666071428571423 14.666785714285712  L 4.666607142857142 14.666785714285712  C 5.033214285714285 14.666785714285712  5.333214285714284 14.966785714285711  5.333214285714284 15.333392857142856  Z M 15.999821428571428 8.166607142857144  C 16 8.533392857142857  15.700000000000001 8.833392857142858  15.333392857142854 8.833392857142856  L 0.6666071428571427 8.833392857142856  C 0.29999999999999993 8.833392857142856  0 8.533392857142857  0 8.166785714285712  C 0 7.8  0.29999999999999993 7.5  0.6666071428571427 7.5  L 15.333214285714286 7.5  C 15.699821428571427 7.5  15.999821428571428 7.8  15.999821428571428 8.166607142857144  Z " fill-rule="evenodd" />
    </mask>
  </defs>
  <g transform="matrix(1 0 0 1 -294 -12 )">
    <path d="M 1.333214285714286 4.666607142857143  C 1.3333928571428573 5.033392857142857  1.0333928571428577 5.333392857142856  0.6666071428571427 5.333392857142857  C 0.29999999999999993 5.333392857142857  0 5.033392857142857  0 4.666785714285715  L 0 1.6667857142857148  C 0 0.7333928571428571  0.733392857142857 0  1.666607142857143 0  L 4.666607142857143 0  C 5.033214285714285 0  5.333214285714286 0.29999999999999993  5.333214285714286 0.6666071428571428  C 5.333214285714286 1.0332142857142856  5.033214285714285 1.3332142857142857  4.666607142857143 1.3332142857142857  L 1.6666071428571434 1.3332142857142857  C 1.5000000000000002 1.3332142857142857  1.333214285714286 1.5  1.333214285714286 1.6666071428571425  L 1.333214285714286 4.666607142857143  Z M 16 4.666785714285715  C 16 5.033392857142857  15.700000000000001 5.333392857142857  15.333392857142856 5.333392857142857  C 14.966785714285715 5.333392857142857  14.666785714285712 5.033392857142857  14.666785714285712 4.666785714285715  L 14.666785714285712 1.6667857142857148  C 14.666785714285712 1.5001785714285718  14.499999999999998 1.3333928571428575  14.333392857142856 1.3333928571428575  L 11.333392857142856 1.3333928571428575  C 10.966785714285715 1.3333928571428575  10.666785714285714 1.0333928571428574  10.666785714285714 0.6667857142857146  C 10.666785714285714 0.30017857142857174  10.966785714285713 0.0001785714285717737  11.333392857142856 0.0001785714285717737  L 14.333392857142856 0.0001785714285717737  C 15.266607142857142 0.0001785714285717737  16 0.7335714285714288  16 1.6667857142857148  L 16 4.666785714285715  Z M 16 14.333392857142856  C 16 15.266607142857142  15.266607142857142 16  14.333392857142856 16  L 11.333392857142856 16  C 10.966785714285715 16  10.666785714285714 15.700000000000001  10.666785714285714 15.333392857142856  C 10.666785714285714 14.966785714285715  10.966785714285713 14.666785714285712  11.333392857142856 14.666785714285712  L 14.333392857142856 14.666785714285712  C 14.5 14.666785714285712  14.666785714285712 14.499999999999998  14.666785714285712 14.333392857142856  L 14.666785714285712 11.333392857142856  C 14.666785714285712 10.966785714285715  14.966785714285713 10.666785714285712  15.333392857142856 10.666785714285712  C 15.7 10.666785714285712  16 10.966785714285711  16 11.333392857142856  L 16 14.333392857142856  Z M 5.333214285714284 15.333392857142856  C 5.333392857142856 15.7  5.0333928571428554 16  4.666607142857143 16  L 1.6666071428571434 16  C 0.733392857142857 16  0 15.266607142857142  0 14.333392857142856  L 0 11.333392857142856  C 0 10.966785714285715  0.29999999999999993 10.666785714285712  0.6666071428571427 10.666785714285712  C 1.0332142857142856 10.666785714285712  1.3332142857142855 10.966785714285711  1.3332142857142855 11.333392857142856  L 1.3332142857142855 14.333392857142856  C 1.3332142857142855 14.5  1.4999999999999998 14.666785714285712  1.6666071428571423 14.666785714285712  L 4.666607142857142 14.666785714285712  C 5.033214285714285 14.666785714285712  5.333214285714284 14.966785714285711  5.333214285714284 15.333392857142856  Z M 15.999821428571428 8.166607142857144  C 16 8.533392857142857  15.700000000000001 8.833392857142858  15.333392857142854 8.833392857142856  L 0.6666071428571427 8.833392857142856  C 0.29999999999999993 8.833392857142856  0 8.533392857142857  0 8.166785714285712  C 0 7.8  0.29999999999999993 7.5  0.6666071428571427 7.5  L 15.333214285714286 7.5  C 15.699821428571427 7.5  15.999821428571428 7.8  15.999821428571428 8.166607142857144  Z " fill-rule="nonzero" fill="#ffffff" stroke="none" fill-opacity="0" transform="matrix(1 0 0 1 294 12 )" />
    <path d="M 1.333214285714286 4.666607142857143  C 1.3333928571428573 5.033392857142857  1.0333928571428577 5.333392857142856  0.6666071428571427 5.333392857142857  C 0.29999999999999993 5.333392857142857  0 5.033392857142857  0 4.666785714285715  L 0 1.6667857142857148  C 0 0.7333928571428571  0.733392857142857 0  1.666607142857143 0  L 4.666607142857143 0  C 5.033214285714285 0  5.333214285714286 0.29999999999999993  5.333214285714286 0.6666071428571428  C 5.333214285714286 1.0332142857142856  5.033214285714285 1.3332142857142857  4.666607142857143 1.3332142857142857  L 1.6666071428571434 1.3332142857142857  C 1.5000000000000002 1.3332142857142857  1.333214285714286 1.5  1.333214285714286 1.6666071428571425  L 1.333214285714286 4.666607142857143  Z " stroke-width="2" stroke="#333333" fill="none" transform="matrix(1 0 0 1 294 12 )" mask="url(#clip44)" />
    <path d="M 16 4.666785714285715  C 16 5.033392857142857  15.700000000000001 5.333392857142857  15.333392857142856 5.333392857142857  C 14.966785714285715 5.333392857142857  14.666785714285712 5.033392857142857  14.666785714285712 4.666785714285715  L 14.666785714285712 1.6667857142857148  C 14.666785714285712 1.5001785714285718  14.499999999999998 1.3333928571428575  14.333392857142856 1.3333928571428575  L 11.333392857142856 1.3333928571428575  C 10.966785714285715 1.3333928571428575  10.666785714285714 1.0333928571428574  10.666785714285714 0.6667857142857146  C 10.666785714285714 0.30017857142857174  10.966785714285713 0.0001785714285717737  11.333392857142856 0.0001785714285717737  L 14.333392857142856 0.0001785714285717737  C 15.266607142857142 0.0001785714285717737  16 0.7335714285714288  16 1.6667857142857148  L 16 4.666785714285715  Z " stroke-width="2" stroke="#333333" fill="none" transform="matrix(1 0 0 1 294 12 )" mask="url(#clip44)" />
    <path d="M 16 14.333392857142856  C 16 15.266607142857142  15.266607142857142 16  14.333392857142856 16  L 11.333392857142856 16  C 10.966785714285715 16  10.666785714285714 15.700000000000001  10.666785714285714 15.333392857142856  C 10.666785714285714 14.966785714285715  10.966785714285713 14.666785714285712  11.333392857142856 14.666785714285712  L 14.333392857142856 14.666785714285712  C 14.5 14.666785714285712  14.666785714285712 14.499999999999998  14.666785714285712 14.333392857142856  L 14.666785714285712 11.333392857142856  C 14.666785714285712 10.966785714285715  14.966785714285713 10.666785714285712  15.333392857142856 10.666785714285712  C 15.7 10.666785714285712  16 10.966785714285711  16 11.333392857142856  L 16 14.333392857142856  Z " stroke-width="2" stroke="#333333" fill="none" transform="matrix(1 0 0 1 294 12 )" mask="url(#clip44)" />
    <path d="M 5.333214285714284 15.333392857142856  C 5.333392857142856 15.7  5.0333928571428554 16  4.666607142857143 16  L 1.6666071428571434 16  C 0.733392857142857 16  0 15.266607142857142  0 14.333392857142856  L 0 11.333392857142856  C 0 10.966785714285715  0.29999999999999993 10.666785714285712  0.6666071428571427 10.666785714285712  C 1.0332142857142856 10.666785714285712  1.3332142857142855 10.966785714285711  1.3332142857142855 11.333392857142856  L 1.3332142857142855 14.333392857142856  C 1.3332142857142855 14.5  1.4999999999999998 14.666785714285712  1.6666071428571423 14.666785714285712  L 4.666607142857142 14.666785714285712  C 5.033214285714285 14.666785714285712  5.333214285714284 14.966785714285711  5.333214285714284 15.333392857142856  Z " stroke-width="2" stroke="#333333" fill="none" transform="matrix(1 0 0 1 294 12 )" mask="url(#clip44)" />
    <path d="M 15.999821428571428 8.166607142857144  C 16 8.533392857142857  15.700000000000001 8.833392857142858  15.333392857142854 8.833392857142856  L 0.6666071428571427 8.833392857142856  C 0.29999999999999993 8.833392857142856  0 8.533392857142857  0 8.166785714285712  C 0 7.8  0.29999999999999993 7.5  0.6666071428571427 7.5  L 15.333214285714286 7.5  C 15.699821428571427 7.5  15.999821428571428 7.8  15.999821428571428 8.166607142857144  Z " stroke-width="2" stroke="#333333" fill="none" transform="matrix(1 0 0 1 294 12 )" mask="url(#clip44)" />
  </g>
</svg>