<?xml version="1.0" encoding="utf-8"?>
<svg version="1.1" xmlns:xlink="http://www.w3.org/1999/xlink" width="256px" height="206px" xmlns="http://www.w3.org/2000/svg">
  <defs>
    <filter x="-3px" y="-3px" width="256px" height="206px" filterUnits="userSpaceOnUse" id="filter3116">
      <feOffset dx="0" dy="0" in="SourceAlpha" result="shadowOffsetInner" />
      <feGaussianBlur stdDeviation="1.5" in="shadowOffsetInner" result="shadowGaussian" />
      <feComposite in2="shadowGaussian" operator="atop" in="SourceAlpha" result="shadowComposite" />
      <feColorMatrix type="matrix" values="0 0 0 0 0.498039215686275  0 0 0 0 0.498039215686275  0 0 0 0 0.498039215686275  0 0 0 0.349019607843137 0  " in="shadowComposite" />
    </filter>
    <g id="widget3117">
      <path d="M 0 0  L 250 0  L 250 200  L 0 200  L 0 0  " fill-rule="nonzero" fill="#cccccc" stroke="none" />
      <path d="M 14 14  L 236 14  L 236 186  L 14 186  L 14 14  " fill-rule="nonzero" fill="#ffffff" stroke="none" />
      <path d="M 145 60  C 136.6 60  130 53.4  130 45  C 130 36.6  136.6 30  145 30  C 153.4 30  160 36.6  160 45  C 160 53.4  153.4 60  145 60  " fill-rule="nonzero" fill="#cccccc" stroke="none" />
      <path d="M 19 181  L 19 91.9  L 72 51.4  L 146.2 103.24  L 188.6 75.7  L 231 103.24  L 231 181  L 19 181  " fill-rule="nonzero" fill="#169bd5" stroke="none" />
    </g>
  </defs>
  <g transform="matrix(1 0 0 1 3 3 )">
    <use xlink:href="#widget3117" filter="url(#filter3116)" />
    <use xlink:href="#widget3117" />
  </g>
</svg>