<?xml version="1.0" encoding="utf-8"?>
<svg version="1.1" xmlns:xlink="http://www.w3.org/1999/xlink" width="24px" height="24px" xmlns="http://www.w3.org/2000/svg">
  <g transform="matrix(1 0 0 1 -3 0 )">
    <path d="M 3 0  L 27 0  L 27 24  L 3 24  L 3 0  " fill-rule="nonzero" fill="#cccccc" stroke="none" />
    <path d="M 5 2  L 25 2  L 25 22  L 5 22  L 5 2  " fill-rule="nonzero" fill="#ffffff" stroke="none" />
    <path d="M 17.28 7.2  C 16.272 7.2  15.48 6.408  15.48 5.4  C 15.48 4.392  16.272 3.6  17.28 3.6  C 18.288 3.6  19.08 4.392  19.08 5.4  C 19.08 6.408  18.288 7.2  17.28 7.2  " fill-rule="nonzero" fill="#cccccc" stroke="none" />
    <path d="M 6 22  L 6 11.55  L 10.75 6.8  L 17.4 10.6  L 21.2 9.65  L 25 10.6  L 25 22  L 6 22  " fill-rule="nonzero" fill="#169bd5" stroke="none" />
  </g>
</svg>