<?xml version="1.0" encoding="utf-8"?>
<svg version="1.1" xmlns:xlink="http://www.w3.org/1999/xlink" width="30px" height="30px" xmlns="http://www.w3.org/2000/svg">
  <g>
    <path d="M 0 0  L 30 0  L 30 30  L 0 30  L 0 0  " fill-rule="nonzero" fill="#cccccc" stroke="none" />
    <path d="M 2 2  L 28 2  L 28 28  L 2 28  L 2 2  " fill-rule="nonzero" fill="#ffffff" stroke="none" />
    <path d="M 17.85 9  C 16.59 9  15.6 8.01  15.6 6.75  C 15.6 5.49  16.59 4.5  17.85 4.5  C 19.11 4.5  20.1 5.49  20.1 6.75  C 20.1 8.01  19.11 9  17.85 9  " fill-rule="nonzero" fill="#cccccc" stroke="none" />
    <path d="M 3 27  L 3 13.8  L 9 7.8  L 17.4 12.6  L 22.2 11.4  L 27 12.6  L 27 27  L 3 27  " fill-rule="nonzero" fill="#169bd5" stroke="none" />
  </g>
</svg>