<?xml version="1.0" encoding="utf-8"?>
<svg version="1.1" xmlns:xlink="http://www.w3.org/1999/xlink" width="50px" height="50px" xmlns="http://www.w3.org/2000/svg">
  <g transform="matrix(1 0 0 1 -225 -795 )">
    <path d="M 250 798  C 262.32 798  272 807.68  272 820  C 272 832.32  262.32 842  250 842  C 237.68 842  228 832.32  228 820  C 228 807.68  237.68 798  250 798  Z " fill-rule="nonzero" fill="#ffffff" stroke="none" fill-opacity="0" />
    <path d="M 250 797  C 262.88 797  273 807.12  273 820  C 273 832.88  262.88 843  250 843  C 237.12 843  227 832.88  227 820  C 227 807.12  237.12 797  250 797  Z " stroke-width="4" stroke="#555555" fill="none" />
  </g>
</svg>