<?xml version="1.0" encoding="utf-8"?>
<svg version="1.1" xmlns:xlink="http://www.w3.org/1999/xlink" width="14px" height="23px" xmlns="http://www.w3.org/2000/svg">
  <g transform="matrix(1 0 0 1 -293 -190 )">
    <path d="M 1.7345674986530184 5.40468802734375  L 1.7345674986530184 0.0029296582031250002  L 3.182686369881467 0.0029296582031250002  L 3.182686369881467 5.40468802734375  L 1.7345674986530184 5.40468802734375  Z M 11.365130810883622 5.40468802734375  L 11.365130810883622 0.0029296582031250002  L 12.813249682112069 0.0029296582031250002  L 12.813249682112069 5.40468802734375  L 11.365130810883622 5.40468802734375  Z M 0.35716445851293194 11  L 0.35716445851293194 9.356413154296876  L 13.950247160560346 9.356413154296876  L 13.950247160560346 11  L 0.35716445851293194 11  Z M 0.35716445851293194 16.80579603515625  L 0.35716445851293194 15  L 13.950247160560346 15  L 13.950247160560346 16.80579603515625  L 0.35716445851293194 16.80579603515625  Z M 0.35713617187499774 22.881316699218747  L 0.35716445851293194 21.381479296875  L 9.314569602640082 21.381479296875  L 9.314569602640082 22.881316699218747  L 0.35713617187499774 22.881316699218747  Z " fill-rule="nonzero" fill="#555555" stroke="none" transform="matrix(1 0 0 1 293 190 )" />
  </g>
</svg>