<?xml version="1.0" encoding="utf-8"?>
<svg version="1.1" xmlns:xlink="http://www.w3.org/1999/xlink" width="16px" height="16px" xmlns="http://www.w3.org/2000/svg">
  <g transform="matrix(1 0 0 1 -24 -152 )">
    <path d="M 12 8  L 8 8  L 8 2.8571428571428577  C 8 2.5415515715252615  7.744162714189025 2.285714285714286  7.428571428571429 2.285714285714286  C 7.112980142953832 2.285714285714286  6.857142857142857 2.5415515715252615  6.857142857142857 2.8571428571428577  L 6.857142857142857 8.571428571428571  C 6.857142857142857 8.887019857046168  7.112980142953832 9.142857142857142  7.428571428571429 9.142857142857142  L 12 9.142857142857142  C 12.315591285617597 9.142857142857142  12.571428571428571 8.887019857046168  12.571428571428571 8.571428571428571  C 12.571428571428571 8.255837285810975  12.315591285617597 8  12 8  Z M 16 8  C 16 3.581722001353653  12.418277998646348 0  8 0  C 3.581722001353653 0  0 3.581722001353653  0 8  C 0 12.418277998646348  3.581722001353653 16  8 16  C 12.418277998646348 16  16 12.418277998646348  16 8  Z M 14.857142857142856 8  C 14.857142857142856 11.787095427411154  11.787095427411154 14.857142857142856  8 14.857142857142856  C 4.212904572588843 14.857142857142856  1.1428571428571412 11.787095427411154  1.1428571428571412 7.999999999999998  C 1.1428571428571412 4.212904572588843  4.212904572588843 1.1428571428571412  7.999999999999998 1.1428571428571412  C 11.787095427411154 1.1428571428571412  14.857142857142856 4.212904572588843  14.857142857142856 7.999999999999998  Z " fill-rule="nonzero" fill="#7f7f7f" stroke="none" transform="matrix(1 0 0 1 24 152 )" />
  </g>
</svg>