<?xml version="1.0" encoding="utf-8"?>
<svg version="1.1" xmlns:xlink="http://www.w3.org/1999/xlink" width="30px" height="27px" xmlns="http://www.w3.org/2000/svg">
  <g transform="matrix(1 0 0 1 -205 -192 )">
    <path d="M 29.855072460937503 25.981810122369264  C 29.855072460937503 25.65838511001276  29.60144928385417 25.406832293925387  29.311594205729165 25.406832293925387  L 26 25.406832293925387  L 26 11.930789714205995  C 26.050724641927083 11.643300799984054  25.79710146484375 11.391748016183035  25.507246386718748 11.391748016183035  C 25.217391308593747 11.391748016183035  24.963768131510417 11.643300799984056  25 11.930789714205995  L 25 25.406832293925387  L 20.25362317708333 25.406832293925387  L 20.25362317708333 17.716503999920285  C 20.25362317708333 17.429015085698342  20 17.17746230189732  19.710144921875 17.17746230189732  C 19.42028984375 17.17746230189732  19.166666666666664 17.429015085698342  19.166666666666664 17.716503999920285  L 19.166666666666664 25.406832293925387  L 15 25.406832293925387  L 15 14.2307009634088  C 14.601449283854167 13.943212049186862  14.347826106770832 13.69165926538584  14.057971028645833 13.69165926538584  C 13.768115950520833 13.69165926538584  13.5144927734375 13.943212049186862  14 14.2307009634088  L 14 25.4427684243463  L 8.949275358072917 25.4427684243463  L 8.949275358072917 17.716503999920285  C 8.949275358072917 17.429015085698342  8.695652180989583 17.17746230189732  8.405797102864584 17.17746230189732  C 8.115942024739585 17.17746230189732  7.862318847656249 17.429015085698342  7.862318847656249 17.716503999920285  L 7.862318847656249 25.406832293925387  L 1.2318840494791663 25.406832293925387  L 1.2318840494791663 0.826530612244898  C 1.2318840494791663 0.5031055998883929  0.9782608723958333 0.2874889142219387  0.6884057942708334 0.2874889142219387  C 0.39855071614583326 0.2874889142219387  0.14492753906249994 0.5031055998883929  0.14492753906249994 0.826530612244898  L 0.14492753906249994 26  L 29.31159420572917 26  C 29.60144928385417 26.52085182039222  29.855072460937503 26.269299036591203  29.855072460937503 25.981810122369264  Z M 5.57971015625 12.972937012117349  C 5.6884057942708335 13.0807453388074  5.833333333333333 13.116681469228318  5.9420289713541665 13.116681469228316  C 6.086956510416667 13.116681469228316  6.2318840494791665 13.044809240672832  6.340579720052084 12.937000881696427  L 12.391304361979167 6.432564342713648  C 12.463768131510417 6.360692114158161  12.536231901041667 6.360692114158161  12.57246376953125 6.360692114158161  C 12.6449275390625 6.360692114158161  12.681159407552084 6.360692114158161  12.753623177083334 6.432564342713648  L 17.065217382812502 11.104259101961096  C 17.318840559895836 11.355811885762115  17.644927539062504 11.535492473294003  18.007246386718748 11.535492473294003  C 18.369565234374996 11.535492473294003  18.731884082031247 11.391748016183033  18.985507259114584 11.140195200095661  L 25.398550716145838 4.563886432557396  C 25.615942024739585 4.348269746890942  25.615942024739585 3.988908604113519  25.398550716145838 3.809228048867983  C 25.181159407552084 3.5936113632015294  24.8550724609375 3.5936113632015294  24.63768115234375 3.809228048867983  L 18.224637695312502 10.385536816406251  C 18.15217392578125 10.457409044961736  18.07971015625 10.457409044961736  18.04347825520834 10.457409044961736  C 18.00724638671875 10.457409044961736  17.934782617187505 10.457409044961736  17.86231884765625 10.385536816406251  L 13.550724641927081 5.713842057158801  C 13.297101464843749 5.426353142936862  12.934782617187498 5.2826086858258945  12.57246376953125 5.2826086858258945  C 12.210144921875001 5.2826086858258945  11.84782607421875 5.426353142936865  11.594202897135416 5.713842057158801  L 5.543478255208333 12.218278628427933  C 5.326086946614583 12.43389531409439  5.36231884765625 12.793256456871811  5.57971015625 12.972937012117349  Z " fill-rule="nonzero" fill="#555555" stroke="none" transform="matrix(1 0 0 1 205 192 )" />
  </g>
</svg>