<?xml version="1.0" encoding="utf-8"?>
<svg version="1.1" xmlns:xlink="http://www.w3.org/1999/xlink" width="30px" height="20px" xmlns="http://www.w3.org/2000/svg">
  <g transform="matrix(1 0 0 1 -45 -195 )">
    <path d="M 14.937532552083335 1.98623046875  C 20.42262369791667 1.98623046875  25.143782552083334 5.203580729166665  27.353190104166668 9.846712239583333  L 29.506184895833336 9.846712239583333  C 27.17272135416667 4.0879557291666675  21.53385416666667 0.022070312500000158  14.9375 0.022070312500000158  C 8.342122395833332 0.022070312500000158  2.7032552083333323 4.088118489583334  0.36995442708333315 9.846712239583333  L 2.52294921875 9.846712239583333  C 4.7323567708333325 5.203580729166665  9.453515624999998 1.98623046875  14.9375 1.98623046875  Z M 27.353190104166668 9.846712239583333  C 25.143782552083334 14.490234375000002  20.422623697916666 17.707389322916665  14.937532552083335 17.707389322916665  C 9.453580729166667 17.707389322916665  4.732389322916667 14.490234374999996  2.5230143229166666 9.846712239583331  L 0.3699869791666667 9.846712239583331  C 2.7033203125000003 15.606673177083334  8.3421875 19.672688802083332  14.937532552083335 19.672688802083332  C 21.53382161458333 19.672688802083332  27.172688802083332 15.606673177083334  29.506184895833336 9.846712239583333  L 27.353190104166668 9.846712239583333  Z M 9.697949218749999 9.847363281249997  C 9.697949218749999 12.74150390625  12.043717447916666 15.087402343749996  14.938020833333333 15.087402343749996  C 17.83212890625 15.087402343749996  20.178059895833332 12.741503906249996  20.178059895833332 9.847395833333328  C 20.178059895833332 6.953124999999996  17.832128906249995 4.607161458333328  14.938020833333333 4.607161458333328  C 12.043717447916663 4.607161458333328  9.697916666666666 6.953124999999996  9.697916666666666 9.84739583333333  Z M 18.213769531249998 9.847363281249997  C 18.213769531249998 11.656022135416666  16.746777343749997 13.122981770833329  14.938053385416666 13.122981770833329  C 13.12919921875 13.122981770833329  11.66337890625 11.656022135416661  11.66337890625 9.84739583333333  C 11.66337890625 8.03860677083333  13.12919921875 6.571647135416665  14.938020833333333 6.571647135416665  C 16.746777343749997 6.571647135416665  18.21373697916666 8.038606770833331  18.21373697916666 9.847363281249997  Z " fill-rule="nonzero" fill="#555555" stroke="none" transform="matrix(1 0 0 1 45 195 )" />
  </g>
</svg>