<?xml version="1.0" encoding="utf-8"?>
<svg version="1.1" xmlns:xlink="http://www.w3.org/1999/xlink" width="25px" height="28px" xmlns="http://www.w3.org/2000/svg">
  <g transform="matrix(1 0 0 1 -287 -192 )">
    <path d="M 24.653941718749998 24.24716921875  C 24.656871376953124 26.318230966796875  22.972494951171875 27.999677734375002  20.90436283203125 28  L 4.1014964550781245 28  C 2.033364365234375 27.999677734375002  0.35188830078124944 26.318230966796875  0.35188830078124944 24.250069580078126  L 0.35188830078124944 3.844107138671875  C 0.35188830078124944 1.7759457519531252  2.033364365234375 0.09449898437499993  4.1014964550781245 0.09449898437499993  L 5.50172556640625 0.09449898437499993  L 5.50172556640625 1.59433638671875  L 4.1014964550781245 1.59433638671875  C 2.8594394726562493 1.59433638671875  1.851725703125 2.6049798144531255  2 3.844107138671875  L 2 24.24716921875  C 1.851725703125 25.489196904296875  2.862369130859374 26.496910673828122  4.1014964550781245 26  L 20.904362832031246 26  C 22.14641981445312 26.496910673828122  23.15410428710937 25.48626724609375  23 24.24716921875  L 23 3.8440778417968753  C 23.15410428710937 2.602020859375  22.143490156249996 1.59430708984375  20.904362832031246 1.59430708984375  L 19.504133749999998 1.59430708984375  L 19.504133749999998 0.09449898437499993  L 20.904362832031246 0.09449898437499993  C 22.972494921874997 0.09449898437499993  24.653941689453124 1.7759457519531252  24.653941718749998 3.844107138671875  L 24.653941718749998 24.24716921875  Z " fill-rule="nonzero" fill="#555555" stroke="none" transform="matrix(1 0 0 1 287 192 )" />
  </g>
</svg>