<?xml version="1.0" encoding="utf-8"?>
<svg version="1.1" xmlns:xlink="http://www.w3.org/1999/xlink" width="30px" height="30px" xmlns="http://www.w3.org/2000/svg">
  <g transform="matrix(1 0 0 1 -125 -190 )">
    <path d="M 25.397307685546874 8.622692314453126  L 21.395769228515626 4.617692314453125  L 5.997692314453125 20.018076914062497  L 5.997692314453125 24.01846154296875  L 5.99538462890625 24.01846154296875  L 9.999230771484374 24.01846154296875  L 25.397307685546874 8.622692314453126  Z M 23.85 2.1634615429687494  L 22.32 3.6923076855468753  L 26.323846142578127 7.696153857421875  L 27.853846142578128 6.167307685546875  C 28.956087724434077 5.060274071351615  28.956087724434077 3.2704951571640093  27.853846142578128 2.1634615429687494  C 26.74681252838287 1.0612199611127981  24.95703361419526 1.0612199611127981  23.85 2.1634615429687494  Z M 28.775769228515628 7.092692314453125  L 10.542692314453125 25.326923085937498  L 4.68346154296875 25.326923085937498  L 4.68346154296875 19.471153857421875  L 22.921153857421878 1.23461537109375  C 24.536538486328126 -0.3807692578125  27.161538486328126 -0.3807692578125  28.775769228515628 1.2346153710937502  C 29.553469475683258 2.010301948512723  29.988843861434248 3.0646723594644087  29.985000000000003 4.163076914062501  C 29.985000000000003 5.2730769140625  29.55461537109375 6.313846142578125  28.775769228515628 7.092692314453125  Z M 29.882169148171464 28.91769229980468  C 29.882169148171464 29.279597123155853  29.588827901199764 29.57300039724345  29.2269230859375 29  L 0.6553846289062499 29  C 0.29347981364397785 29.57300039724345  0.00013856667228207792 29.279597123155853  0.00013856667228207792 28.91769229980468  C 0.00013856667228207792 28.555787476453514  0.29347981364397785 28.262384202365915  0.65538462890625 28  L 29.226923085937496 28  C 29.588827901199764 28.262384202365915  29.882169148171464 28.555787476453514  29.882169148171464 28.91769229980468  Z " fill-rule="nonzero" fill="#555555" stroke="none" transform="matrix(1 0 0 1 125 190 )" />
  </g>
</svg>