<?xml version="1.0" encoding="utf-8"?>
<svg version="1.1" xmlns:xlink="http://www.w3.org/1999/xlink" width="16px" height="20px" xmlns="http://www.w3.org/2000/svg">
  <g transform="matrix(1 0 0 1 -24 -110 )">
    <path d="M 8.975238095238096 19.405714285714282  C 8.731428571428571 19.801904761904762  8.365714285714287 19.923809523809524  8 19.923809523809524  C 7.634285714285714 19.923809523809524  7.268571428571428 19.801904761904762  7.146666666666666 19.558095238095238  C 6.902857142857142 19.314285714285713  5.287619047619048 17.577142857142857  3.5504761904761906 15.352380952380951  C 1.2038095238095239 12.243809523809524  0.07619047619047592 9.775238095238093  0.07619047619047592 8.038095238095238  C 0.07619047619047592 3.710476190476191  3.6723809523809527 0.11428571428571456  8 0.11428571428571456  C 12.327619047619047 0.11428571428571456  15.923809523809522 3.710476190476191  15.923809523809522 8.038095238095238  C 15.923809523809522 9.165714285714287  15.558095238095238 10.384761904761907  14.674285714285713 11.878095238095238  C 13.942857142857141 13.371428571428572  12.693333333333332 14.986666666666668  11.2 16.815238095238097  L 8.975238095238096 19.405714285714282  Z M 14.735238095238095 7.916190476190476  C 14.674285714285716 4.3199999999999985  11.718095238095238 1.3638095238095231  8 1.3638095238095231  C 4.281904761904762 1.3638095238095231  1.3257142857142858 4.3199999999999985  1.3257142857142858 8.038095238095238  C 1.3257142857142858 9.53142857142857  2.453333333333334 11.756190476190476  4.556190476190476 14.590476190476188  C 6.171428571428573 16.815238095238097  7.908571428571429 18.674285714285713  8.03047619047619 18.674285714285713  L 10.255238095238095 16.08380952380952  C 11.748571428571429 14.224761904761902  12.845714285714285 12.609523809523811  13.607619047619048 11.268571428571427  C 14.369523809523809 9.927619047619046  14.735238095238095 8.799999999999999  14.735238095238095 7.916190476190476  Z M 11.718095238095238 8.038095238095238  C 11.718095238095238 10.01904761904762  9.98095238095238 11.756190476190476  8 11.756190476190476  C 6.019047619047619 11.756190476190476  4.281904761904762 10.14095238095238  4.281904761904762 8.038095238095238  C 4.281904761904762 6.057142857142858  5.897142857142859 4.320000000000001  8 4.320000000000001  C 9.980952380952383 4.320000000000001  11.718095238095238 5.9352380952380965  11.718095238095238 8.038095238095238  Z M 10.46857142857143 8.038095238095238  C 10.46857142857143 6.697142857142856  9.371428571428572 5.56952380952381  8 5.56952380952381  C 6.628571428571428 5.56952380952381  5.531428571428571 6.697142857142858  5.531428571428571 8.038095238095238  C 5.531428571428571 9.379047619047618  6.6590476190476195 10.506666666666666  8 10.506666666666666  C 9.340952380952379 10.506666666666666  10.46857142857143 9.379047619047618  10.46857142857143 8.038095238095238  Z " fill-rule="nonzero" fill="#7f7f7f" stroke="none" transform="matrix(1 0 0 1 24 110 )" />
  </g>
</svg>