<?xml version="1.0" encoding="utf-8"?>
<svg version="1.1" xmlns:xlink="http://www.w3.org/1999/xlink" width="16px" height="20px" xmlns="http://www.w3.org/2000/svg">
  <g transform="matrix(1 0 0 1 -24 -110 )">
    <path d="M 8.9752380952381 19.4057142857143  C 8.73142857142857 19.8019047619048  8.36571428571429 19.9238095238095  8 19.9238095238095  C 7.63428571428571 19.9238095238095  7.26857142857143 19.8019047619048  7.14666666666667 19.5580952380952  C 6.90285714285714 19.3142857142857  5.28761904761905 17.5771428571429  3.55047619047619 15.352380952381  C 1.20380952380952 12.2438095238095  0.0761904761904759 9.77523809523809  0.0761904761904759 8.03809523809524  C 0.0761904761904759 3.71047619047619  3.67238095238095 0.114285714285715  8 0.114285714285715  C 12.327619047619 0.114285714285715  15.9238095238095 3.71047619047619  15.9238095238095 8.03809523809524  C 15.9238095238095 9.16571428571429  15.5580952380952 10.3847619047619  14.6742857142857 11.8780952380952  C 13.9428571428571 13.3714285714286  12.6933333333333 14.9866666666667  11.2 16.8152380952381  L 8.9752380952381 19.4057142857143  Z M 14.7352380952381 7.91619047619048  C 14.6742857142857 4.32  11.7180952380952 1.36380952380952  8 1.36380952380952  C 4.28190476190476 1.36380952380952  1.32571428571429 4.32  1.32571428571429 8.03809523809524  C 1.32571428571429 9.53142857142857  2.45333333333333 11.7561904761905  4.55619047619048 14.5904761904762  C 6.17142857142857 16.8152380952381  7.90857142857143 18.6742857142857  8.03047619047619 18.6742857142857  L 10.2552380952381 16.0838095238095  C 11.7485714285714 14.2247619047619  12.8457142857143 12.6095238095238  13.607619047619 11.2685714285714  C 14.3695238095238 9.92761904761905  14.7352380952381 8.8  14.7352380952381 7.91619047619048  Z M 11.7180952380952 8.03809523809524  C 11.7180952380952 10.0190476190476  9.98095238095238 11.7561904761905  8 11.7561904761905  C 6.01904761904762 11.7561904761905  4.28190476190476 10.1409523809524  4.28190476190476 8.03809523809524  C 4.28190476190476 6.05714285714286  5.89714285714286 4.32  8 4.32  C 9.98095238095238 4.32  11.7180952380952 5.9352380952381  11.7180952380952 8.03809523809524  Z M 10.4685714285714 8.03809523809524  C 10.4685714285714 6.69714285714286  9.37142857142857 5.56952380952381  8 5.56952380952381  C 6.62857142857143 5.56952380952381  5.53142857142857 6.69714285714286  5.53142857142857 8.03809523809524  C 5.53142857142857 9.37904761904762  6.65904761904762 10.5066666666667  8 10.5066666666667  C 9.34095238095238 10.5066666666667  10.4685714285714 9.37904761904762  10.4685714285714 8.03809523809524  Z " fill-rule="nonzero" fill="#7f7f7f" stroke="none" transform="matrix(1 0 0 1 24 110 )" />
  </g>
</svg>