<?xml version="1.0" encoding="utf-8"?>
<svg version="1.1" xmlns:xlink="http://www.w3.org/1999/xlink" width="14px" height="23px" xmlns="http://www.w3.org/2000/svg">
  <g transform="matrix(1 0 0 1 -293 -190 )">
    <path d="M 1.73456749865302 5.40468802734375  L 1.73456749865302 0.002929658203125  L 3.18268636988147 0.002929658203125  L 3.18268636988147 5.40468802734375  L 1.73456749865302 5.40468802734375  Z M 11.3651308108836 5.40468802734375  L 11.3651308108836 0.002929658203125  L 12.8132496821121 0.002929658203125  L 12.8132496821121 5.40468802734375  L 11.3651308108836 5.40468802734375  Z M 0.357164458512932 11  L 0.357164458512932 9.35641315429688  L 13.9502471605603 9.35641315429688  L 13.9502471605603 11  L 0.357164458512932 11  Z M 0.357164458512932 16.8057960351562  L 0.357164458512932 15  L 13.9502471605603 15  L 13.9502471605603 16.8057960351562  L 0.357164458512932 16.8057960351562  Z M 0.357136171874998 22.8813166992187  L 0.357164458512932 21.381479296875  L 9.31456960264008 21.381479296875  L 9.31456960264008 22.8813166992187  L 0.357136171874998 22.8813166992187  Z " fill-rule="nonzero" fill="#555555" stroke="none" transform="matrix(1 0 0 1 293 190 )" />
  </g>
</svg>