<?xml version="1.0" encoding="utf-8"?>
<svg version="1.1" xmlns:xlink="http://www.w3.org/1999/xlink" width="16px" height="16px" xmlns="http://www.w3.org/2000/svg">
  <g transform="matrix(1 0 0 1 -24 -152 )">
    <path d="M 12 8  L 8 8  L 8 2.85714285714286  C 8 2.54155157152526  7.74416271418902 2.28571428571429  7.42857142857143 2.28571428571429  C 7.11298014295383 2.28571428571429  6.85714285714286 2.54155157152526  6.85714285714286 2.85714285714286  L 6.85714285714286 8.57142857142857  C 6.85714285714286 8.88701985704617  7.11298014295383 9.14285714285714  7.42857142857143 9.14285714285714  L 12 9.14285714285714  C 12.3155912856176 9.14285714285714  12.5714285714286 8.88701985704617  12.5714285714286 8.57142857142857  C 12.5714285714286 8.25583728581097  12.3155912856176 8  12 8  Z M 16 8  C 16 3.58172200135365  12.4182779986463 0  8 0  C 3.58172200135365 0  0 3.58172200135365  0 8  C 0 12.4182779986463  3.58172200135365 16  8 16  C 12.4182779986463 16  16 12.4182779986463  16 8  Z M 14.8571428571429 8  C 14.8571428571429 11.7870954274112  11.7870954274112 14.8571428571429  8 14.8571428571429  C 4.21290457258884 14.8571428571429  1.14285714285714 11.7870954274112  1.14285714285714 8  C 1.14285714285714 4.21290457258884  4.21290457258884 1.14285714285714  8 1.14285714285714  C 11.7870954274112 1.14285714285714  14.8571428571429 4.21290457258884  14.8571428571429 8  Z " fill-rule="nonzero" fill="#7f7f7f" stroke="none" transform="matrix(1 0 0 1 24 152 )" />
  </g>
</svg>