<?xml version="1.0" encoding="utf-8"?>
<svg version="1.1" xmlns:xlink="http://www.w3.org/1999/xlink" width="25px" height="28px" xmlns="http://www.w3.org/2000/svg">
  <g transform="matrix(1 0 0 1 -287 -192 )">
    <path d="M 24.65394171875 24.24716921875  C 24.6568713769531 26.3182309667969  22.9724949511719 27.999677734375  20.9043628320313 28  L 4.10149645507812 28  C 2.03336436523437 27.999677734375  0.351888300781249 26.3182309667969  0.351888300781249 24.2500695800781  L 0.351888300781249 3.84410713867188  C 0.351888300781249 1.77594575195313  2.03336436523437 0.0944989843749999  4.10149645507812 0.0944989843749999  L 5.50172556640625 0.0944989843749999  L 5.50172556640625 1.59433638671875  L 4.10149645507812 1.59433638671875  C 2.85943947265625 1.59433638671875  1.851725703125 2.60497981445313  2 3.84410713867188  L 2 24.24716921875  C 1.851725703125 25.4891969042969  2.86236913085937 26.4969106738281  4.10149645507812 26  L 20.9043628320312 26  C 22.1464198144531 26.4969106738281  23.1541042871094 25.4862672460938  23 24.24716921875  L 23 3.84407784179688  C 23.1541042871094 2.602020859375  22.14349015625 1.59430708984375  20.9043628320312 1.59430708984375  L 19.50413375 1.59430708984375  L 19.50413375 0.0944989843749999  L 20.9043628320312 0.0944989843749999  C 22.972494921875 0.0944989843749999  24.6539416894531 1.77594575195313  24.65394171875 3.84410713867188  L 24.65394171875 24.24716921875  Z " fill-rule="nonzero" fill="#555555" stroke="none" transform="matrix(1 0 0 1 287 192 )" />
  </g>
</svg>