<?xml version="1.0" encoding="utf-8"?>
<svg version="1.1" xmlns:xlink="http://www.w3.org/1999/xlink" width="30px" height="30px" xmlns="http://www.w3.org/2000/svg">
  <g transform="matrix(1 0 0 1 -125 -190 )">
    <path d="M 25.3973076855469 8.62269231445313  L 21.3957692285156 4.61769231445312  L 5.99769231445312 20.0180769140625  L 5.99769231445312 24.0184615429688  L 5.99538462890625 24.0184615429688  L 9.99923077148437 24.0184615429688  L 25.3973076855469 8.62269231445313  Z M 23.85 2.16346154296875  L 22.32 3.69230768554688  L 26.3238461425781 7.69615385742187  L 27.8538461425781 6.16730768554688  C 28.9560877244341 5.06027407135162  28.9560877244341 3.27049515716401  27.8538461425781 2.16346154296875  C 26.7468125283829 1.0612199611128  24.9570336141953 1.0612199611128  23.85 2.16346154296875  Z M 28.7757692285156 7.09269231445313  L 10.5426923144531 25.3269230859375  L 4.68346154296875 25.3269230859375  L 4.68346154296875 19.4711538574219  L 22.9211538574219 1.23461537109375  C 24.5365384863281 -0.3807692578125  27.1615384863281 -0.3807692578125  28.7757692285156 1.23461537109375  C 29.5534694756833 2.01030194851272  29.9888438614342 3.06467235946441  29.985 4.1630769140625  C 29.985 5.2730769140625  29.5546153710938 6.31384614257813  28.7757692285156 7.09269231445313  Z M 29.8821691481715 28.9176922998047  C 29.8821691481715 29.2795971231559  29.5888279011998 29.5730003972435  29.2269230859375 29  L 0.65538462890625 29  C 0.293479813643978 29.5730003972435  0.000138566672282078 29.2795971231559  0.000138566672282078 28.9176922998047  C 0.000138566672282078 28.5557874764535  0.293479813643978 28.2623842023659  0.65538462890625 28  L 29.2269230859375 28  C 29.5888279011998 28.2623842023659  29.8821691481715 28.5557874764535  29.8821691481715 28.9176922998047  Z " fill-rule="nonzero" fill="#555555" stroke="none" transform="matrix(1 0 0 1 125 190 )" />
  </g>
</svg>