<?xml version="1.0" encoding="utf-8"?>
<svg version="1.1" xmlns:xlink="http://www.w3.org/1999/xlink" width="30px" height="27px" xmlns="http://www.w3.org/2000/svg">
  <g transform="matrix(1 0 0 1 -205 -192 )">
    <path d="M 29.8550724609375 25.9818101223693  C 29.8550724609375 25.6583851100128  29.6014492838542 25.4068322939254  29.3115942057292 25.4068322939254  L 26 25.4068322939254  L 26 11.930789714206  C 26.0507246419271 11.6433007999841  25.7971014648437 11.391748016183  25.5072463867187 11.391748016183  C 25.2173913085937 11.391748016183  24.9637681315104 11.6433007999841  25 11.930789714206  L 25 25.4068322939254  L 20.2536231770833 25.4068322939254  L 20.2536231770833 17.7165039999203  C 20.2536231770833 17.4290150856983  20 17.1774623018973  19.710144921875 17.1774623018973  C 19.42028984375 17.1774623018973  19.1666666666667 17.4290150856983  19.1666666666667 17.7165039999203  L 19.1666666666667 25.4068322939254  L 15 25.4068322939254  L 15 14.2307009634088  C 14.6014492838542 13.9432120491869  14.3478261067708 13.6916592653858  14.0579710286458 13.6916592653858  C 13.7681159505208 13.6916592653858  13.5144927734375 13.9432120491869  14 14.2307009634088  L 14 25.4427684243463  L 8.94927535807292 25.4427684243463  L 8.94927535807292 17.7165039999203  C 8.94927535807292 17.4290150856983  8.69565218098958 17.1774623018973  8.40579710286458 17.1774623018973  C 8.11594202473959 17.1774623018973  7.86231884765625 17.4290150856983  7.86231884765625 17.7165039999203  L 7.86231884765625 25.4068322939254  L 1.23188404947917 25.4068322939254  L 1.23188404947917 0.826530612244898  C 1.23188404947917 0.503105599888393  0.978260872395833 0.287488914221939  0.688405794270833 0.287488914221939  C 0.398550716145833 0.287488914221939  0.1449275390625 0.503105599888393  0.1449275390625 0.826530612244898  L 0.1449275390625 26  L 29.3115942057292 26  C 29.6014492838542 26.5208518203922  29.8550724609375 26.2692990365912  29.8550724609375 25.9818101223693  Z M 5.57971015625 12.9729370121173  C 5.68840579427083 13.0807453388074  5.83333333333333 13.1166814692283  5.94202897135417 13.1166814692283  C 6.08695651041667 13.1166814692283  6.23188404947917 13.0448092406728  6.34057972005208 12.9370008816964  L 12.3913043619792 6.43256434271365  C 12.4637681315104 6.36069211415816  12.5362319010417 6.36069211415816  12.5724637695313 6.36069211415816  C 12.6449275390625 6.36069211415816  12.6811594075521 6.36069211415816  12.7536231770833 6.43256434271365  L 17.0652173828125 11.1042591019611  C 17.3188405598958 11.3558118857621  17.6449275390625 11.535492473294  18.0072463867187 11.535492473294  C 18.369565234375 11.535492473294  18.7318840820312 11.391748016183  18.9855072591146 11.1401952000957  L 25.3985507161458 4.5638864325574  C 25.6159420247396 4.34826974689094  25.6159420247396 3.98890860411352  25.3985507161458 3.80922804886798  C 25.1811594075521 3.59361136320153  24.8550724609375 3.59361136320153  24.6376811523437 3.80922804886798  L 18.2246376953125 10.3855368164063  C 18.1521739257812 10.4574090449617  18.07971015625 10.4574090449617  18.0434782552083 10.4574090449617  C 18.0072463867188 10.4574090449617  17.9347826171875 10.4574090449617  17.8623188476563 10.3855368164063  L 13.5507246419271 5.7138420571588  C 13.2971014648437 5.42635314293686  12.9347826171875 5.28260868582589  12.5724637695313 5.28260868582589  C 12.210144921875 5.28260868582589  11.8478260742187 5.42635314293686  11.5942028971354 5.7138420571588  L 5.54347825520833 12.2182786284279  C 5.32608694661458 12.4338953140944  5.36231884765625 12.7932564568718  5.57971015625 12.9729370121173  Z " fill-rule="nonzero" fill="#555555" stroke="none" transform="matrix(1 0 0 1 205 192 )" />
  </g>
</svg>