<?xml version="1.0" encoding="utf-8"?>
<svg version="1.1" xmlns:xlink="http://www.w3.org/1999/xlink" width="30px" height="20px" xmlns="http://www.w3.org/2000/svg">
  <g transform="matrix(1 0 0 1 -45 -195 )">
    <path d="M 14.9375325520833 1.98623046875  C 20.4226236979167 1.98623046875  25.1437825520833 5.20358072916667  27.3531901041667 9.84671223958333  L 29.5061848958333 9.84671223958333  C 27.1727213541667 4.08795572916667  21.5338541666667 0.0220703125000002  14.9375 0.0220703125000002  C 8.34212239583333 0.0220703125000002  2.70325520833333 4.08811848958333  0.369954427083333 9.84671223958333  L 2.52294921875 9.84671223958333  C 4.73235677083333 5.20358072916667  9.453515625 1.98623046875  14.9375 1.98623046875  Z M 27.3531901041667 9.84671223958333  C 25.1437825520833 14.490234375  20.4226236979167 17.7073893229167  14.9375325520833 17.7073893229167  C 9.45358072916667 17.7073893229167  4.73238932291667 14.490234375  2.52301432291667 9.84671223958333  L 0.369986979166667 9.84671223958333  C 2.7033203125 15.6066731770833  8.3421875 19.6726888020833  14.9375325520833 19.6726888020833  C 21.5338216145833 19.6726888020833  27.1726888020833 15.6066731770833  29.5061848958333 9.84671223958333  L 27.3531901041667 9.84671223958333  Z M 9.69794921875 9.84736328125  C 9.69794921875 12.74150390625  12.0437174479167 15.08740234375  14.9380208333333 15.08740234375  C 17.83212890625 15.08740234375  20.1780598958333 12.74150390625  20.1780598958333 9.84739583333333  C 20.1780598958333 6.953125  17.83212890625 4.60716145833333  14.9380208333333 4.60716145833333  C 12.0437174479167 4.60716145833333  9.69791666666667 6.953125  9.69791666666667 9.84739583333333  Z M 18.21376953125 9.84736328125  C 18.21376953125 11.6560221354167  16.74677734375 13.1229817708333  14.9380533854167 13.1229817708333  C 13.12919921875 13.1229817708333  11.66337890625 11.6560221354167  11.66337890625 9.84739583333333  C 11.66337890625 8.03860677083333  13.12919921875 6.57164713541667  14.9380208333333 6.57164713541667  C 16.74677734375 6.57164713541667  18.2137369791667 8.03860677083333  18.2137369791667 9.84736328125  Z " fill-rule="nonzero" fill="#555555" stroke="none" transform="matrix(1 0 0 1 45 195 )" />
  </g>
</svg>