<?xml version="1.0" encoding="utf-8"?>
<svg version="1.1" xmlns:xlink="http://www.w3.org/1999/xlink" width="180px" height="80px" xmlns="http://www.w3.org/2000/svg">
  <g transform="matrix(1 0 0 1 -20 -10 )">
    <path d="M 20 10  L 200 10  L 200 90  L 20 90  L 20 10  " fill-rule="nonzero" fill="#cccccc" stroke="none" />
    <path d="M 26 16  L 194 16  L 194 84  L 26 84  L 26 16  " fill-rule="nonzero" fill="#ffffff" stroke="none" />
    <path d="M 119.6 34  C 116.24 34  113.6 31.36  113.6 28  C 113.6 24.64  116.24 22  119.6 22  C 122.96 22  125.6 24.64  125.6 28  C 125.6 31.36  122.96 34  119.6 34  " fill-rule="nonzero" fill="#cccccc" stroke="none" />
    <path d="M 28 82  L 28 46.8  L 69 30.8  L 126.4 64.9333333333333  L 159.2 40.4  L 192 64.9333333333333  L 192 82  L 28 82  " fill-rule="nonzero" fill="#169bd5" stroke="none" />
  </g>
</svg>