<?xml version="1.0" encoding="utf-8"?>
<svg version="1.1" xmlns:xlink="http://www.w3.org/1999/xlink" width="180px" height="80px" xmlns="http://www.w3.org/2000/svg">
  <g transform="matrix(1 0 0 1 -20 -10 )">
    <path d="M 20 10  L 200 10  L 200 90  L 20 90  L 20 10  " fill-rule="nonzero" fill="#cccccc" stroke="none" />
    <path d="M 26 16  L 194 16  L 194 84  L 26 84  L 26 16  " fill-rule="nonzero" fill="#ffffff" stroke="none" />
    <path d="M 119.60000000000001 34  C 116.24000000000001 34  113.60000000000001 31.36  113.60000000000001 28  C 113.60000000000001 24.64  116.24000000000001 22  119.60000000000001 22  C 122.96000000000001 22  125.60000000000001 24.64  125.60000000000001 28  C 125.60000000000001 31.36  122.96000000000001 34  119.60000000000001 34  " fill-rule="nonzero" fill="#cccccc" stroke="none" />
    <path d="M 28 82  L 28 46.8  L 69 30.799999999999997  L 126.39999999999999 64.93333333333334  L 159.20000000000002 40.4  L 192 64.93333333333334  L 192 82  L 28 82  " fill-rule="nonzero" fill="#169bd5" stroke="none" />
  </g>
</svg>