<?xml version="1.0" encoding="utf-8"?>
<svg version="1.1" xmlns:xlink="http://www.w3.org/1999/xlink" width="55px" height="55px" xmlns="http://www.w3.org/2000/svg">
  <g transform="matrix(1 0 0 1 -3 0 )">
    <path d="M 3 0  L 58 0  L 58 55  L 3 55  L 3 0  " fill-rule="nonzero" fill="#cccccc" stroke="none" />
    <path d="M 7 4  L 54 4  L 54 51  L 7 51  L 7 4  " fill-rule="nonzero" fill="#ffffff" stroke="none" />
    <path d="M 35.725 16.5  C 33.415 16.5  31.6 14.685  31.6 12.375  C 31.6 10.065  33.415 8.25  35.725 8.25  C 38.035 8.25  39.85 10.065  39.85 12.375  C 39.85 14.685  38.035 16.5  35.725 16.5  " fill-rule="nonzero" fill="#cccccc" stroke="none" />
    <path d="M 9 50  L 9 25.8  L 20 14.8  L 35.4 23.6  L 44.2 21.4  L 53 23.6  L 53 50  L 9 50  " fill-rule="nonzero" fill="#169bd5" stroke="none" />
  </g>
</svg>