<?xml version="1.0" encoding="utf-8"?>
<svg version="1.1" xmlns:xlink="http://www.w3.org/1999/xlink" width="12px" height="12px" viewBox="150 89  12 12" xmlns="http://www.w3.org/2000/svg">
  <path d="M 156 89  C 159.36 89  162 91.64  162 95  C 162 98.36  159.36 101  156 101  C 152.64 101  150 98.36  150 95  C 150 91.64  152.64 89  156 89  Z " fill-rule="nonzero" fill="#f0f0f0" stroke="none" />
  <path d="M 156 89.5  C 159.08 89.5  161.5 91.92  161.5 95  C 161.5 98.08  159.08 100.5  156 100.5  C 152.92 100.5  150.5 98.08  150.5 95  C 150.5 91.92  152.92 89.5  156 89.5  Z " stroke-width="1" stroke="#aaaaaa" fill="none" />
  <path d="M 156 98  C 154.32 98  153 96.68  153 95  C 153 93.32  154.32 92  156 92  C 157.68 92  159 93.32  159 95  C 159 96.68  157.68 98  156 98  " fill-rule="nonzero" fill="#aaaaaa" stroke="none" />
</svg>