<?xml version="1.0" encoding="utf-8"?>
<svg version="1.1" xmlns:xlink="http://www.w3.org/1999/xlink" width="20px" height="20px" xmlns="http://www.w3.org/2000/svg">
  <g transform="matrix(1 0 0 1 -256 -10 )">
    <path d="M 1.5384615384615472 15.357142857142833  L 1.5384615384615472 18.571428571428555  L 5 18.571428571428555  L 5 15.357142857142833  L 1.5384615384615472 15.357142857142833  Z M 5.769230769230717 15.357142857142833  L 5.769230769230717 18.571428571428555  L 9.615384615384642 18.571428571428555  L 9.615384615384642 15.357142857142833  L 5.769230769230717 15.357142857142833  Z M 1.5384615384615472 11.071428571428555  L 1.5384615384615472 14.642857142857167  L 5 14.642857142857167  L 5 11.071428571428555  L 1.5384615384615472 11.071428571428555  Z M 5.769230769230717 11.071428571428555  L 5.769230769230717 14.642857142857167  L 9.615384615384642 14.642857142857167  L 9.615384615384642 11.071428571428555  L 5.769230769230717 11.071428571428555  Z M 1.5384615384615472 7.14285714285711  L 1.5384615384615472 10.357142857142833  L 5 10.357142857142833  L 5 7.14285714285711  L 1.5384615384615472 7.14285714285711  Z M 10.384615384615358 15.357142857142833  L 10.384615384615358 18.571428571428555  L 14.230769230769283 18.571428571428555  L 14.230769230769283 15.357142857142833  L 10.384615384615358 15.357142857142833  Z M 5.769230769230717 7.14285714285711  L 5.769230769230717 10.357142857142833  L 9.615384615384642 10.357142857142833  L 9.615384615384642 7.14285714285711  L 5.769230769230717 7.14285714285711  Z M 15 15.357142857142833  L 15 18.571428571428555  L 18.461538461538453 18.571428571428555  L 18.461538461538453 15.357142857142833  L 15 15.357142857142833  Z M 10.384615384615358 11.071428571428555  L 10.384615384615358 14.642857142857167  L 14.230769230769283 14.642857142857167  L 14.230769230769283 11.071428571428555  L 10.384615384615358 11.071428571428555  Z M 6.039663461538453 5.251116071428555  C 6.115785256410277 5.180431547619037  6.153846153846189 5.096726190476204  6.153846153846189 5  L 6.153846153846189 1.7857142857142776  C 6.153846153846189 1.6889880952380736  6.115785256410277 1.6052827380952408  6.039663461538453 1.5345982142857224  C 5.963541666666629 1.463913690476204  5.873397435897459 1.4285714285714448  5.769230769230717 1.4285714285714448  L 5 1.4285714285714448  C 4.895833333333371 1.4285714285714448  4.805689102564088 1.463913690476204  4.729567307692264 1.5345982142857224  C 4.653445512820554 1.6052827380952408  4.615384615384642 1.6889880952380736  4.615384615384642 1.7857142857142776  L 4.615384615384642 5  C 4.615384615384642 5.096726190476204  4.653445512820554 5.180431547619037  4.729567307692264 5.251116071428555  C 4.805689102564088 5.321800595238074  4.895833333333371 5.35714285714289  5 5.35714285714289  L 5.769230769230717 5.35714285714289  C 5.873397435897459 5.35714285714289  5.963541666666629 5.321800595238074  6.039663461538453 5.251116071428555  Z M 15 11.071428571428555  L 15 14.642857142857167  L 18.461538461538453 14.642857142857167  L 18.461538461538453 11.071428571428555  L 15 11.071428571428555  Z M 10.384615384615358 7.14285714285711  L 10.384615384615358 10.357142857142833  L 14.230769230769283 10.357142857142833  L 14.230769230769283 7.14285714285711  L 10.384615384615358 7.14285714285711  Z M 15 7.14285714285711  L 15 10.357142857142833  L 18.461538461538453 10.357142857142833  L 18.461538461538453 7.14285714285711  L 15 7.14285714285711  Z M 15.270432692307736 5.251116071428555  C 15.346554487179446 5.180431547619037  15.384615384615358 5.096726190476204  15.384615384615358 5  L 15.384615384615358 1.7857142857142776  C 15.384615384615358 1.6889880952380736  15.346554487179446 1.6052827380952408  15.270432692307736 1.5345982142857224  C 15.194310897435912 1.463913690476204  15.104166666666629 1.4285714285714448  15 1.4285714285714448  L 14.230769230769283 1.4285714285714448  C 14.12660256410254 1.4285714285714448  14.036458333333371 1.463913690476204  13.960336538461547 1.5345982142857224  C 13.884214743589723 1.6052827380952408  13.846153846153811 1.6889880952380736  13.846153846153811 1.7857142857142776  L 13.846153846153811 5  C 13.846153846153811 5.096726190476204  13.884214743589723 5.180431547619037  13.960336538461547 5.251116071428555  C 14.036458333333371 5.321800595238074  14.12660256410254 5.35714285714289  14.230769230769283 5.35714285714289  L 15 5.35714285714289  C 15.104166666666629 5.35714285714289  15.194310897435912 5.321800595238074  15.270432692307736 5.251116071428555  Z M 19.543269230769283 3.28125  C 19.847756410256466 3.5639880952380736  20 3.8988095238095184  20 4.285714285714278  L 20 18.571428571428555  C 20 18.958333333333314  19.847756410256466 19.29315476190476  19.543269230769283 19.57589285714289  C 19.2387820512821 19.858630952380963  18.87820512820508 20  18.461538461538453 20  L 1.5384615384615472 20  C 1.1217948717948616 20  0.761217948717956 19.858630952380963  0.4567307692307736 19.57589285714289  C 0.1522435897435912 19.29315476190476  0 18.958333333333314  0 18.571428571428555  L 0 4.285714285714278  C 0 3.8988095238095184  0.1522435897435912 3.5639880952380736  0.4567307692307736 3.28125  C 0.761217948717956 2.9985119047619264  1.1217948717948616 2.8571428571428896  1.5384615384615472 2.8571428571428896  L 3.0769230769230944 2.8571428571428896  L 3.0769230769230944 1.7857142857142776  C 3.0769230769230944 1.2946428571428896  3.265224358974365 0.8742559523809632  3.6418269230769056 0.5245535714285552  C 4.018429487179446 0.174851190476204  4.471153846153811 0  5 0  L 5.769230769230717 0  C 6.298076923076906 0  6.75080128205127 0.174851190476204  7.127403846153811 0.5245535714285552  C 7.504006410256466 0.8742559523809632  7.692307692307736 1.2946428571428896  7.692307692307736 1.7857142857142776  L 7.692307692307736 2.8571428571428896  L 12.307692307692264 2.8571428571428896  L 12.307692307692264 1.7857142857142776  C 12.307692307692264 1.2946428571428896  12.495993589743648 0.8742559523809632  12.872596153846189 0.5245535714285552  C 13.24919871794873 0.174851190476204  13.701923076923094 0  14.230769230769283 0  L 15 0  C 15.528846153846189 0  15.981570512820554 0.174851190476204  16.358173076923094 0.5245535714285552  C 16.734775641025635 0.8742559523809632  16.923076923076906 1.2946428571428896  16.923076923076906 1.7857142857142776  L 16.923076923076906 2.8571428571428896  L 18.461538461538453 2.8571428571428896  C 18.87820512820508 2.8571428571428896  19.2387820512821 2.9985119047619264  19.543269230769283 3.28125  Z " fill-rule="nonzero" fill="#6b6b6b" stroke="none" transform="matrix(1 0 0 1 256 10 )" />
  </g>
</svg>