<?xml version="1.0" encoding="utf-8"?>
<svg version="1.1" xmlns:xlink="http://www.w3.org/1999/xlink" width="300px" height="150px" xmlns="http://www.w3.org/2000/svg">
  <g>
    <path d="M 0 0  L 300 0  L 300 150  L 0 150  L 0 0  " fill-rule="nonzero" fill="#cccccc" stroke="none" />
    <path d="M 11 11  L 289 11  L 289 139  L 11 139  L 11 11  " fill-rule="nonzero" fill="#ffffff" stroke="none" />
    <path d="M 167.25 45  C 160.95 45  156 40.05  156 33.75  C 156 27.45  160.95 22.5  167.25 22.5  C 173.55 22.5  178.5 27.45  178.5 33.75  C 178.5 40.05  173.55 45  167.25 45  " fill-rule="nonzero" fill="#cccccc" stroke="none" />
    <path d="M 15 135  L 15 69  L 82.5 39  L 177 99  L 231 57  L 285 99  L 285 135  L 15 135  " fill-rule="nonzero" fill="#169bd5" stroke="none" />
  </g>
</svg>