<?xml version="1.0" encoding="utf-8"?>
<svg version="1.1" xmlns:xlink="http://www.w3.org/1999/xlink" width="16px" height="16px" xmlns="http://www.w3.org/2000/svg">
  <g transform="matrix(1 0 0 1 -835 -13 )">
    <path d="M 835 13  L 851 13  L 851 29  L 835 29  L 835 13  " fill-rule="nonzero" fill="#cccccc" stroke="none" />
    <path d="M 836 14  L 850 14  L 850 28  L 836 28  L 836 14  " fill-rule="nonzero" fill="#ffffff" stroke="none" />
    <path d="M 844.52 17.8  C 843.8480000000001 17.8  843.32 17.272000000000002  843.32 16.6  C 843.32 15.928  843.8480000000001 15.4  844.52 15.4  C 845.192 15.4  845.72 15.928  845.72 16.6  C 845.72 17.272000000000002  845.192 17.8  844.52 17.8  " fill-rule="nonzero" fill="#cccccc" stroke="none" />
    <path d="M 837 28  L 837 20.85  L 840.25 17.6  L 844.8 20.2  L 847.4 19.549999999999997  L 850 20.2  L 850 28  L 837 28  " fill-rule="nonzero" fill="#169bd5" stroke="none" />
  </g>
</svg>