<?xml version="1.0" encoding="utf-8"?>
<svg version="1.1" xmlns:xlink="http://www.w3.org/1999/xlink" width="12px" height="12px" viewBox="50 52  12 12" xmlns="http://www.w3.org/2000/svg">
  <path d="M 56 52  C 59.36 52  62 54.64  62 58  C 62 61.36  59.36 64  56 64  C 52.64 64  50 61.36  50 58  C 50 54.64  52.64 52  56 52  Z " fill-rule="nonzero" fill="#ffffff" stroke="none" fill-opacity="0" />
  <path d="M 56 52.5  C 59.08 52.5  61.5 54.92  61.5 58  C 61.5 61.08  59.08 63.5  56 63.5  C 52.92 63.5  50.5 61.08  50.5 58  C 50.5 54.92  52.92 52.5  56 52.5  Z " stroke-width="1" stroke="#aaaaaa" fill="none" />
  <path d="M 56 61  C 54.32 61  53 59.68  53 58  C 53 56.32  54.32 55  56 55  C 57.68 55  59 56.32  59 58  C 59 59.68  57.68 61  56 61  " fill-rule="nonzero" fill="#aaaaaa" stroke="none" />
</svg>