<?xml version="1.0" encoding="utf-8"?>
<svg version="1.1" xmlns:xlink="http://www.w3.org/1999/xlink" width="16px" height="18px" xmlns="http://www.w3.org/2000/svg">
  <g transform="matrix(1 0 0 1 -311 -115 )">
    <path d="M 1.23076923076931 13.8214285714286  L 1.23076923076931 16.7142857142857  L 4 16.7142857142857  L 4 13.8214285714286  L 1.23076923076931 13.8214285714286  Z M 4.61538461538456 13.8214285714286  L 4.61538461538456 16.7142857142857  L 7.69230769230774 16.7142857142857  L 7.69230769230774 13.8214285714286  L 4.61538461538456 13.8214285714286  Z M 1.23076923076931 9.96428571428572  L 1.23076923076931 13.1785714285714  L 4 13.1785714285714  L 4 9.96428571428572  L 1.23076923076931 9.96428571428572  Z M 4.61538461538456 9.96428571428572  L 4.61538461538456 13.1785714285714  L 7.69230769230774 13.1785714285714  L 7.69230769230774 9.96428571428572  L 4.61538461538456 9.96428571428572  Z M 1.23076923076931 6.42857142857143  L 1.23076923076931 9.32142857142857  L 4 9.32142857142857  L 4 6.42857142857143  L 1.23076923076931 6.42857142857143  Z M 8.30769230769226 13.8214285714286  L 8.30769230769226 16.7142857142857  L 11.3846153846154 16.7142857142857  L 11.3846153846154 13.8214285714286  L 8.30769230769226 13.8214285714286  Z M 4.61538461538456 6.42857142857143  L 4.61538461538456 9.32142857142857  L 7.69230769230774 9.32142857142857  L 7.69230769230774 6.42857142857143  L 4.61538461538456 6.42857142857143  Z M 12 13.8214285714286  L 12 16.7142857142857  L 14.7692307692307 16.7142857142857  L 14.7692307692307 13.8214285714286  L 12 13.8214285714286  Z M 8.30769230769226 9.96428571428572  L 8.30769230769226 13.1785714285714  L 11.3846153846154 13.1785714285714  L 11.3846153846154 9.96428571428572  L 8.30769230769226 9.96428571428572  Z M 4.83173076923069 4.72600446428572  C 4.89262820512826 4.66238839285714  4.92307692307682 4.58705357142858  4.92307692307682 4.5  L 4.92307692307682 1.60714285714285  C 4.92307692307682 1.52008928571429  4.89262820512826 1.44475446428572  4.83173076923069 1.38113839285715  C 4.77083333333334 1.31752232142858  4.6987179487179 1.28571428571431  4.61538461538456 1.28571428571431  L 4 1.28571428571431  C 3.91666666666666 1.28571428571431  3.84455128205121 1.31752232142858  3.78365384615387 1.38113839285715  C 3.72275641025649 1.44475446428572  3.69230769230774 1.52008928571429  3.69230769230774 1.60714285714285  L 3.69230769230774 4.5  C 3.69230769230774 4.58705357142858  3.72275641025649 4.66238839285714  3.78365384615387 4.72600446428572  C 3.84455128205121 4.78962053571429  3.91666666666666 4.82142857142857  4 4.82142857142857  L 4.61538461538456 4.82142857142857  C 4.6987179487179 4.82142857142857  4.77083333333334 4.78962053571429  4.83173076923069 4.72600446428572  Z M 12 9.96428571428572  L 12 13.1785714285714  L 14.7692307692307 13.1785714285714  L 14.7692307692307 9.96428571428572  L 12 9.96428571428572  Z M 8.30769230769226 6.42857142857143  L 8.30769230769226 9.32142857142857  L 11.3846153846154 9.32142857142857  L 11.3846153846154 6.42857142857143  L 8.30769230769226 6.42857142857143  Z M 12 6.42857142857143  L 12 9.32142857142857  L 14.7692307692307 9.32142857142857  L 14.7692307692307 6.42857142857143  L 12 6.42857142857143  Z M 12.2163461538461 4.72600446428572  C 12.2772435897435 4.66238839285714  12.3076923076923 4.58705357142858  12.3076923076923 4.5  L 12.3076923076923 1.60714285714285  C 12.3076923076923 1.52008928571429  12.2772435897435 1.44475446428572  12.2163461538461 1.38113839285715  C 12.1554487179488 1.31752232142858  12.0833333333333 1.28571428571431  12 1.28571428571431  L 11.3846153846154 1.28571428571431  C 11.3012820512821 1.28571428571431  11.2291666666667 1.31752232142858  11.1682692307693 1.38113839285715  C 11.1073717948717 1.44475446428572  11.0769230769232 1.52008928571429  11.0769230769232 1.60714285714285  L 11.0769230769232 4.5  C 11.0769230769232 4.58705357142858  11.1073717948717 4.66238839285714  11.1682692307693 4.72600446428572  C 11.2291666666667 4.78962053571429  11.3012820512821 4.82142857142857  11.3846153846154 4.82142857142857  L 12 4.82142857142857  C 12.0833333333333 4.82142857142857  12.1554487179488 4.78962053571429  12.2163461538461 4.72600446428572  Z M 15.6346153846154 2.953125  C 15.8782051282051 3.20758928571429  16 3.50892857142857  16 3.85714285714285  L 16 16.7142857142857  C 16 17.0625  15.8782051282051 17.3638392857143  15.6346153846154 17.6183035714286  C 15.3910256410256 17.8727678571429  15.102564102564 18  14.7692307692307 18  L 1.23076923076931 18  C 0.897435897435969 18  0.608974358974393 17.8727678571429  0.365384615384556 17.6183035714286  C 0.121794871794918 17.3638392857143  0 17.0625  0 16.7142857142857  L 0 3.85714285714285  C 0 3.50892857142857  0.121794871794918 3.20758928571429  0.365384615384556 2.953125  C 0.608974358974393 2.69866071428571  0.897435897435969 2.57142857142857  1.23076923076931 2.57142857142857  L 2.46153846153842 2.57142857142857  L 2.46153846153842 1.60714285714285  C 2.46153846153842 1.16517857142857  2.61217948717947 0.786830357142861  2.91346153846158 0.472098214285694  C 3.21474358974351 0.157366071428584  3.57692307692318 0  4 0  L 4.61538461538456 0  C 5.03846153846158 0  5.40064102564105 0.157366071428584  5.70192307692318 0.472098214285694  C 6.00320512820508 0.786830357142861  6.15384615384613 1.16517857142857  6.15384615384613 1.60714285714285  L 6.15384615384613 2.57142857142857  L 9.84615384615387 2.57142857142857  L 9.84615384615387 1.60714285714285  C 9.84615384615387 1.16517857142857  9.99679487179492 0.786830357142861  10.2980769230768 0.472098214285694  C 10.5993589743589 0.157366071428584  10.9615384615384 0  11.3846153846154 0  L 12 0  C 12.4230769230768 0  12.7852564102565 0.157366071428584  13.0865384615384 0.472098214285694  C 13.3878205128205 0.786830357142861  13.5384615384616 1.16517857142857  13.5384615384616 1.60714285714285  L 13.5384615384616 2.57142857142857  L 14.7692307692307 2.57142857142857  C 15.102564102564 2.57142857142857  15.3910256410256 2.69866071428571  15.6346153846154 2.953125  Z " fill-rule="nonzero" fill="#c0c0c0" stroke="none" transform="matrix(1 0 0 1 311 115 )" />
  </g>
</svg>