<?xml version="1.0" encoding="utf-8"?>
<svg version="1.1" xmlns:xlink="http://www.w3.org/1999/xlink" width="24px" height="24px" xmlns="http://www.w3.org/2000/svg">
  <g transform="matrix(1 0 0 1 -188 -100 )">
    <path d="M 18.59375 10  C 18.59375 10.270833333333343  18.494791666666686 10.505208333333343  18.296875 10.703125  L 11.703125 17.296875  C 11.505208333333314 17.494791666666657  11.270833333333314 17.59375  11 17.59375  C 10.729166666666686 17.59375  10.494791666666686 17.494791666666657  10.296875 17.296875  L 5.703125 12.703125  C 5.505208333333314 12.505208333333343  5.40625 12.270833333333343  5.40625 12  C 5.40625 11.729166666666657  5.505208333333314 11.494791666666657  5.703125 11.296875  L 7.296875 9.703125  C 7.494791666666686 9.505208333333343  7.729166666666686 9.40625  8 9.40625  C 8.270833333333314 9.40625  8.505208333333314 9.505208333333343  8.703125 9.703125  L 11 12  L 15.296875 7.703125  C 15.494791666666686 7.505208333333343  15.729166666666686 7.40625  16 7.40625  C 16.270833333333314 7.40625  16.505208333333314 7.505208333333343  16.703125 7.703125  L 18.296875 9.296875  C 18.494791666666686 9.494791666666657  18.59375 9.729166666666657  18.59375 10  Z M 19.359375 16.265625  C 20.119791666666686 14.963541666666657  20.5 13.541666666666657  20.5 12  C 20.5 10.458333333333343  20.119791666666686 9.036458333333343  19.359375 7.734375  C 18.598958333333314 6.432291666666657  17.567708333333314 5.401041666666657  16.265625 4.640625  C 14.963541666666686 3.880208333333343  13.541666666666686 3.5  12 3.5  C 10.458333333333314 3.5  9.036458333333314 3.880208333333343  7.734375 4.640625  C 6.432291666666686 5.401041666666657  5.401041666666686 6.432291666666657  4.640625 7.734375  C 3.8802083333333144 9.036458333333343  3.5 10.458333333333343  3.5 12  C 3.5 13.541666666666657  3.8802083333333144 14.963541666666657  4.640625 16.265625  C 5.401041666666686 17.567708333333343  6.432291666666686 18.598958333333343  7.734375 19.359375  C 9.036458333333314 20.119791666666657  10.458333333333314 20.5  12 20.5  C 13.541666666666686 20.5  14.963541666666686 20.119791666666657  16.265625 19.359375  C 17.567708333333314 18.598958333333343  18.598958333333314 17.567708333333343  19.359375 16.265625  Z M 22.390625 5.9765625  C 23.463541666666686 7.815104166666657  24 9.822916666666657  24 12  C 24 14.177083333333343  23.463541666666686 16.184895833333343  22.390625 18.0234375  C 21.317708333333314 19.861979166666657  19.861979166666686 21.317708333333343  18.0234375 22.390625  C 16.184895833333314 23.463541666666657  14.177083333333314 24  12 24  C 9.822916666666686 24  7.815104166666686 23.463541666666657  5.9765625 22.390625  C 4.138020833333314 21.317708333333343  2.6822916666666856 19.861979166666657  1.609375 18.0234375  C 0.5364583333333144 16.184895833333343  0 14.177083333333343  0 12  C 0 9.822916666666657  0.5364583333333144 7.815104166666657  1.609375 5.9765625  C 2.6822916666666856 4.138020833333343  4.138020833333314 2.682291666666657  5.9765625 1.609375  C 7.815104166666686 0.5364583333333428  9.822916666666686 0  12 0  C 14.177083333333314 0  16.184895833333314 0.5364583333333428  18.0234375 1.609375  C 19.861979166666686 2.682291666666657  21.317708333333314 4.138020833333343  22.390625 5.9765625  Z " fill-rule="nonzero" fill="#000000" stroke="none" transform="matrix(1 0 0 1 188 100 )" />
  </g>
</svg>