<?xml version="1.0" encoding="utf-8"?>
<svg version="1.1" xmlns:xlink="http://www.w3.org/1999/xlink" width="16px" height="18px" xmlns="http://www.w3.org/2000/svg">
  <g transform="matrix(1 0 0 1 -191 -115 )">
    <path d="M 1.2307692307693117 13.821428571428555  L 1.2307692307693117 16.714285714285722  L 4 16.714285714285722  L 4 13.821428571428555  L 1.2307692307693117 13.821428571428555  Z M 4.615384615384556 13.821428571428555  L 4.615384615384556 16.714285714285722  L 7.692307692307736 16.714285714285722  L 7.692307692307736 13.821428571428555  L 4.615384615384556 13.821428571428555  Z M 1.2307692307693117 9.964285714285722  L 1.2307692307693117 13.17857142857143  L 4 13.17857142857143  L 4 9.964285714285722  L 1.2307692307693117 9.964285714285722  Z M 4.615384615384556 9.964285714285722  L 4.615384615384556 13.17857142857143  L 7.692307692307736 13.17857142857143  L 7.692307692307736 9.964285714285722  L 4.615384615384556 9.964285714285722  Z M 1.2307692307693117 6.428571428571431  L 1.2307692307693117 9.32142857142857  L 4 9.32142857142857  L 4 6.428571428571431  L 1.2307692307693117 6.428571428571431  Z M 8.307692307692264 13.821428571428555  L 8.307692307692264 16.714285714285722  L 11.384615384615444 16.714285714285722  L 11.384615384615444 13.821428571428555  L 8.307692307692264 13.821428571428555  Z M 4.615384615384556 6.428571428571431  L 4.615384615384556 9.32142857142857  L 7.692307692307736 9.32142857142857  L 7.692307692307736 6.428571428571431  L 4.615384615384556 6.428571428571431  Z M 12 13.821428571428555  L 12 16.714285714285722  L 14.769230769230688 16.714285714285722  L 14.769230769230688 13.821428571428555  L 12 13.821428571428555  Z M 8.307692307692264 9.964285714285722  L 8.307692307692264 13.17857142857143  L 11.384615384615444 13.17857142857143  L 11.384615384615444 9.964285714285722  L 8.307692307692264 9.964285714285722  Z M 4.831730769230688 4.726004464285722  C 4.892628205128261 4.662388392857139  4.92307692307682 4.587053571428584  4.92307692307682 4.5  L 4.92307692307682 1.607142857142847  C 4.92307692307682 1.5200892857142918  4.892628205128261 1.4447544642857224  4.831730769230688 1.381138392857153  C 4.770833333333343 1.3175223214285836  4.698717948717899 1.285714285714306  4.615384615384556 1.285714285714306  L 4 1.285714285714306  C 3.916666666666657 1.285714285714306  3.8445512820512135 1.3175223214285836  3.783653846153868 1.381138392857153  C 3.722756410256494 1.4447544642857224  3.692307692307736 1.5200892857142918  3.692307692307736 1.607142857142847  L 3.692307692307736 4.5  C 3.692307692307736 4.587053571428584  3.722756410256494 4.662388392857139  3.783653846153868 4.726004464285722  C 3.8445512820512135 4.789620535714292  3.916666666666657 4.821428571428569  4 4.821428571428569  L 4.615384615384556 4.821428571428569  C 4.698717948717899 4.821428571428569  4.770833333333343 4.789620535714292  4.831730769230688 4.726004464285722  Z M 12 9.964285714285722  L 12 13.17857142857143  L 14.769230769230688 13.17857142857143  L 14.769230769230688 9.964285714285722  L 12 9.964285714285722  Z M 8.307692307692264 6.428571428571431  L 8.307692307692264 9.32142857142857  L 11.384615384615444 9.32142857142857  L 11.384615384615444 6.428571428571431  L 8.307692307692264 6.428571428571431  Z M 12 6.428571428571431  L 12 9.32142857142857  L 14.769230769230688 9.32142857142857  L 14.769230769230688 6.428571428571431  L 12 6.428571428571431  Z M 12.216346153846132 4.726004464285722  C 12.277243589743506 4.662388392857139  12.307692307692264 4.587053571428584  12.307692307692264 4.5  L 12.307692307692264 1.607142857142847  C 12.307692307692264 1.5200892857142918  12.277243589743506 1.4447544642857224  12.216346153846132 1.381138392857153  C 12.155448717948786 1.3175223214285836  12.083333333333343 1.285714285714306  12 1.285714285714306  L 11.384615384615444 1.285714285714306  C 11.3012820512821 1.285714285714306  11.229166666666657 1.3175223214285836  11.168269230769312 1.381138392857153  C 11.107371794871739 1.4447544642857224  11.07692307692318 1.5200892857142918  11.07692307692318 1.607142857142847  L 11.07692307692318 4.5  C 11.07692307692318 4.587053571428584  11.107371794871739 4.662388392857139  11.168269230769312 4.726004464285722  C 11.229166666666657 4.789620535714292  11.3012820512821 4.821428571428569  11.384615384615444 4.821428571428569  L 12 4.821428571428569  C 12.083333333333343 4.821428571428569  12.155448717948786 4.789620535714292  12.216346153846132 4.726004464285722  Z M 15.634615384615444 2.953125  C 15.878205128205082 3.207589285714292  16 3.5089285714285694  16 3.857142857142847  L 16 16.714285714285722  C 16 17.062499999999986  15.878205128205082 17.363839285714278  15.634615384615444 17.61830357142857  C 15.391025641025607 17.87276785714286  15.102564102564031 18  14.769230769230688 18  L 1.2307692307693117 18  C 0.8974358974359689 18  0.6089743589743932 17.87276785714286  0.36538461538455635 17.61830357142857  C 0.12179487179491844 17.363839285714278  0 17.062499999999986  0 16.714285714285722  L 0 3.857142857142847  C 0 3.5089285714285694  0.12179487179491844 3.207589285714292  0.36538461538455635 2.953125  C 0.6089743589743932 2.698660714285708  0.8974358974359689 2.5714285714285694  1.2307692307693117 2.5714285714285694  L 2.4615384615384244 2.5714285714285694  L 2.4615384615384244 1.607142857142847  C 2.4615384615384244 1.1651785714285694  2.612179487179475 0.7868303571428612  2.9134615384615756 0.472098214285694  C 3.214743589743506 0.1573660714285836  3.5769230769231797 0  4 0  L 4.615384615384556 0  C 5.038461538461576 0  5.40064102564105 0.1573660714285836  5.70192307692318 0.472098214285694  C 6.003205128205082 0.7868303571428612  6.153846153846132 1.1651785714285694  6.153846153846132 1.607142857142847  L 6.153846153846132 2.5714285714285694  L 9.846153846153868 2.5714285714285694  L 9.846153846153868 1.607142857142847  C 9.846153846153868 1.1651785714285694  9.996794871794918 0.7868303571428612  10.29807692307682 0.472098214285694  C 10.59935897435895 0.1573660714285836  10.961538461538424 0  11.384615384615444 0  L 12 0  C 12.42307692307682 0  12.785256410256494 0.1573660714285836  13.086538461538424 0.472098214285694  C 13.387820512820525 0.7868303571428612  13.538461538461576 1.1651785714285694  13.538461538461576 1.607142857142847  L 13.538461538461576 2.5714285714285694  L 14.769230769230688 2.5714285714285694  C 15.102564102564031 2.5714285714285694  15.391025641025607 2.698660714285708  15.634615384615444 2.953125  Z " fill-rule="nonzero" fill="#c0c0c0" stroke="none" transform="matrix(1 0 0 1 191 115 )" />
  </g>
</svg>