<?xml version="1.0" encoding="utf-8"?>
<svg version="1.1" xmlns:xlink="http://www.w3.org/1999/xlink" width="24px" height="24px" xmlns="http://www.w3.org/2000/svg">
  <g transform="matrix(1 0 0 1 -188 -100 )">
    <path d="M 18.59375 10  C 18.59375 10.2708333333333  18.4947916666667 10.5052083333333  18.296875 10.703125  L 11.703125 17.296875  C 11.5052083333333 17.4947916666667  11.2708333333333 17.59375  11 17.59375  C 10.7291666666667 17.59375  10.4947916666667 17.4947916666667  10.296875 17.296875  L 5.703125 12.703125  C 5.50520833333331 12.5052083333333  5.40625 12.2708333333333  5.40625 12  C 5.40625 11.7291666666667  5.50520833333331 11.4947916666667  5.703125 11.296875  L 7.296875 9.703125  C 7.49479166666669 9.50520833333334  7.72916666666669 9.40625  8 9.40625  C 8.27083333333331 9.40625  8.50520833333331 9.50520833333334  8.703125 9.703125  L 11 12  L 15.296875 7.703125  C 15.4947916666667 7.50520833333334  15.7291666666667 7.40625  16 7.40625  C 16.2708333333333 7.40625  16.5052083333333 7.50520833333334  16.703125 7.703125  L 18.296875 9.296875  C 18.4947916666667 9.49479166666666  18.59375 9.72916666666666  18.59375 10  Z M 19.359375 16.265625  C 20.1197916666667 14.9635416666667  20.5 13.5416666666667  20.5 12  C 20.5 10.4583333333333  20.1197916666667 9.03645833333334  19.359375 7.734375  C 18.5989583333333 6.43229166666666  17.5677083333333 5.40104166666666  16.265625 4.640625  C 14.9635416666667 3.88020833333334  13.5416666666667 3.5  12 3.5  C 10.4583333333333 3.5  9.03645833333331 3.88020833333334  7.734375 4.640625  C 6.43229166666669 5.40104166666666  5.40104166666669 6.43229166666666  4.640625 7.734375  C 3.88020833333331 9.03645833333334  3.5 10.4583333333333  3.5 12  C 3.5 13.5416666666667  3.88020833333331 14.9635416666667  4.640625 16.265625  C 5.40104166666669 17.5677083333333  6.43229166666669 18.5989583333333  7.734375 19.359375  C 9.03645833333331 20.1197916666667  10.4583333333333 20.5  12 20.5  C 13.5416666666667 20.5  14.9635416666667 20.1197916666667  16.265625 19.359375  C 17.5677083333333 18.5989583333333  18.5989583333333 17.5677083333333  19.359375 16.265625  Z M 22.390625 5.9765625  C 23.4635416666667 7.81510416666666  24 9.82291666666666  24 12  C 24 14.1770833333333  23.4635416666667 16.1848958333333  22.390625 18.0234375  C 21.3177083333333 19.8619791666667  19.8619791666667 21.3177083333333  18.0234375 22.390625  C 16.1848958333333 23.4635416666667  14.1770833333333 24  12 24  C 9.82291666666669 24  7.81510416666669 23.4635416666667  5.9765625 22.390625  C 4.13802083333331 21.3177083333333  2.68229166666669 19.8619791666667  1.609375 18.0234375  C 0.536458333333314 16.1848958333333  0 14.1770833333333  0 12  C 0 9.82291666666666  0.536458333333314 7.81510416666666  1.609375 5.9765625  C 2.68229166666669 4.13802083333334  4.13802083333331 2.68229166666666  5.9765625 1.609375  C 7.81510416666669 0.536458333333343  9.82291666666669 0  12 0  C 14.1770833333333 0  16.1848958333333 0.536458333333343  18.0234375 1.609375  C 19.8619791666667 2.68229166666666  21.3177083333333 4.13802083333334  22.390625 5.9765625  Z " fill-rule="nonzero" fill="#000000" stroke="none" transform="matrix(1 0 0 1 188 100 )" />
  </g>
</svg>