<?xml version="1.0" encoding="utf-8"?>
<svg version="1.1" xmlns:xlink="http://www.w3.org/1999/xlink" width="40px" height="40px" xmlns="http://www.w3.org/2000/svg">
  <defs>
    <mask fill="white" id="clip2709">
      <path d="M 28 40  C 18.01 40  10 31.99  10 22  L 10 18  C 10 8.01  18.01 0  28 0  L 32 0  C 41.99 0  50 8.01  50 18  L 50 22  C 50 31.99  41.99 40  32 40  " fill-rule="evenodd" />
    </mask>
  </defs>
  <g transform="matrix(1 0 0 1 -10 0 )">
    <path d="M 10 0  L 50 0  L 50 40  L 10 40  L 10 0  " fill-rule="nonzero" fill="#cccccc" stroke="none" mask="url(#clip2709)" />
    <path d="M 13 3  L 47 3  L 47 37  L 13 37  L 13 3  " fill-rule="nonzero" fill="#ffffff" stroke="none" mask="url(#clip2709)" />
    <path d="M 33.8 12  C 32.12 12  30.8 10.68  30.8 9  C 30.8 7.32  32.12 6  33.8 6  C 35.48 6  36.8 7.32  36.8 9  C 36.8 10.68  35.48 12  33.8 12  " fill-rule="nonzero" fill="#cccccc" stroke="none" mask="url(#clip2709)" />
    <path d="M 14 36  L 14 18.4  L 22 10.4  L 33.2 16.8  L 39.6 15.2  L 46 16.8  L 46 36  L 14 36  " fill-rule="nonzero" fill="#169bd5" stroke="none" mask="url(#clip2709)" />
  </g>
</svg>