<?xml version="1.0" encoding="utf-8"?>
<svg version="1.1" xmlns:xlink="http://www.w3.org/1999/xlink" width="40px" height="40px" xmlns="http://www.w3.org/2000/svg">
  <g>
    <path d="M 0 0  L 40 0  L 40 40  L 0 40  L 0 0  " fill-rule="nonzero" fill="#cccccc" stroke="none" />
    <path d="M 3 3  L 37 3  L 37 37  L 3 37  L 3 3  " fill-rule="nonzero" fill="#ffffff" stroke="none" />
    <path d="M 23.8 12  C 22.12 12  20.8 10.68  20.8 9  C 20.8 7.32  22.12 6  23.8 6  C 25.48 6  26.8 7.32  26.8 9  C 26.8 10.68  25.48 12  23.8 12  " fill-rule="nonzero" fill="#cccccc" stroke="none" />
    <path d="M 4 36  L 4 18.4  L 12 10.4  L 23.2 16.8  L 29.6 15.2  L 36 16.8  L 36 36  L 4 36  " fill-rule="nonzero" fill="#169bd5" stroke="none" />
  </g>
</svg>