<?xml version="1.0" encoding="utf-8"?>
<svg version="1.1" xmlns:xlink="http://www.w3.org/1999/xlink" width="50px" height="50px" xmlns="http://www.w3.org/2000/svg">
  <g transform="matrix(1 0 0 1 -155 -695 )">
    <path d="M 180 698  C 192.32 698  202 707.68  202 720  C 202 732.32  192.32 742  180 742  C 167.68 742  158 732.32  158 720  C 158 707.68  167.68 698  180 698  Z " fill-rule="nonzero" fill="#ffffff" stroke="none" fill-opacity="0" />
    <path d="M 180 697  C 192.88 697  203 707.12  203 720  C 203 732.88  192.88 743  180 743  C 167.12 743  157 732.88  157 720  C 157 707.12  167.12 697  180 697  Z " stroke-width="4" stroke="#555555" fill="none" />
  </g>
</svg>