<?xml version="1.0" encoding="utf-8"?>
<svg version="1.1" xmlns:xlink="http://www.w3.org/1999/xlink" width="20px" height="20px" xmlns="http://www.w3.org/2000/svg">
  <g>
    <path d="M 6.116071428571429 0.792410714285714  C 7.351190476190476 0.26413690476190466  8.645833333333334 0  10 0  C 11.354166666666668 0  12.648809523809526 0.26413690476190466  13.883928571428573 0.792410714285714  C 15.11904761904762 1.3206845238095233  16.183035714285715 2.03125  17.075892857142858 2.924107142857142  C 17.968750000000004 3.816964285714286  18.679315476190478 4.88095238095238  19.207589285714285 6.116071428571428  C 19.7358630952381 7.3511904761904745  20 8.645833333333332  20 10  C 20 11.34672619047619  19.737723214285715 12.63764880952381  19.213169642857142 13.872767857142856  C 18.688616071428573 15.107886904761907  17.979910714285715 16.171875  17.087053571428573 17.064732142857146  C 16.194196428571427 17.957589285714285  15.130208333333336 18.67001488095238  13.895089285714286 19.202008928571427  C 12.659970238095239 19.734002976190478  11.361607142857142 20  10 20  C 8.638392857142858 20  7.340029761904763 19.735863095238095  6.1049107142857135 19.207589285714285  C 4.869791666666667 18.679315476190478  3.8076636904761907 17.96688988095238  2.9185267857142856 17.0703125  C 2.029389880952381 16.17373511904762  1.3206845238095237 15.109747023809524  0.7924107142857142 13.878348214285714  C 0.2641369047619047 12.646949404761902  0 11.354166666666664  0 10  C 0 8.645833333333332  0.2641369047619047 7.3511904761904745  0.7924107142857142 6.116071428571428  C 1.3206845238095237 4.88095238095238  2.03125 3.816964285714286  2.9241071428571432 2.924107142857142  C 3.8169642857142856 2.03125  4.880952380952381 1.3206845238095233  6.116071428571429 0.792410714285714  Z M 13.493303571428573 11.428571428571427  C 15.279017857142858 11.428571428571427  16.417410714285715 12.645089285714286  16.908482142857142 15.078125  C 18.0171130952381 13.552827380952381  18.571428571428573 11.860119047619047  18.571428571428573 10  C 18.571428571428573 8.839285714285714  18.344494047619047 7.730654761904761  17.890625 6.674107142857142  C 17.436755952380953 5.617559523809524  16.82663690476191 4.706101190476188  16.060267857142858 3.939732142857142  C 15.293898809523812 3.1733630952380953  14.382440476190476 2.5632440476190466  13.325892857142858 2.109375  C 12.269345238095239 1.6555059523809512  11.160714285714286 1.428571428571428  10 1.428571428571428  C 8.839285714285714 1.428571428571428  7.730654761904763 1.6555059523809512  6.674107142857143 2.109375  C 5.617559523809525 2.5632440476190466  4.706101190476192 3.1733630952380953  3.9397321428571432 3.939732142857142  C 3.173363095238096 4.706101190476188  2.5632440476190474 5.617559523809524  2.109375 6.674107142857142  C 1.6555059523809526 7.730654761904761  1.4285714285714284 8.839285714285714  1.4285714285714284 10  C 1.4285714285714284 11.860119047619047  1.9828869047619049 13.552827380952381  3.0915178571428568 15.078125  C 3.5825892857142856 12.645089285714286  4.720982142857143 11.428571428571427  6.506696428571429 11.428571428571427  C 7.48139880952381 12.380952380952381  8.645833333333334 12.857142857142856  10 12.857142857142856  C 11.354166666666668 12.857142857142856  12.51860119047619 12.380952380952381  13.493303571428573 11.428571428571427  Z M 13.030133928571427 10.887276785714286  C 13.8671875 10.050223214285714  14.285714285714286 9.040178571428573  14.285714285714286 7.857142857142858  C 14.285714285714286 6.674107142857142  13.8671875 5.6640625  13.030133928571427 4.827008928571428  C 12.193080357142858 3.989955357142858  11.183035714285714 3.571428571428572  10 3.571428571428572  C 8.816964285714286 3.571428571428572  7.806919642857143 3.989955357142858  6.969866071428571 4.827008928571428  C 6.1328125 5.6640625  5.7142857142857135 6.674107142857142  5.7142857142857135 7.857142857142858  C 5.7142857142857135 9.040178571428573  6.1328125 10.050223214285714  6.969866071428571 10.887276785714286  C 7.806919642857143 11.724330357142856  8.816964285714286 12.142857142857144  10 12.142857142857144  C 11.183035714285714 12.142857142857144  12.193080357142858 11.724330357142856  13.030133928571427 10.887276785714286  Z " fill-rule="nonzero" fill="#ffffff" stroke="none" />
  </g>
</svg>