<?xml version="1.0" encoding="utf-8"?>
<svg version="1.1" xmlns:xlink="http://www.w3.org/1999/xlink" width="20px" height="20px" xmlns="http://www.w3.org/2000/svg">
  <g transform="matrix(1 0 0 1 -90 0 )">
    <path d="M 100 0.5  C 105.32 0.5  109.5 4.68  109.5 10  C 109.5 15.32  105.32 19.5  100 19.5  C 94.68 19.5  90.5 15.32  90.5 10  C 90.5 4.68  94.68 0.5  100 0.5  Z " fill-rule="nonzero" fill="#ffffff" stroke="none" fill-opacity="0" />
    <path d="M 100 0.5  C 105.32 0.5  109.5 4.68  109.5 10  C 109.5 15.32  105.32 19.5  100 19.5  C 94.68 19.5  90.5 15.32  90.5 10  C 90.5 4.68  94.68 0.5  100 0.5  Z " stroke-width="1" stroke-dasharray="3,1" stroke="#d7d7d7" fill="none" stroke-dashoffset="0.5" />
  </g>
</svg>