<?xml version="1.0" encoding="utf-8"?>
<svg version="1.1" xmlns:xlink="http://www.w3.org/1999/xlink" width="20px" height="20px" xmlns="http://www.w3.org/2000/svg">
  <g transform="matrix(1 0 0 1 -420 0 )">
    <path d="M 14.1056524251302 2.70858965090461  C 14.1386572875434 2.40497960135691  14.3297554728733 2.24770272018915  14.5786121827257 2.21299548334704  C 14.9608085531684 2.15952758778783  15.310660156467 2.22331384272204  15.6324576213108 2.43186987294408  C 16.2797998045857 2.86525923288489  16.8696668165145 3.37002149016295  17.3893067628038 3.93710032894737  C 17.8983952917412 4.49437589403183  18.3397973275609 5.10406343372572  18.7052108765191 5.75469580078125  C 19.0723309658234 6.40846405252486  19.3525844017136 7.10278446561686  19.5395739542101 7.82180807339638  C 19.7302882604185 8.5455558226417  19.8269386226011 9.28866924355862  19.8273764038629 10.0346281609786  C 19.8273764038629 11.3226518297012  19.567518073206 12.5311511422697  19.0478014118924 13.6601260986842  C 18.5280847505787 14.7891010550987  17.8253010862992 15.7723681963405  16.9394504190538 16.6099275224095  C 16.05337971318 17.4479037636376  15.0137263590133 18.1125523296327  13.8204903565538 18.6038732203947  C 12.6272543540943 19.0951941111568  11.3499659493634 19.3412714587445  9.98862514236112 19.3421052631579  C 8.64180648451968 19.3421052631579  7.37188916681134 19.0962363667078  6.17887318923612 18.6044985738076  C 5.01352256789927 18.1305056198145  3.9520829542399 17.4541131542532  3.0493515625 16.6102401893503  C 2.15143469775546 15.7655784860393  1.43537354556351 14.7636285725593  0.941000569661458 13.6601260986842  C 0.42854498965567 12.5313595999178  0.172317199652777 11.3228602873492  0.172317199652777 10.0346281609786  C 0.171508492719457 9.30658824697201  0.26359996830535 8.58112507217978  0.446587646484375 7.87402526212994  C 0.626023358032185 7.17676777509652  0.887519315581564 6.50079856630539  1.22616263845486 5.85881747286184  C 1.56578672040105 5.21757424841752  1.98613888873744 4.61765943023011  2.47803729253473 4.07217709827303  C 2.97591110010779 3.5180785058841  3.53550928179492 3.0165525482275  4.14709348546007 2.57632698129112  C 4.44596000133388 2.36518875531105  4.82113562271345 2.27520659625042  5.19004732248264 2.32618482730263  C 5.43230305967882 2.35588921792763  5.68214990234375 2.56663397532895  5.70393312586806 2.82177897553454  C 5.74023848480903 3.24920939555921  5.41976121006945 3.58752666262335  5.05835791015625 3.84829986245888  C 3.97381793894676 4.59872633751371  3.14308540176505 5.51977061691338  2.56616029861111 6.6114327006579  C 1.98923519545718 7.70309478440241  1.70110269495081 8.87605306208881  1.70176279709202 10.1303075337171  C 1.69542140211855 11.1756488337324  1.91512702183333 12.2111454821177  2.34733801280382 13.1729742302632  C 2.76224848912626 14.104289447154  3.36316541812745 14.9508982187515  4.11705906163195 15.6662662160773  C 4.87421191611611 16.3813205841301  5.76773033925868 16.9537472191958  6.75018745941841 17.3531624113898  C 8.80398013733286 18.1842872174699  11.1270633400977 18.1842872174699  13.1808560180122 17.3531624113898  C 15.1654392328804 16.5499784625404  16.7467764992145 15.0528773961502  17.5959172567274 13.1732869165296  C 18.0365635210112 12.2134746468087  18.2603996224413 11.1769493896565  18.2530441690538 10.1303075337171  C 18.2571894768514 8.87501184438143  17.9382893815146 7.63767827318304  17.3239571330295 6.52544633408717  C 16.7130074040114 5.40236489526228  15.8170287738401 4.44072493681002  14.7165725301649 3.72698090563322  C 14.3376766358507 3.48277961800987  14.0597756551649 3.13602005160362  14.1056524251302 2.70858965090461  Z M 9.78184963986545 9.51982083403648  C 9.30597050259721 9.51982083403648  8.91762501082021 9.1589970692959  8.90837579340278 8.70824936389803  L 8.90837579340278 1.48555292722039  C 8.90837579340278 1.02874486906823  9.29916832438266 0.658067647641732  9.78135457356771 0.657895045230263  C 10.2634120497532 0.657895045230263  10.6549592583435 1.02792898762282  10.6553234863281 1.48461488733553  L 10.6553234863281 8.70824936389803  C 10.6460742689107 9.1589970692959  10.2577287771337 9.51982083403648  9.78184963986545 9.51982083403648  Z " fill-rule="nonzero" fill="#d7d7d7" stroke="none" transform="matrix(1 0 0 1 420 0 )" />
  </g>
</svg>