<?xml version="1.0" encoding="utf-8"?>
<svg version="1.1" xmlns:xlink="http://www.w3.org/1999/xlink" width="20px" height="20px" xmlns="http://www.w3.org/2000/svg">
  <g transform="matrix(1 0 0 1 -380 0 )">
    <path d="M 6.59343955426357 10.8159926757812  L 5.95863598837209 13.994814921875  L 9.11281620155039 13.355051953125  L 19.8449639728682 2.53905927734375  L 17.3156685077519 0  L 6.59343955426357 10.8159926757812  Z M 19.1506475581395 6.347648203125  L 17.5834762596899 7.93705931640625  C 17.7625197148193 8.61134485215022  17.8531973006471 9.30635268419536  17.8531973006471 10.0043644196604  C 17.8531973006471 14.4210060482123  14.3005568429312 18.0014015095041  9.9181527463835 18.0014015095041  C 5.53574864983584 18.0014015095041  1.98310819211993 14.4210060482123  1.98310819211993 10.0043644196604  C 1.98310819211993 5.58772279110845  5.53574864983584 2.00732732981663  9.9181527463835 2.00732732981663  C 10.6107535381627 2.00732732981663  11.3003737125951 2.09871333428372  11.9694322286822 2.27915556640625  L 13.5465223449612 0.6997407421875  C 12.3910027992691 0.242137333665817  11.1605098940029 0.00723265126319364  9.91898165907028 0.00723265126319364  C 4.44097653570991 0.00723265126319364  0.000175961395859646 4.48272698006408  0.000175961395859646 10.0035290184507  C 0.000175961395859646 15.5243310568373  4.44097653570991 19.9998253856382  9.91898165907028 19.9998253856382  C 15.3969867824306 19.9998253856382  19.8377873567447 15.5243310568373  19.8377873567447 10.0035290184507  C 19.8377873567447 8.75230135580704  19.6047036452026 7.51219523603117  19.1506475581395 6.347648203125  Z " fill-rule="nonzero" fill="#d7d7d7" stroke="none" transform="matrix(1 0 0 1 380 0 )" />
  </g>
</svg>