<?xml version="1.0" encoding="utf-8"?>
<svg version="1.1" xmlns:xlink="http://www.w3.org/1999/xlink" width="6px" height="10px" xmlns="http://www.w3.org/2000/svg">
  <g transform="matrix(1 0 0 1 -162 -10 )">
    <path d="M 5.89690721649487 4.7695390781563  C 5.96563573883162 4.83633934535738  6 4.91315965263863  6 5  C 6 5.08684034736137  5.96563573883162 5.16366065464263  5.89690721649487 5.23046092184371  L 1.09278350515461 9.89979959919838  C 1.02405498281786 9.96659986639946  0.945017182130584 10  0.855670103092791 10  C 0.766323024054998 10  0.687285223367667 9.96659986639946  0.618556701030911 9.89979959919838  L 0.103092783505133 9.39879759519039  C 0.0343642611683777 9.33199732798931  0 9.25517702070808  0 9.16833667334669  C 0 9.08149632598531  0.0343642611683777 9.00467601870405  0.103092783505133 8.93787575150301  L 4.15463917525773 5  L 0.103092783505133 1.06212424849699  C 0.0343642611683777 0.995323981295945  0 0.918503674014689  0 0.831663326653308  C 0 0.744822979291916  0.0343642611683777 0.668002672010685  0.103092783505133 0.601202404809614  L 0.618556701030911 0.100200400801617  C 0.687285223367667 0.0334001336005354  0.766323024054998 0  0.855670103092791 0  C 0.945017182130584 0  1.02405498281786 0.0334001336005354  1.09278350515461 0.100200400801617  L 5.89690721649487 4.7695390781563  Z " fill-rule="nonzero" fill="#c0c0c0" stroke="none" transform="matrix(1 0 0 1 162 10 )" />
  </g>
</svg>