<?xml version="1.0" encoding="utf-8"?>
<svg version="1.1" xmlns:xlink="http://www.w3.org/1999/xlink" width="12px" height="12px" viewBox="481 550  12 12" xmlns="http://www.w3.org/2000/svg">
  <path d="M 487 550  C 490.36 550  493 552.64  493 556  C 493 559.36  490.36 562  487 562  C 483.64 562  481 559.36  481 556  C 481 552.64  483.64 550  487 550  Z " fill-rule="nonzero" fill="#f0f0f0" stroke="none" />
  <path d="M 487 550.5  C 490.08 550.5  492.5 552.92  492.5 556  C 492.5 559.08  490.08 561.5  487 561.5  C 483.92 561.5  481.5 559.08  481.5 556  C 481.5 552.92  483.92 550.5  487 550.5  Z " stroke-width="1" stroke="#aaaaaa" fill="none" />
  <path d="M 487 559  C 485.32 559  484 557.68  484 556  C 484 554.32  485.32 553  487 553  C 488.68 553  490 554.32  490 556  C 490 557.68  488.68 559  487 559  " fill-rule="nonzero" fill="#aaaaaa" stroke="none" />
</svg>