<?xml version="1.0" encoding="utf-8"?>
<svg version="1.1" xmlns:xlink="http://www.w3.org/1999/xlink" width="366px" height="157px" xmlns="http://www.w3.org/2000/svg">
  <g transform="matrix(1 0 0 1 -3 173 )">
    <path d="M 3 -173  L 369 -173  L 369 -16  L 3 -16  L 3 -173  " fill-rule="nonzero" fill="#cccccc" stroke="none" />
    <path d="M 14 -162  L 358 -162  L 358 -27  L 14 -27  L 14 -162  " fill-rule="nonzero" fill="#ffffff" stroke="none" />
    <path d="M 205.095 -125.9  C 198.501 -125.9  193.32 -131.081  193.32 -137.675  C 193.32 -144.269  198.501 -149.45  205.095 -149.45  C 211.689 -149.45  216.87 -144.269  216.87 -137.675  C 216.87 -131.081  211.689 -125.9  205.095 -125.9  " fill-rule="nonzero" fill="#cccccc" stroke="none" />
    <path d="M 18 -31  L 18 -100.85  L 102 -132.6  L 219.6 -63.6868852459016  L 286.8 -113.55  L 354 -63.6868852459016  L 354 -31  L 18 -31  " fill-rule="nonzero" fill="#169bd5" stroke="none" />
  </g>
</svg>