<?xml version="1.0" encoding="utf-8"?>
<svg version="1.1" xmlns:xlink="http://www.w3.org/1999/xlink" width="120px" height="80px" xmlns="http://www.w3.org/2000/svg">
  <g>
    <path d="M 0 0  L 120 0  L 120 80  L 0 80  L 0 0  " fill-rule="nonzero" fill="#cccccc" stroke="none" />
    <path d="M 6 6  L 114 6  L 114 74  L 6 74  L 6 6  " fill-rule="nonzero" fill="#ffffff" stroke="none" />
    <path d="M 68.4 24  C 65.04 24  62.400000000000006 21.36  62.400000000000006 18  C 62.400000000000006 14.64  65.04 12  68.4 12  C 71.76 12  74.4 14.64  74.4 18  C 74.4 21.36  71.76 24  68.4 24  " fill-rule="nonzero" fill="#cccccc" stroke="none" />
    <path d="M 8 72  L 8 36.8  L 34 20.799999999999997  L 70.4 46.400000000000006  L 91.2 30.4  L 112 46.400000000000006  L 112 72  L 8 72  " fill-rule="nonzero" fill="#169bd5" stroke="none" />
  </g>
</svg>