<?xml version="1.0" encoding="utf-8"?>
<svg version="1.1" xmlns:xlink="http://www.w3.org/1999/xlink" width="205px" height="83px" xmlns="http://www.w3.org/2000/svg">
  <g>
    <path d="M 0 0  L 205 0  L 205 83  L 0 83  L 0 0  " fill-rule="nonzero" fill="#cccccc" stroke="none" />
    <path d="M 6 6  L 199 6  L 199 77  L 6 77  L 6 6  " fill-rule="nonzero" fill="#ffffff" stroke="none" />
    <path d="M 112.825 24.9  C 109.339 24.9  106.6 22.161  106.6 18.675  C 106.6 15.189  109.339 12.45  112.825 12.45  C 116.311 12.45  119.05 15.189  119.05 18.675  C 119.05 22.161  116.311 24.9  112.825 24.9  " fill-rule="nonzero" fill="#cccccc" stroke="none" />
    <path d="M 8 75  L 8 38.15  L 55.25 21.4  L 121.4 58.7239024390244  L 159.2 31.45  L 197 58.7239024390244  L 197 75  L 8 75  " fill-rule="nonzero" fill="#169bd5" stroke="none" />
  </g>
</svg>