<?xml version="1.0" encoding="utf-8"?>
<svg version="1.1" xmlns:xlink="http://www.w3.org/1999/xlink" width="144px" height="92px" xmlns="http://www.w3.org/2000/svg">
  <g transform="matrix(1 0 0 1 0 47 )">
    <path d="M 0 -47  L 144 -47  L 144 45  L 0 45  L 0 -47  " fill-rule="nonzero" fill="#cccccc" stroke="none" />
    <path d="M 6 -41  L 138 -41  L 138 39  L 6 39  L 6 -41  " fill-rule="nonzero" fill="#ffffff" stroke="none" />
    <path d="M 81.78 -19.4  C 77.916 -19.4  74.88 -22.436  74.88 -26.3  C 74.88 -30.164  77.916 -33.2  81.78 -33.2  C 85.644 -33.2  88.68 -30.164  88.68 -26.3  C 88.68 -22.436  85.644 -19.4  81.78 -19.4  " fill-rule="nonzero" fill="#cccccc" stroke="none" />
    <path d="M 9 36  L 9 -5.25  L 40.75 -24  L 85.2 7.25  L 110.6 -12.75  L 136 7.25  L 136 36  L 9 36  " fill-rule="nonzero" fill="#169bd5" stroke="none" />
  </g>
</svg>