<?xml version="1.0" encoding="utf-8"?>
<svg version="1.1" xmlns:xlink="http://www.w3.org/1999/xlink" width="12px" height="12px" viewBox="120 408  12 12" xmlns="http://www.w3.org/2000/svg">
  <path d="M 126 408  C 129.36 408  132 410.64  132 414  C 132 417.36  129.36 420  126 420  C 122.64 420  120 417.36  120 414  C 120 410.64  122.64 408  126 408  Z " fill-rule="nonzero" fill="#ffffff" stroke="none" fill-opacity="0" />
  <path d="M 126 408.5  C 129.08 408.5  131.5 410.92  131.5 414  C 131.5 417.08  129.08 419.5  126 419.5  C 122.92 419.5  120.5 417.08  120.5 414  C 120.5 410.92  122.92 408.5  126 408.5  Z " stroke-width="1" stroke="#aaaaaa" fill="none" />
  <path d="M 126 417  C 124.32 417  123 415.68  123 414  C 123 412.32  124.32 411  126 411  C 127.68 411  129 412.32  129 414  C 129 415.68  127.68 417  126 417  " fill-rule="nonzero" fill="#aaaaaa" stroke="none" />
</svg>