<?xml version="1.0" encoding="utf-8"?>
<svg version="1.1" xmlns:xlink="http://www.w3.org/1999/xlink" width="12px" height="12px" viewBox="180 408  12 12" xmlns="http://www.w3.org/2000/svg">
  <path d="M 186 408  C 189.36 408  192 410.64  192 414  C 192 417.36  189.36 420  186 420  C 182.64 420  180 417.36  180 414  C 180 410.64  182.64 408  186 408  Z " fill-rule="nonzero" fill="#ffffff" stroke="none" fill-opacity="0" />
  <path d="M 186 408.5  C 189.08 408.5  191.5 410.92  191.5 414  C 191.5 417.08  189.08 419.5  186 419.5  C 182.92 419.5  180.5 417.08  180.5 414  C 180.5 410.92  182.92 408.5  186 408.5  Z " stroke-width="1" stroke="#aaaaaa" fill="none" />
  <path d="M 186 417  C 184.32 417  183 415.68  183 414  C 183 412.32  184.32 411  186 411  C 187.68 411  189 412.32  189 414  C 189 415.68  187.68 417  186 417  " fill-rule="nonzero" fill="#aaaaaa" stroke="none" />
</svg>