<?xml version="1.0" encoding="utf-8"?>
<svg version="1.1" xmlns:xlink="http://www.w3.org/1999/xlink" width="12px" height="12px" viewBox="180 608  12 12" xmlns="http://www.w3.org/2000/svg">
  <path d="M 186 608  C 189.36 608  192 610.64  192 614  C 192 617.36  189.36 620  186 620  C 182.64 620  180 617.36  180 614  C 180 610.64  182.64 608  186 608  Z " fill-rule="nonzero" fill="#ffffff" stroke="none" fill-opacity="0" />
  <path d="M 186 608.5  C 189.08 608.5  191.5 610.92  191.5 614  C 191.5 617.08  189.08 619.5  186 619.5  C 182.92 619.5  180.5 617.08  180.5 614  C 180.5 610.92  182.92 608.5  186 608.5  Z " stroke-width="1" stroke="#aaaaaa" fill="none" />
  <path d="M 186 617  C 184.32 617  183 615.68  183 614  C 183 612.32  184.32 611  186 611  C 187.68 611  189 612.32  189 614  C 189 615.68  187.68 617  186 617  " fill-rule="nonzero" fill="#aaaaaa" stroke="none" />
</svg>