<?xml version="1.0" encoding="utf-8"?>
<svg version="1.1" xmlns:xlink="http://www.w3.org/1999/xlink" width="20px" height="20px" xmlns="http://www.w3.org/2000/svg">
  <g transform="matrix(1 0 0 1 -873 -75 )">
    <path d="M 14.4661458333334 9.28385416666663  C 14.5963541666666 9.42274305555554  14.6267361111111 9.57465277777783  14.5572916666666 9.73958333333337  C 14.4878472222222 9.91319444444446  14.3576388888889 10  14.1666666666666 10  L 11.6666666666666 10  L 11.6666666666666 14.5833333333334  C 11.6666666666666 14.7048611111111  11.6276041666666 14.8046875  11.5494791666666 14.8828125  C 11.4713541666666 14.9609375  11.3715277777778 15  11.25 15  L 8.75 15  C 8.62847222222223 15  8.52864583333331 14.9609375  8.45052083333331 14.8828125  C 8.37239583333331 14.8046875  8.33333333333331 14.7048611111111  8.33333333333331 14.5833333333334  L 8.33333333333331 10  L 5.83333333333331 10  C 5.71180555555554 10  5.61197916666669 9.9609375  5.53385416666669 9.8828125  C 5.45572916666669 9.8046875  5.41666666666669 9.70486111111109  5.41666666666669 9.58333333333337  C 5.41666666666669 9.47916666666663  5.46006944444446 9.375  5.546875 9.27083333333337  L 9.70052083333331 5.1171875  C 9.79600694444446 5.0390625  9.89583333333331 5  10 5  C 10.1041666666666 5  10.2039930555555 5.0390625  10.2994791666666 5.1171875  L 14.4661458333334 9.28385416666663  Z M 13.5546875 3.8671875  C 12.4696180555555 3.23350694444446  11.2847222222222 2.91666666666663  10 2.91666666666663  C 8.71527777777777 2.91666666666663  7.53038194444446 3.23350694444446  6.4453125 3.8671875  C 5.36024305555554 4.50086805555554  4.50086805555554 5.36024305555554  3.8671875 6.4453125  C 3.23350694444446 7.53038194444446  2.91666666666669 8.71527777777783  2.91666666666669 10  C 2.91666666666669 11.2847222222222  3.23350694444446 12.4696180555555  3.8671875 13.5546875  C 4.50086805555554 14.6397569444445  5.36024305555554 15.4991319444445  6.4453125 16.1328125  C 7.53038194444446 16.7664930555555  8.71527777777777 17.0833333333334  10 17.0833333333334  C 11.2847222222222 17.0833333333334  12.4696180555555 16.7664930555555  13.5546875 16.1328125  C 14.6397569444445 15.4991319444445  15.4991319444445 14.6397569444445  16.1328125 13.5546875  C 16.7664930555555 12.4696180555555  17.0833333333334 11.2847222222222  17.0833333333334 10  C 17.0833333333334 8.71527777777783  16.7664930555555 7.53038194444446  16.1328125 6.4453125  C 15.4991319444445 5.36024305555554  14.6397569444445 4.50086805555554  13.5546875 3.8671875  Z M 18.6588541666666 4.98046875  C 19.5529513888889 6.51258680555554  20 8.18576388888891  20 10  C 20 11.8142361111111  19.5529513888889 13.4874131944445  18.6588541666666 15.01953125  C 17.7647569444445 16.5516493055555  16.5516493055555 17.7647569444445  15.01953125 18.6588541666666  C 13.4874131944445 19.5529513888889  11.8142361111111 20  10 20  C 8.18576388888891 20  6.51258680555554 19.5529513888889  4.98046875 18.6588541666666  C 3.44835069444446 17.7647569444445  2.23524305555554 16.5516493055555  1.34114583333331 15.01953125  C 0.447048611111086 13.4874131944445  0 11.8142361111111  0 10  C 0 8.18576388888891  0.447048611111086 6.51258680555554  1.34114583333331 4.98046875  C 2.23524305555554 3.44835069444446  3.44835069444446 2.23524305555554  4.98046875 1.34114583333337  C 6.51258680555554 0.447048611111086  8.18576388888891 0  10 0  C 11.8142361111111 0  13.4874131944445 0.447048611111086  15.01953125 1.34114583333337  C 16.5516493055555 2.23524305555554  17.7647569444445 3.44835069444446  18.6588541666666 4.98046875  Z " fill-rule="nonzero" fill="#6b6b6b" stroke="none" transform="matrix(1 0 0 1 873 75 )" />
  </g>
</svg>