<?xml version="1.0" encoding="utf-8"?>
<svg version="1.1" xmlns:xlink="http://www.w3.org/1999/xlink" width="12px" height="12px" viewBox="288 72  12 12" xmlns="http://www.w3.org/2000/svg">
  <path d="M 294 72  C 297.36 72  300 74.64  300 78  C 300 81.36  297.36 84  294 84  C 290.64 84  288 81.36  288 78  C 288 74.64  290.64 72  294 72  Z " fill-rule="nonzero" fill="#ffffff" stroke="none" fill-opacity="0" />
  <path d="M 294 72.5  C 297.08 72.5  299.5 74.92  299.5 78  C 299.5 81.08  297.08 83.5  294 83.5  C 290.92 83.5  288.5 81.08  288.5 78  C 288.5 74.92  290.92 72.5  294 72.5  Z " stroke-width="1" stroke="#aaaaaa" fill="none" />
  <path d="M 294 81  C 292.32 81  291 79.68  291 78  C 291 76.32  292.32 75  294 75  C 295.68 75  297 76.32  297 78  C 297 79.68  295.68 81  294 81  " fill-rule="nonzero" fill="#aaaaaa" stroke="none" />
</svg>