<?xml version="1.0" encoding="utf-8"?>
<svg version="1.1" xmlns:xlink="http://www.w3.org/1999/xlink" width="12px" height="12px" viewBox="100 72  12 12" xmlns="http://www.w3.org/2000/svg">
  <path d="M 106 72  C 109.36 72  112 74.64  112 78  C 112 81.36  109.36 84  106 84  C 102.64 84  100 81.36  100 78  C 100 74.64  102.64 72  106 72  Z " fill-rule="nonzero" fill="#ffffff" stroke="none" fill-opacity="0" />
  <path d="M 106 72.5  C 109.08 72.5  111.5 74.92  111.5 78  C 111.5 81.08  109.08 83.5  106 83.5  C 102.92 83.5  100.5 81.08  100.5 78  C 100.5 74.92  102.92 72.5  106 72.5  Z " stroke-width="1" stroke="#aaaaaa" fill="none" />
  <path d="M 106 81  C 104.32 81  103 79.68  103 78  C 103 76.32  104.32 75  106 75  C 107.68 75  109 76.32  109 78  C 109 79.68  107.68 81  106 81  " fill-rule="nonzero" fill="#aaaaaa" stroke="none" />
</svg>