<?xml version="1.0" encoding="utf-8"?>
<svg version="1.1" xmlns:xlink="http://www.w3.org/1999/xlink" width="100px" height="60px" xmlns="http://www.w3.org/2000/svg">
  <g transform="matrix(1 0 0 1 -150 -115 )">
    <path d="M 200 174.394826672682  C 180.2 159.627585644727  150.5 150.767241027954  150.5 136  C 150.5 128.385714285714  160.4 115.5  200 115.5  C 239.6 115.5  249.5 128.385714285714  249.5 136  C 249.5 150.767241027954  219.8 159.627585644727  200 174.394826672682  Z " fill-rule="nonzero" fill="#f2f2f2" stroke="none" />
    <path d="M 200 175  C 180 160  150 151  150 136  C 150 128.2  160 115  200 115  C 240 115  250 128.2  250 136  C 250 151  220 160  200 175  Z M 200 173.789653345363  C 219.6 159.255171289454  249 150.534482055909  249 136  C 249 128.571428571429  239.2 116  200 116  C 160.8 116  151 128.571428571429  151 136  C 151 150.534482055909  180.4 159.255171289454  200 173.789653345363  Z " fill-rule="nonzero" fill="#aeaeae" stroke="none" />
  </g>
</svg>