<?xml version="1.0" encoding="utf-8"?>
<svg version="1.1" xmlns:xlink="http://www.w3.org/1999/xlink" width="12px" height="12px" viewBox="240 119  12 12" xmlns="http://www.w3.org/2000/svg">
  <path d="M 246 119  C 249.36 119  252 121.64  252 125  C 252 128.36  249.36 131  246 131  C 242.64 131  240 128.36  240 125  C 240 121.64  242.64 119  246 119  Z " fill-rule="nonzero" fill="#ffffff" stroke="none" fill-opacity="0" />
  <path d="M 246 119.5  C 249.08 119.5  251.5 121.92  251.5 125  C 251.5 128.08  249.08 130.5  246 130.5  C 242.92 130.5  240.5 128.08  240.5 125  C 240.5 121.92  242.92 119.5  246 119.5  Z " stroke-width="1" stroke="#aaaaaa" fill="none" />
  <path d="M 246 128  C 244.32 128  243 126.68  243 125  C 243 123.32  244.32 122  246 122  C 247.68 122  249 123.32  249 125  C 249 126.68  247.68 128  246 128  " fill-rule="nonzero" fill="#aaaaaa" stroke="none" />
</svg>