<?xml version="1.0" encoding="utf-8"?>
<svg version="1.1" xmlns:xlink="http://www.w3.org/1999/xlink" width="12px" height="12px" viewBox="250 409  12 12" xmlns="http://www.w3.org/2000/svg">
  <path d="M 256 409  C 259.36 409  262 411.64  262 415  C 262 418.36  259.36 421  256 421  C 252.64 421  250 418.36  250 415  C 250 411.64  252.64 409  256 409  Z " fill-rule="nonzero" fill="#f0f0f0" stroke="none" />
  <path d="M 256 409.5  C 259.08 409.5  261.5 411.92  261.5 415  C 261.5 418.08  259.08 420.5  256 420.5  C 252.92 420.5  250.5 418.08  250.5 415  C 250.5 411.92  252.92 409.5  256 409.5  Z " stroke-width="1" stroke="#aaaaaa" fill="none" />
  <path d="M 256 418  C 254.32 418  253 416.68  253 415  C 253 413.32  254.32 412  256 412  C 257.68 412  259 413.32  259 415  C 259 416.68  257.68 418  256 418  " fill-rule="nonzero" fill="#aaaaaa" stroke="none" />
</svg>