<?xml version="1.0" encoding="utf-8"?>
<svg version="1.1" xmlns:xlink="http://www.w3.org/1999/xlink" width="12px" height="12px" viewBox="110 62  12 12" xmlns="http://www.w3.org/2000/svg">
  <path d="M 116 62  C 119.36 62  122 64.64  122 68  C 122 71.36  119.36 74  116 74  C 112.64 74  110 71.36  110 68  C 110 64.64  112.64 62  116 62  Z " fill-rule="nonzero" fill="#ffffff" stroke="none" fill-opacity="0" />
  <path d="M 116 62.5  C 119.08 62.5  121.5 64.92  121.5 68  C 121.5 71.08  119.08 73.5  116 73.5  C 112.92 73.5  110.5 71.08  110.5 68  C 110.5 64.92  112.92 62.5  116 62.5  Z " stroke-width="1" stroke="#aaaaaa" fill="none" />
  <path d="M 116 71  C 114.32 71  113 69.68  113 68  C 113 66.32  114.32 65  116 65  C 117.68 65  119 66.32  119 68  C 119 69.68  117.68 71  116 71  " fill-rule="nonzero" fill="#aaaaaa" stroke="none" />
</svg>