<?xml version="1.0" encoding="utf-8"?>
<svg version="1.1" xmlns:xlink="http://www.w3.org/1999/xlink" width="30px" height="30px" xmlns="http://www.w3.org/2000/svg">
  <g transform="matrix(1 0 0 1 -185 -70 )">
    <path d="M 7.470703125 2.01171875  C 9.76888020833337 0.670572916666657  12.2786458333334 0  15 0  C 17.7213541666666 0  20.2311197916666 0.670572916666657  22.529296875 2.01171875  C 24.8274739583334 3.35286458333334  26.6471354166666 5.17252604166666  27.98828125 7.470703125  C 29.3294270833334 9.76888020833334  30 12.2786458333333  30 15  C 30 17.7213541666667  29.3294270833334 20.2311197916667  27.98828125 22.529296875  C 26.6471354166666 24.8274739583333  24.8274739583334 26.6471354166667  22.529296875 27.98828125  C 20.2311197916666 29.3294270833333  17.7213541666666 30  15 30  C 12.2786458333334 30  9.76888020833337 29.3294270833333  7.470703125 27.98828125  C 5.17252604166663 26.6471354166667  3.35286458333337 24.8274739583333  2.01171875 22.529296875  C 0.670572916666629 20.2311197916667  0 17.7213541666667  0 15  C 0 12.2786458333333  0.670572916666629 9.76888020833334  2.01171875 7.470703125  C 3.35286458333337 5.17252604166666  5.17252604166663 3.35286458333334  7.470703125 2.01171875  Z M 17.32421875 24.814453125  C 17.44140625 24.6907552083333  17.5 24.5377604166667  17.5 24.35546875  L 17.5 20.64453125  C 17.5 20.4622395833333  17.44140625 20.3092447916667  17.32421875 20.185546875  C 17.20703125 20.0618489583333  17.0638020833334 20  16.89453125 20  L 13.14453125 20  C 12.9752604166666 20  12.8255208333334 20.0651041666667  12.6953125 20.1953125  C 12.5651041666666 20.3255208333333  12.5 20.4752604166667  12.5 20.64453125  L 12.5 24.35546875  C 12.5 24.5247395833333  12.5651041666666 24.6744791666667  12.6953125 24.8046875  C 12.8255208333334 24.9348958333333  12.9752604166666 25  13.14453125 25  L 16.89453125 25  C 17.0638020833334 25  17.20703125 24.9381510416667  17.32421875 24.814453125  Z M 17.255859375 17.978515625  C 17.3795572916666 17.880859375  17.4479166666666 17.7669270833333  17.4609375 17.63671875  L 17.8125 5.5078125  C 17.8125 5.3515625  17.7473958333334 5.234375  17.6171875 5.15625  C 17.4869791666666 5.05208333333334  17.3307291666666 5  17.1484375 5  L 12.8515625 5  C 12.6692708333334 5  12.5130208333334 5.05208333333334  12.3828125 5.15625  C 12.2526041666666 5.234375  12.1875 5.3515625  12.1875 5.5078125  L 12.51953125 17.63671875  C 12.51953125 17.7669270833333  12.5846354166666 17.880859375  12.71484375 17.978515625  C 12.8450520833334 18.076171875  13.0013020833334 18.125  13.18359375 18.125  L 16.796875 18.125  C 16.9791666666666 18.125  17.1321614583334 18.076171875  17.255859375 17.978515625  Z " fill-rule="nonzero" fill="#6b6b6b" stroke="none" transform="matrix(1 0 0 1 185 70 )" />
  </g>
</svg>