<?xml version="1.0" encoding="utf-8"?>
<svg version="1.1" xmlns:xlink="http://www.w3.org/1999/xlink" width="12px" height="12px" viewBox="250 79  12 12" xmlns="http://www.w3.org/2000/svg">
  <path d="M 256 79  C 259.36 79  262 81.64  262 85  C 262 88.36  259.36 91  256 91  C 252.64 91  250 88.36  250 85  C 250 81.64  252.64 79  256 79  Z " fill-rule="nonzero" fill="#f0f0f0" stroke="none" />
  <path d="M 256 79.5  C 259.08 79.5  261.5 81.92  261.5 85  C 261.5 88.08  259.08 90.5  256 90.5  C 252.92 90.5  250.5 88.08  250.5 85  C 250.5 81.92  252.92 79.5  256 79.5  Z " stroke-width="1" stroke="#aaaaaa" fill="none" />
  <path d="M 256 88  C 254.32 88  253 86.68  253 85  C 253 83.32  254.32 82  256 82  C 257.68 82  259 83.32  259 85  C 259 86.68  257.68 88  256 88  " fill-rule="nonzero" fill="#aaaaaa" stroke="none" />
</svg>