<?xml version="1.0" encoding="utf-8"?>
<svg version="1.1" xmlns:xlink="http://www.w3.org/1999/xlink" width="16px" height="16px" xmlns="http://www.w3.org/2000/svg">
  <defs>
    <mask fill="white" id="clip24">
      <path d="M 1.33321428571429 4.66660714285714  C 1.33339285714286 5.03339285714286  1.03339285714286 5.33339285714286  0.666607142857143 5.33339285714286  C 0.3 5.33339285714286  0 5.03339285714286  0 4.66678571428572  L 0 1.66678571428571  C 0 0.733392857142857  0.733392857142857 0  1.66660714285714 0  L 4.66660714285714 0  C 5.03321428571429 0  5.33321428571429 0.3  5.33321428571429 0.666607142857143  C 5.33321428571429 1.03321428571429  5.03321428571429 1.33321428571429  4.66660714285714 1.33321428571429  L 1.66660714285714 1.33321428571429  C 1.5 1.33321428571429  1.33321428571429 1.5  1.33321428571429 1.66660714285714  L 1.33321428571429 4.66660714285714  Z M 16 4.66678571428572  C 16 5.03339285714286  15.7 5.33339285714286  15.3333928571429 5.33339285714286  C 14.9667857142857 5.33339285714286  14.6667857142857 5.03339285714286  14.6667857142857 4.66678571428572  L 14.6667857142857 1.66678571428571  C 14.6667857142857 1.50017857142857  14.5 1.33339285714286  14.3333928571429 1.33339285714286  L 11.3333928571429 1.33339285714286  C 10.9667857142857 1.33339285714286  10.6667857142857 1.03339285714286  10.6667857142857 0.666785714285715  C 10.6667857142857 0.300178571428572  10.9667857142857 0.000178571428571774  11.3333928571429 0.000178571428571774  L 14.3333928571429 0.000178571428571774  C 15.2666071428571 0.000178571428571774  16 0.733571428571429  16 1.66678571428571  L 16 4.66678571428572  Z M 16 14.3333928571429  C 16 15.2666071428571  15.2666071428571 16  14.3333928571429 16  L 11.3333928571429 16  C 10.9667857142857 16  10.6667857142857 15.7  10.6667857142857 15.3333928571429  C 10.6667857142857 14.9667857142857  10.9667857142857 14.6667857142857  11.3333928571429 14.6667857142857  L 14.3333928571429 14.6667857142857  C 14.5 14.6667857142857  14.6667857142857 14.5  14.6667857142857 14.3333928571429  L 14.6667857142857 11.3333928571429  C 14.6667857142857 10.9667857142857  14.9667857142857 10.6667857142857  15.3333928571429 10.6667857142857  C 15.7 10.6667857142857  16 10.9667857142857  16 11.3333928571429  L 16 14.3333928571429  Z M 5.33321428571428 15.3333928571429  C 5.33339285714286 15.7  5.03339285714286 16  4.66660714285714 16  L 1.66660714285714 16  C 0.733392857142857 16  0 15.2666071428571  0 14.3333928571429  L 0 11.3333928571429  C 0 10.9667857142857  0.3 10.6667857142857  0.666607142857143 10.6667857142857  C 1.03321428571429 10.6667857142857  1.33321428571429 10.9667857142857  1.33321428571429 11.3333928571429  L 1.33321428571429 14.3333928571429  C 1.33321428571429 14.5  1.5 14.6667857142857  1.66660714285714 14.6667857142857  L 4.66660714285714 14.6667857142857  C 5.03321428571429 14.6667857142857  5.33321428571428 14.9667857142857  5.33321428571428 15.3333928571429  Z M 15.9998214285714 8.16660714285714  C 16 8.53339285714286  15.7 8.83339285714286  15.3333928571429 8.83339285714286  L 0.666607142857143 8.83339285714286  C 0.3 8.83339285714286  0 8.53339285714286  0 8.16678571428571  C 0 7.8  0.3 7.5  0.666607142857143 7.5  L 15.3332142857143 7.5  C 15.6998214285714 7.5  15.9998214285714 7.8  15.9998214285714 8.16660714285714  Z " fill-rule="evenodd" />
    </mask>
  </defs>
  <g transform="matrix(1 0 0 1 -294 -17 )">
    <path d="M 1.33321428571429 4.66660714285714  C 1.33339285714286 5.03339285714286  1.03339285714286 5.33339285714286  0.666607142857143 5.33339285714286  C 0.3 5.33339285714286  0 5.03339285714286  0 4.66678571428572  L 0 1.66678571428571  C 0 0.733392857142857  0.733392857142857 0  1.66660714285714 0  L 4.66660714285714 0  C 5.03321428571429 0  5.33321428571429 0.3  5.33321428571429 0.666607142857143  C 5.33321428571429 1.03321428571429  5.03321428571429 1.33321428571429  4.66660714285714 1.33321428571429  L 1.66660714285714 1.33321428571429  C 1.5 1.33321428571429  1.33321428571429 1.5  1.33321428571429 1.66660714285714  L 1.33321428571429 4.66660714285714  Z M 16 4.66678571428572  C 16 5.03339285714286  15.7 5.33339285714286  15.3333928571429 5.33339285714286  C 14.9667857142857 5.33339285714286  14.6667857142857 5.03339285714286  14.6667857142857 4.66678571428572  L 14.6667857142857 1.66678571428571  C 14.6667857142857 1.50017857142857  14.5 1.33339285714286  14.3333928571429 1.33339285714286  L 11.3333928571429 1.33339285714286  C 10.9667857142857 1.33339285714286  10.6667857142857 1.03339285714286  10.6667857142857 0.666785714285715  C 10.6667857142857 0.300178571428572  10.9667857142857 0.000178571428571774  11.3333928571429 0.000178571428571774  L 14.3333928571429 0.000178571428571774  C 15.2666071428571 0.000178571428571774  16 0.733571428571429  16 1.66678571428571  L 16 4.66678571428572  Z M 16 14.3333928571429  C 16 15.2666071428571  15.2666071428571 16  14.3333928571429 16  L 11.3333928571429 16  C 10.9667857142857 16  10.6667857142857 15.7  10.6667857142857 15.3333928571429  C 10.6667857142857 14.9667857142857  10.9667857142857 14.6667857142857  11.3333928571429 14.6667857142857  L 14.3333928571429 14.6667857142857  C 14.5 14.6667857142857  14.6667857142857 14.5  14.6667857142857 14.3333928571429  L 14.6667857142857 11.3333928571429  C 14.6667857142857 10.9667857142857  14.9667857142857 10.6667857142857  15.3333928571429 10.6667857142857  C 15.7 10.6667857142857  16 10.9667857142857  16 11.3333928571429  L 16 14.3333928571429  Z M 5.33321428571428 15.3333928571429  C 5.33339285714286 15.7  5.03339285714286 16  4.66660714285714 16  L 1.66660714285714 16  C 0.733392857142857 16  0 15.2666071428571  0 14.3333928571429  L 0 11.3333928571429  C 0 10.9667857142857  0.3 10.6667857142857  0.666607142857143 10.6667857142857  C 1.03321428571429 10.6667857142857  1.33321428571429 10.9667857142857  1.33321428571429 11.3333928571429  L 1.33321428571429 14.3333928571429  C 1.33321428571429 14.5  1.5 14.6667857142857  1.66660714285714 14.6667857142857  L 4.66660714285714 14.6667857142857  C 5.03321428571429 14.6667857142857  5.33321428571428 14.9667857142857  5.33321428571428 15.3333928571429  Z M 15.9998214285714 8.16660714285714  C 16 8.53339285714286  15.7 8.83339285714286  15.3333928571429 8.83339285714286  L 0.666607142857143 8.83339285714286  C 0.3 8.83339285714286  0 8.53339285714286  0 8.16678571428571  C 0 7.8  0.3 7.5  0.666607142857143 7.5  L 15.3332142857143 7.5  C 15.6998214285714 7.5  15.9998214285714 7.8  15.9998214285714 8.16660714285714  Z " fill-rule="nonzero" fill="#ffffff" stroke="none" fill-opacity="0" transform="matrix(1 0 0 1 294 17 )" />
    <path d="M 1.33321428571429 4.66660714285714  C 1.33339285714286 5.03339285714286  1.03339285714286 5.33339285714286  0.666607142857143 5.33339285714286  C 0.3 5.33339285714286  0 5.03339285714286  0 4.66678571428572  L 0 1.66678571428571  C 0 0.733392857142857  0.733392857142857 0  1.66660714285714 0  L 4.66660714285714 0  C 5.03321428571429 0  5.33321428571429 0.3  5.33321428571429 0.666607142857143  C 5.33321428571429 1.03321428571429  5.03321428571429 1.33321428571429  4.66660714285714 1.33321428571429  L 1.66660714285714 1.33321428571429  C 1.5 1.33321428571429  1.33321428571429 1.5  1.33321428571429 1.66660714285714  L 1.33321428571429 4.66660714285714  Z " stroke-width="2" stroke="#333333" fill="none" transform="matrix(1 0 0 1 294 17 )" mask="url(#clip24)" />
    <path d="M 16 4.66678571428572  C 16 5.03339285714286  15.7 5.33339285714286  15.3333928571429 5.33339285714286  C 14.9667857142857 5.33339285714286  14.6667857142857 5.03339285714286  14.6667857142857 4.66678571428572  L 14.6667857142857 1.66678571428571  C 14.6667857142857 1.50017857142857  14.5 1.33339285714286  14.3333928571429 1.33339285714286  L 11.3333928571429 1.33339285714286  C 10.9667857142857 1.33339285714286  10.6667857142857 1.03339285714286  10.6667857142857 0.666785714285715  C 10.6667857142857 0.300178571428572  10.9667857142857 0.000178571428571774  11.3333928571429 0.000178571428571774  L 14.3333928571429 0.000178571428571774  C 15.2666071428571 0.000178571428571774  16 0.733571428571429  16 1.66678571428571  L 16 4.66678571428572  Z " stroke-width="2" stroke="#333333" fill="none" transform="matrix(1 0 0 1 294 17 )" mask="url(#clip24)" />
    <path d="M 16 14.3333928571429  C 16 15.2666071428571  15.2666071428571 16  14.3333928571429 16  L 11.3333928571429 16  C 10.9667857142857 16  10.6667857142857 15.7  10.6667857142857 15.3333928571429  C 10.6667857142857 14.9667857142857  10.9667857142857 14.6667857142857  11.3333928571429 14.6667857142857  L 14.3333928571429 14.6667857142857  C 14.5 14.6667857142857  14.6667857142857 14.5  14.6667857142857 14.3333928571429  L 14.6667857142857 11.3333928571429  C 14.6667857142857 10.9667857142857  14.9667857142857 10.6667857142857  15.3333928571429 10.6667857142857  C 15.7 10.6667857142857  16 10.9667857142857  16 11.3333928571429  L 16 14.3333928571429  Z " stroke-width="2" stroke="#333333" fill="none" transform="matrix(1 0 0 1 294 17 )" mask="url(#clip24)" />
    <path d="M 5.33321428571428 15.3333928571429  C 5.33339285714286 15.7  5.03339285714286 16  4.66660714285714 16  L 1.66660714285714 16  C 0.733392857142857 16  0 15.2666071428571  0 14.3333928571429  L 0 11.3333928571429  C 0 10.9667857142857  0.3 10.6667857142857  0.666607142857143 10.6667857142857  C 1.03321428571429 10.6667857142857  1.33321428571429 10.9667857142857  1.33321428571429 11.3333928571429  L 1.33321428571429 14.3333928571429  C 1.33321428571429 14.5  1.5 14.6667857142857  1.66660714285714 14.6667857142857  L 4.66660714285714 14.6667857142857  C 5.03321428571429 14.6667857142857  5.33321428571428 14.9667857142857  5.33321428571428 15.3333928571429  Z " stroke-width="2" stroke="#333333" fill="none" transform="matrix(1 0 0 1 294 17 )" mask="url(#clip24)" />
    <path d="M 15.9998214285714 8.16660714285714  C 16 8.53339285714286  15.7 8.83339285714286  15.3333928571429 8.83339285714286  L 0.666607142857143 8.83339285714286  C 0.3 8.83339285714286  0 8.53339285714286  0 8.16678571428571  C 0 7.8  0.3 7.5  0.666607142857143 7.5  L 15.3332142857143 7.5  C 15.6998214285714 7.5  15.9998214285714 7.8  15.9998214285714 8.16660714285714  Z " stroke-width="2" stroke="#333333" fill="none" transform="matrix(1 0 0 1 294 17 )" mask="url(#clip24)" />
  </g>
</svg>