<?xml version="1.0" encoding="utf-8"?>
<svg version="1.1" xmlns:xlink="http://www.w3.org/1999/xlink" width="12px" height="12px" xmlns="http://www.w3.org/2000/svg">
  <g transform="matrix(1 0 0 1 -20 -19 )">
    <path d="M 26 19  C 29.36 19  32 21.64  32 25  C 32 28.36  29.36 31  26 31  C 22.64 31  20 28.36  20 25  C 20 21.64  22.64 19  26 19  Z " fill-rule="nonzero" fill="#ffffff" stroke="none" fill-opacity="0" />
    <path d="M 26 19.5  C 29.08 19.5  31.5 21.92  31.5 25  C 31.5 28.08  29.08 30.5  26 30.5  C 22.92 30.5  20.5 28.08  20.5 25  C 20.5 21.92  22.92 19.5  26 19.5  Z " stroke-width="1" stroke="#aaaaaa" fill="none" />
  </g>
</svg>