<?xml version="1.0" encoding="utf-8"?>
<svg version="1.1" xmlns:xlink="http://www.w3.org/1999/xlink" width="12px" height="12px" xmlns="http://www.w3.org/2000/svg">
  <g transform="matrix(1 0 0 1 -20 -14 )">
    <path d="M 26 14  C 29.36 14  32 16.64  32 20  C 32 23.36  29.36 26  26 26  C 22.64 26  20 23.36  20 20  C 20 16.64  22.64 14  26 14  Z " fill-rule="nonzero" fill="#ffffff" stroke="none" fill-opacity="0" />
    <path d="M 26 14.5  C 29.08 14.5  31.5 16.92  31.5 20  C 31.5 23.08  29.08 25.5  26 25.5  C 22.92 25.5  20.5 23.08  20.5 20  C 20.5 16.92  22.92 14.5  26 14.5  Z " stroke-width="1" stroke="#aaaaaa" fill="none" />
  </g>
</svg>