<?xml version="1.0" encoding="utf-8"?>
<svg version="1.1" xmlns:xlink="http://www.w3.org/1999/xlink" width="40px" height="40px" xmlns="http://www.w3.org/2000/svg">
  <g transform="matrix(1 0 0 1 -130 -240 )">
    <path d="M 150 240  C 161.2 240  170 248.8  170 260  C 170 271.2  161.2 280  150 280  C 138.8 280  130 271.2  130 260  C 130 248.8  138.8 240  150 240  Z " fill-rule="nonzero" fill="#f2f2f2" stroke="none" fill-opacity="0" />
    <path d="M 150 240.5  C 160.92 240.5  169.5 249.08  169.5 260  C 169.5 270.92  160.92 279.5  150 279.5  C 139.08 279.5  130.5 270.92  130.5 260  C 130.5 249.08  139.08 240.5  150 240.5  Z " stroke-width="1" stroke="#ffffff" fill="none" />
  </g>
</svg>