<?xml version="1.0" encoding="utf-8"?>
<svg version="1.1" xmlns:xlink="http://www.w3.org/1999/xlink" width="40px" height="40px" xmlns="http://www.w3.org/2000/svg">
  <g transform="matrix(1 0 0 1 -130 -260 )">
    <path d="M 150 260  C 161.2 260  170 268.8  170 280  C 170 291.2  161.2 300  150 300  C 138.8 300  130 291.2  130 280  C 130 268.8  138.8 260  150 260  Z " fill-rule="nonzero" fill="#f2f2f2" stroke="none" fill-opacity="0" />
    <path d="M 150 260.5  C 160.92 260.5  169.5 269.08  169.5 280  C 169.5 290.92  160.92 299.5  150 299.5  C 139.08 299.5  130.5 290.92  130.5 280  C 130.5 269.08  139.08 260.5  150 260.5  Z " stroke-width="1" stroke="#ffffff" fill="none" />
  </g>
</svg>