<?xml version="1.0" encoding="utf-8"?>
<svg version="1.1" xmlns:xlink="http://www.w3.org/1999/xlink" width="50px" height="50px" xmlns="http://www.w3.org/2000/svg">
  <g transform="matrix(1 0 0 1 -175 -310 )">
    <path d="M 200 310  C 214 310  225 321  225 335  C 225 349  214 360  200 360  C 186 360  175 349  175 335  C 175 321  186 310  200 310  Z " fill-rule="nonzero" fill="#f2f2f2" stroke="none" fill-opacity="0" />
    <path d="M 200 310.5  C 213.72 310.5  224.5 321.28  224.5 335  C 224.5 348.72  213.72 359.5  200 359.5  C 186.28 359.5  175.5 348.72  175.5 335  C 175.5 321.28  186.28 310.5  200 310.5  Z " stroke-width="1" stroke="#ffffff" fill="none" />
  </g>
</svg>