<?xml version="1.0" encoding="utf-8"?>
<svg version="1.1" xmlns:xlink="http://www.w3.org/1999/xlink" width="50px" height="50px" xmlns="http://www.w3.org/2000/svg">
  <g transform="matrix(1 0 0 1 -125 -230 )">
    <path d="M 150 230  C 164 230  175 241  175 255  C 175 269  164 280  150 280  C 136 280  125 269  125 255  C 125 241  136 230  150 230  Z " fill-rule="nonzero" fill="#f2f2f2" stroke="none" fill-opacity="0" />
    <path d="M 150 230.5  C 163.72 230.5  174.5 241.28  174.5 255  C 174.5 268.72  163.72 279.5  150 279.5  C 136.28 279.5  125.5 268.72  125.5 255  C 125.5 241.28  136.28 230.5  150 230.5  Z " stroke-width="1" stroke="#ffffff" fill="none" />
  </g>
</svg>