<?xml version="1.0" encoding="utf-8"?>
<svg version="1.1" xmlns:xlink="http://www.w3.org/1999/xlink" width="60px" height="60px" xmlns="http://www.w3.org/2000/svg">
  <g transform="matrix(1 0 0 1 -170 -300 )">
    <path d="M 200 300  C 216.8 300  230 313.2  230 330  C 230 346.8  216.8 360  200 360  C 183.2 360  170 346.8  170 330  C 170 313.2  183.2 300  200 300  Z " fill-rule="nonzero" fill="#f2f2f2" stroke="none" fill-opacity="0" />
    <path d="M 200 300.5  C 216.52 300.5  229.5 313.48  229.5 330  C 229.5 346.52  216.52 359.5  200 359.5  C 183.48 359.5  170.5 346.52  170.5 330  C 170.5 313.48  183.48 300.5  200 300.5  Z " stroke-width="1" stroke="#ffffff" fill="none" />
  </g>
</svg>