<?xml version="1.0" encoding="utf-8"?>
<svg version="1.1" xmlns:xlink="http://www.w3.org/1999/xlink" width="100px" height="100px" xmlns="http://www.w3.org/2000/svg">
  <g transform="matrix(1 0 0 1 -150 -40 )">
    <path d="M 150 40  L 250 40  L 250 140  L 150 140  L 150 40  " fill-rule="nonzero" fill="#cccccc" stroke="none" />
    <path d="M 157 47  L 243 47  L 243 133  L 157 133  L 157 47  " fill-rule="nonzero" fill="#ffffff" stroke="none" />
    <path d="M 209.5 70  C 205.3 70  202 66.7  202 62.5  C 202 58.3  205.3 55  209.5 55  C 213.7 55  217 58.3  217 62.5  C 217 66.7  213.7 70  209.5 70  " fill-rule="nonzero" fill="#cccccc" stroke="none" />
    <path d="M 160 131  L 160 86.45  L 180.25 66.2  L 208.6 82.4  L 224.8 78.35  L 241 82.4  L 241 131  L 160 131  " fill-rule="nonzero" fill="#169bd5" stroke="none" />
  </g>
</svg>