<?xml version="1.0" encoding="utf-8"?>
<svg version="1.1" xmlns:xlink="http://www.w3.org/1999/xlink" width="60px" height="60px" xmlns="http://www.w3.org/2000/svg">
  <g transform="matrix(1 0 0 1 -120 -20 )">
    <path d="M 120 20  L 180 20  L 180 80  L 120 80  L 120 20  " fill-rule="nonzero" fill="#cccccc" stroke="none" />
    <path d="M 124 24  L 176 24  L 176 76  L 124 76  L 124 24  " fill-rule="nonzero" fill="#ffffff" stroke="none" />
    <path d="M 155.7 38  C 153.18 38  151.2 36.02  151.2 33.5  C 151.2 30.98  153.18 29  155.7 29  C 158.22 29  160.2 30.98  160.2 33.5  C 160.2 36.02  158.22 38  155.7 38  " fill-rule="nonzero" fill="#cccccc" stroke="none" />
    <path d="M 126 75  L 126 48.05  L 138.25 35.8  L 155.4 45.6  L 165.2 43.15  L 175 45.6  L 175 75  L 126 75  " fill-rule="nonzero" fill="#169bd5" stroke="none" />
  </g>
</svg>