<?xml version="1.0" encoding="utf-8"?>
<svg version="1.1" xmlns:xlink="http://www.w3.org/1999/xlink" width="60px" height="60px" xmlns="http://www.w3.org/2000/svg">
  <defs>
    <mask fill="white" id="clip3115">
      <path d="M 150 100  C 133.35 100  120 86.65  120 70  L 120 70  C 120 53.35  133.35 40  150 40  L 150 40  C 166.65 40  180 53.35  180 70  L 180 70  C 180 86.65  166.65 100  150 100  " fill-rule="evenodd" />
    </mask>
  </defs>
  <g transform="matrix(1 0 0 1 -120 -40 )">
    <path d="M 120 40  L 180 40  L 180 100  L 120 100  L 120 40  " fill-rule="nonzero" fill="#cccccc" stroke="none" mask="url(#clip3115)" />
    <path d="M 124 44  L 176 44  L 176 96  L 124 96  L 124 44  " fill-rule="nonzero" fill="#ffffff" stroke="none" mask="url(#clip3115)" />
    <path d="M 155.7 58  C 153.18 58  151.2 56.02  151.2 53.5  C 151.2 50.98  153.18 49  155.7 49  C 158.22 49  160.2 50.98  160.2 53.5  C 160.2 56.02  158.22 58  155.7 58  " fill-rule="nonzero" fill="#cccccc" stroke="none" mask="url(#clip3115)" />
    <path d="M 126 95  L 126 68.05  L 138.25 55.8  L 155.4 65.6  L 165.2 63.15  L 175 65.6  L 175 95  L 126 95  " fill-rule="nonzero" fill="#169bd5" stroke="none" mask="url(#clip3115)" />
  </g>
</svg>