<?xml version="1.0" encoding="utf-8"?>
<svg version="1.1" xmlns:xlink="http://www.w3.org/1999/xlink" width="50px" height="39px" xmlns="http://www.w3.org/2000/svg">
  <g transform="matrix(1 0 0 1 -290 -170 )">
    <path d="M 9.15178571428571 29.9147727272727  C 10.1934523809524 30.9488636363636  10.7142857142857 32.2045454545455  10.7142857142857 33.6818181818182  C 10.7142857142857 35.1590909090909  10.1934523809524 36.4147727272727  9.15178571428571 37.4488636363636  C 8.11011904761905 38.4829545454545  6.8452380952381 39  5.35714285714286 39  C 3.86904761904762 39  2.60416666666667 38.4829545454545  1.5625 37.4488636363636  C 0.520833333333333 36.4147727272727  0 35.1590909090909  0 33.6818181818182  C 0 32.2045454545455  0.520833333333333 30.9488636363636  1.5625 29.9147727272727  C 2.60416666666667 28.8806818181818  3.86904761904762 28.3636363636364  5.35714285714286 28.3636363636364  C 6.8452380952381 28.3636363636364  8.11011904761905 28.8806818181818  9.15178571428571 29.9147727272727  Z M 9.15178571428571 15.7329545454545  C 10.1934523809524 16.7670454545455  10.7142857142857 18.0227272727273  10.7142857142857 19.5  C 10.7142857142857 20.9772727272727  10.1934523809524 22.2329545454545  9.15178571428571 23.2670454545455  C 8.11011904761905 24.3011363636364  6.8452380952381 24.8181818181818  5.35714285714286 24.8181818181818  C 3.86904761904762 24.8181818181818  2.60416666666667 24.3011363636364  1.5625 23.2670454545455  C 0.520833333333333 22.2329545454545  0 20.9772727272727  0 19.5  C 0 18.0227272727273  0.520833333333333 16.7670454545455  1.5625 15.7329545454545  C 2.60416666666667 14.6988636363636  3.86904761904762 14.1818181818182  5.35714285714286 14.1818181818182  C 6.8452380952381 14.1818181818182  8.11011904761905 14.6988636363636  9.15178571428571 15.7329545454545  Z M 49.7349330357143 30.3995028409091  C 49.9116443452381 30.5749289772727  50 30.7826704545455  50 31.0227272727273  L 50 36.3409090909091  C 50 36.5809659090909  49.9116443452381 36.7887073863636  49.7349330357143 36.9641335227273  C 49.5582217261905 37.1395596590909  49.3489583333333 37.2272727272727  49.1071428571429 37  L 15.1785714285714 37  C 14.936755952381 37.2272727272727  14.7274925595238 37.1395596590909  14.55078125 36.9641335227273  C 14.3740699404762 36.7887073863636  14.2857142857143 36.5809659090909  14.2857142857143 36.3409090909091  L 14.2857142857143 31.0227272727273  C 14.2857142857143 30.7826704545455  14.3740699404762 30.5749289772727  14.55078125 30.3995028409091  C 14.7274925595238 30.2240767045455  14.936755952381 30.1363636363636  15.1785714285714 30  L 49.1071428571429 30  C 49.3489583333333 30.1363636363636  49.5582217261905 30.2240767045455  49.7349330357143 30.3995028409091  Z M 9.15178571428571 1.55113636363636  C 10.1934523809524 2.58522727272727  10.7142857142857 3.84090909090909  10.7142857142857 5.31818181818182  C 10.7142857142857 6.79545454545454  10.1934523809524 8.05113636363636  9.15178571428571 9.08522727272727  C 8.11011904761905 10.1193181818182  6.8452380952381 10.6363636363636  5.35714285714286 10.6363636363636  C 3.86904761904762 10.6363636363636  2.60416666666667 10.1193181818182  1.5625 9.08522727272727  C 0.520833333333333 8.05113636363636  0 6.79545454545454  0 5.31818181818182  C 0 3.84090909090909  0.520833333333333 2.58522727272727  1.5625 1.55113636363636  C 2.60416666666667 0.517045454545452  3.86904761904762 0  5.35714285714286 0  C 6.8452380952381 0  8.11011904761905 0.517045454545452  9.15178571428571 1.55113636363636  Z M 49.7349330357143 16.2176846590909  C 49.9116443452381 16.3931107954545  50 16.6008522727273  50 16.8409090909091  L 50 22.1590909090909  C 50 22.3991477272727  49.9116443452381 22.6068892045455  49.7349330357143 22.7823153409091  C 49.5582217261905 22.9577414772727  49.3489583333333 23.0454545454545  49.1071428571429 23  L 15.1785714285714 23  C 14.936755952381 23.0454545454545  14.7274925595238 22.9577414772727  14.55078125 22.7823153409091  C 14.3740699404762 22.6068892045455  14.2857142857143 22.3991477272727  14.2857142857143 22.1590909090909  L 14.2857142857143 16.8409090909091  C 14.2857142857143 16.6008522727273  14.3740699404762 16.3931107954545  14.55078125 16.2176846590909  C 14.7274925595238 16.0422585227273  14.936755952381 15.9545454545455  15.1785714285714 16  L 49.1071428571429 16  C 49.3489583333333 15.9545454545455  49.5582217261905 16.0422585227273  49.7349330357143 16.2176846590909  Z M 49.7349330357143 2.03586647727273  C 49.9116443452381 2.21129261363636  50 2.41903409090909  50 2.65909090909091  L 50 7.97727272727273  C 50 8.21732954545454  49.9116443452381 8.42507102272727  49.7349330357143 8.60049715909091  C 49.5582217261905 8.77592329545454  49.3489583333333 8.86363636363637  49.1071428571429 9  L 15.1785714285714 9  C 14.936755952381 8.86363636363637  14.7274925595238 8.77592329545454  14.55078125 8.60049715909091  C 14.3740699404762 8.42507102272727  14.2857142857143 8.21732954545454  14.2857142857143 7.97727272727273  L 14.2857142857143 2.65909090909091  C 14.2857142857143 2.41903409090909  14.3740699404762 2.21129261363636  14.55078125 2.03586647727273  C 14.7274925595238 1.86044034090909  14.936755952381 1.77272727272727  15.1785714285714 2  L 49.1071428571429 2  C 49.3489583333333 1.77272727272727  49.5582217261905 1.86044034090909  49.7349330357143 2.03586647727273  Z " fill-rule="nonzero" fill="#000000" stroke="none" transform="matrix(1 0 0 1 290 170 )" />
  </g>
</svg>