<?xml version="1.0" encoding="utf-8"?>
<svg version="1.1" xmlns:xlink="http://www.w3.org/1999/xlink" width="780px" height="280px" xmlns="http://www.w3.org/2000/svg">
  <g transform="matrix(1 0 0 1 -120 -150 )">
    <path d="M 120 150  L 900 150  L 900 430  L 120 430  L 120 150  " fill-rule="nonzero" fill="#cccccc" stroke="none" />
    <path d="M 140 170  L 880 170  L 880 410  L 140 410  L 140 170  " fill-rule="nonzero" fill="#ffffff" stroke="none" />
    <path d="M 546.6 234  C 534.84 234  525.6 224.76  525.6 213  C 525.6 201.24  534.84 192  546.6 192  C 558.36 192  567.6 201.24  567.6 213  C 567.6 224.76  558.36 234  546.6 234  " fill-rule="nonzero" fill="#cccccc" stroke="none" />
    <path d="M 147 403  L 147 278.7  L 328.5 222.2  L 582.6 354.323076923077  L 727.8 256.1  L 873 354.323076923077  L 873 403  L 147 403  " fill-rule="nonzero" fill="#169bd5" stroke="none" />
  </g>
</svg>