<?xml version="1.0" encoding="utf-8"?>
<svg version="1.1" xmlns:xlink="http://www.w3.org/1999/xlink" width="16px" height="16px" xmlns="http://www.w3.org/2000/svg">
  <g transform="matrix(1 0 0 1 -890 -13 )">
    <path d="M 13.1875 8.479166666666664  C 13.3125 8.354166666666664  13.375 8.197916666666664  13.375 8.010416666666664  C 13.375 7.822916666666668  13.3125 7.666666666666668  13.1875 7.541666666666668  L 12.239583333333258 6.59375  C 12.114583333333258 6.46875  11.958333333333258 6.40625  11.770833333333258 6.40625  C 11.583333333333258 6.40625  11.427083333333258 6.46875  11.302083333333258 6.59375  L 9.333333333333258 8.5625  L 9.333333333333258 3.333333333333334  C 9.333333333333258 3.1527777777777963  9.267361111111086 2.9965277777777963  9.135416666666742 2.864583333333334  C 9.003472222222172 2.73263888888893  8.847222222222172 2.666666666666666  8.666666666666742 2.666666666666666  L 7.3333333333332575 2.666666666666666  C 7.152777777777828 2.666666666666666  6.996527777777828 2.73263888888893  6.8645833333332575 2.864583333333334  C 6.732638888888914 2.9965277777777963  6.6666666666667425 3.1527777777777963  6.6666666666667425 3.333333333333334  L 6.6666666666667425 8.5625  L 4.6979166666667425 6.59375  C 4.565972222222172 6.461805555555532  4.409722222222172 6.395833333333332  4.2291666666667425 6.395833333333332  C 4.048611111111086 6.395833333333332  3.892361111111086 6.461805555555532  3.7604166666667425 6.59375  L 2.8125 7.541666666666668  C 2.6875 7.666666666666668  2.625 7.822916666666668  2.625 8.010416666666664  C 2.625 8.197916666666664  2.6875 8.354166666666664  2.8125 8.479166666666664  L 6.5833333333332575 12.25  L 7.53125 13.197916666666664  C 7.65625 13.322916666666664  7.8125 13.385416666666664  8 13.385416666666664  C 8.1875 13.385416666666664  8.34375 13.322916666666664  8.46875 13.197916666666664  L 9.416666666666742 12.25  L 13.1875 8.479166666666664  Z M 14.927083333333258 3.984375  C 15.642361111111086 5.210069444444468  16 6.548611111111072  16 8  C 16 9.451388888888932  15.642361111111086 10.789930555555536  14.927083333333258 12.015625  C 14.21180555555543 13.241319444444464  13.24131944444457 14.211805555555536  12.015625 14.927083333333336  C 10.78993055555543 15.642361111111065  9.451388888888914 16  8 16  C 6.548611111111086 16  5.210069444444571 15.642361111111065  3.984375 14.927083333333336  C 2.7586805555554292 14.211805555555536  1.7881944444445708 13.241319444444464  1.0729166666667425 12.015625  C 0.35763888888891415 10.789930555555536  0 9.451388888888932  0 8  C 0 6.548611111111072  0.35763888888891415 5.210069444444468  1.0729166666667425 3.984375  C 1.7881944444445708 2.758680555555536  2.7586805555554292 1.7881944444444642  3.984375 1.0729166666666679  C 5.210069444444571 0.35763888888893014  6.548611111111086 0  8 0  C 9.451388888888914 0  10.78993055555543 0.35763888888893014  12.015625 1.0729166666666679  C 13.24131944444457 1.7881944444444642  14.21180555555543 2.758680555555536  14.927083333333258 3.984375  Z " fill-rule="nonzero" fill="#0091ff" stroke="none" transform="matrix(1 0 0 1 890 13 )" />
  </g>
</svg>