<?xml version="1.0" encoding="utf-8"?>
<svg version="1.1" xmlns:xlink="http://www.w3.org/1999/xlink" width="16px" height="16px" xmlns="http://www.w3.org/2000/svg">
  <g transform="matrix(1 0 0 1 -924 -13 )">
    <path d="M 13.1875 8.458333333333336  C 13.3125 8.333333333333336  13.375 8.177083333333336  13.375 7.989583333333332  C 13.375 7.802083333333332  13.3125 7.645833333333332  13.1875 7.520833333333332  L 9.416666666666742 3.75  L 8.46875 2.802083333333334  C 8.34375 2.677083333333334  8.1875 2.614583333333334  8 2.614583333333334  C 7.8125 2.614583333333334  7.65625 2.677083333333334  7.53125 2.802083333333334  L 6.5833333333332575 3.75  L 2.8125 7.520833333333332  C 2.6875 7.645833333333332  2.625 7.802083333333332  2.625 7.989583333333332  C 2.625 8.177083333333336  2.6875 8.333333333333336  2.8125 8.458333333333336  L 3.7604166666667425 9.40625  C 3.8854166666667425 9.53125  4.0416666666667425 9.59375  4.2291666666667425 9.59375  C 4.4166666666667425 9.59375  4.5729166666667425 9.53125  4.6979166666667425 9.40625  L 6.6666666666667425 7.4375  L 6.6666666666667425 12.666666666666664  C 6.6666666666667425 12.847222222222204  6.732638888888914 13.003472222222204  6.8645833333332575 13.135416666666664  C 6.996527777777828 13.267361111111068  7.152777777777828 13.333333333333336  7.3333333333332575 13.333333333333336  L 8.666666666666742 13.333333333333336  C 8.847222222222172 13.333333333333336  9.003472222222172 13.267361111111068  9.135416666666742 13.135416666666664  C 9.267361111111086 13.003472222222204  9.333333333333258 12.847222222222204  9.333333333333258 12.666666666666664  L 9.333333333333258 7.4375  L 11.302083333333258 9.40625  C 11.434027777777828 9.538194444444464  11.590277777777828 9.604166666666664  11.770833333333258 9.604166666666664  C 11.951388888888914 9.604166666666664  12.107638888888914 9.538194444444464  12.239583333333258 9.40625  L 13.1875 8.458333333333336  Z M 14.927083333333258 3.984375  C 15.642361111111086 5.210069444444468  16 6.548611111111072  16 8  C 16 9.451388888888932  15.642361111111086 10.789930555555536  14.927083333333258 12.015625  C 14.21180555555543 13.241319444444464  13.24131944444457 14.211805555555536  12.015625 14.927083333333336  C 10.78993055555543 15.642361111111065  9.451388888888914 16  8 16  C 6.548611111111086 16  5.210069444444571 15.642361111111065  3.984375 14.927083333333336  C 2.7586805555554292 14.211805555555536  1.7881944444445708 13.241319444444464  1.0729166666667425 12.015625  C 0.35763888888891415 10.789930555555536  0 9.451388888888932  0 8  C 0 6.548611111111072  0.35763888888891415 5.210069444444468  1.0729166666667425 3.984375  C 1.7881944444445708 2.758680555555536  2.7586805555554292 1.7881944444444642  3.984375 1.0729166666666679  C 5.210069444444571 0.35763888888893014  6.548611111111086 0  8 0  C 9.451388888888914 0  10.78993055555543 0.35763888888893014  12.015625 1.0729166666666679  C 13.24131944444457 1.7881944444444642  14.21180555555543 2.758680555555536  14.927083333333258 3.984375  Z " fill-rule="nonzero" fill="#0091ff" stroke="none" transform="matrix(1 0 0 1 924 13 )" />
  </g>
</svg>