<?xml version="1.0" encoding="utf-8"?>
<svg version="1.1" xmlns:xlink="http://www.w3.org/1999/xlink" width="12px" height="12px" viewBox="581 550  12 12" xmlns="http://www.w3.org/2000/svg">
  <path d="M 587 550  C 590.36 550  593 552.64  593 556  C 593 559.36  590.36 562  587 562  C 583.64 562  581 559.36  581 556  C 581 552.64  583.64 550  587 550  Z " fill-rule="nonzero" fill="#f0f0f0" stroke="none" />
  <path d="M 587 550.5  C 590.08 550.5  592.5 552.92  592.5 556  C 592.5 559.08  590.08 561.5  587 561.5  C 583.92 561.5  581.5 559.08  581.5 556  C 581.5 552.92  583.92 550.5  587 550.5  Z " stroke-width="1" stroke="#aaaaaa" fill="none" />
  <path d="M 587 559  C 585.32 559  584 557.68  584 556  C 584 554.32  585.32 553  587 553  C 588.68 553  590 554.32  590 556  C 590 557.68  588.68 559  587 559  " fill-rule="nonzero" fill="#aaaaaa" stroke="none" />
</svg>