<?xml version="1.0" encoding="utf-8"?>
<svg version="1.1" xmlns:xlink="http://www.w3.org/1999/xlink" width="12px" height="12px" viewBox="180 380  12 12" xmlns="http://www.w3.org/2000/svg">
  <path d="M 186 380  C 189.36 380  192 382.64  192 386  C 192 389.36  189.36 392  186 392  C 182.64 392  180 389.36  180 386  C 180 382.64  182.64 380  186 380  Z " fill-rule="nonzero" fill="#f0f0f0" stroke="none" />
  <path d="M 186 380.5  C 189.08 380.5  191.5 382.92  191.5 386  C 191.5 389.08  189.08 391.5  186 391.5  C 182.92 391.5  180.5 389.08  180.5 386  C 180.5 382.92  182.92 380.5  186 380.5  Z " stroke-width="1" stroke="#aaaaaa" fill="none" />
  <path d="M 186 389  C 184.32 389  183 387.68  183 386  C 183 384.32  184.32 383  186 383  C 187.68 383  189 384.32  189 386  C 189 387.68  187.68 389  186 389  " fill-rule="nonzero" fill="#aaaaaa" stroke="none" />
</svg>