<?xml version="1.0" encoding="utf-8"?>
<svg version="1.1" xmlns:xlink="http://www.w3.org/1999/xlink" width="24px" height="24px" xmlns="http://www.w3.org/2000/svg">
  <g transform="matrix(1 0 0 1 -3 0 )">
    <path d="M 3 0  L 27 0  L 27 24  L 3 24  L 3 0  " fill-rule="nonzero" fill="#cccccc" stroke="none" />
    <path d="M 5 2  L 25 2  L 25 22  L 5 22  L 5 2  " fill-rule="nonzero" fill="#ffffff" stroke="none" />
    <path d="M 17.28 7.199999999999999  C 16.272000000000002 7.199999999999999  15.48 6.4079999999999995  15.48 5.3999999999999995  C 15.48 4.3919999999999995  16.272000000000002 3.5999999999999996  17.28 3.5999999999999996  C 18.288 3.5999999999999996  19.08 4.3919999999999995  19.08 5.3999999999999995  C 19.08 6.4079999999999995  18.288 7.199999999999999  17.28 7.199999999999999  " fill-rule="nonzero" fill="#cccccc" stroke="none" />
    <path d="M 6 22  L 6 11.549999999999999  L 10.75 6.799999999999999  L 17.4 10.6  L 21.200000000000003 9.65  L 25 10.6  L 25 22  L 6 22  " fill-rule="nonzero" fill="#169bd5" stroke="none" />
  </g>
</svg>