<?xml version="1.0" encoding="utf-8"?>
<svg version="1.1" xmlns:xlink="http://www.w3.org/1999/xlink" width="156px" height="206px" xmlns="http://www.w3.org/2000/svg">
  <defs>
    <filter x="-3px" y="-3px" width="156px" height="206px" filterUnits="userSpaceOnUse" id="filter121">
      <feOffset dx="0" dy="0" in="SourceAlpha" result="shadowOffsetInner" />
      <feGaussianBlur stdDeviation="1.5" in="shadowOffsetInner" result="shadowGaussian" />
      <feComposite in2="shadowGaussian" operator="atop" in="SourceAlpha" result="shadowComposite" />
      <feColorMatrix type="matrix" values="0 0 0 0 0.498039215686275  0 0 0 0 0.498039215686275  0 0 0 0 0.498039215686275  0 0 0 0.349019607843137 0  " in="shadowComposite" />
    </filter>
    <g id="widget122">
      <path d="M 0 0  L 150 0  L 150 200  L 0 200  L 0 0  " fill-rule="nonzero" fill="#cccccc" stroke="none" />
      <path d="M 11 11  L 139 11  L 139 189  L 11 189  L 11 11  " fill-rule="nonzero" fill="#ffffff" stroke="none" />
      <path d="M 89.25 52.5  C 82.95 52.5  78 47.55  78 41.25  C 78 34.95  82.95 30  89.25 30  C 95.55 30  100.5 34.95  100.5 41.25  C 100.5 47.55  95.55 52.5  89.25 52.5  " fill-rule="nonzero" fill="#cccccc" stroke="none" />
      <path d="M 15 185  L 15 91.5  L 45 49  L 87 83  L 111 74.5  L 135 83  L 135 185  L 15 185  " fill-rule="nonzero" fill="#169bd5" stroke="none" />
    </g>
  </defs>
  <g transform="matrix(1 0 0 1 3 3 )">
    <use xlink:href="#widget122" filter="url(#filter121)" />
    <use xlink:href="#widget122" />
  </g>
</svg>