<?xml version="1.0" encoding="utf-8"?>
<svg version="1.1" xmlns:xlink="http://www.w3.org/1999/xlink" width="50px" height="50px" xmlns="http://www.w3.org/2000/svg">
  <g transform="matrix(1 0 0 1 -120 -70 )">
    <path d="M 145 70  C 159 70  170 81  170 95  C 170 109  159 120  145 120  C 131 120  120 109  120 95  C 120 81  131 70  145 70  Z " fill-rule="nonzero" fill="#f2f2f2" stroke="none" />
    <path d="M 145 70.5  C 158.72 70.5  169.5 81.28  169.5 95  C 169.5 108.72  158.72 119.5  145 119.5  C 131.28 119.5  120.5 108.72  120.5 95  C 120.5 81.28  131.28 70.5  145 70.5  Z " stroke-width="1" stroke="#d7d7d7" fill="none" />
  </g>
</svg>